<svg id="Capa_1" enable-background="new 0 0 512 512" height="512" viewBox="0 0 512 512" width="512" xmlns="http://www.w3.org/2000/svg"><g><g><path d="m322.667 8-66.667 112.138 38.729 65.145h29.959l105.396-177.283z" fill="#c61926"/><g><path d="m284.028 167.283 10.701 18h29.959l10.701-18z" fill="#ad1729"/></g><path d="m294.729 185.283h-107.417l-105.396-177.283h107.417z" fill="#ff4755"/><path d="m176.611 167.283 10.701 18h107.417l-10.701-18z" fill="#fc2b3a"/><path d="m309.793 225.907h-107.586c-15.124 0-27.385-12.26-27.385-27.385v-13.24h162.355v13.24c0 15.125-12.26 27.385-27.384 27.385z" fill="#ffe27a"/><path d="m309.793 207.907h-107.586c-13.499 0-24.709-9.771-26.964-22.624h-.421v13.24c0 15.124 12.261 27.385 27.385 27.385h107.585c15.124 0 27.385-12.26 27.385-27.385v-13.24h-.421c-2.254 12.854-13.464 22.624-26.963 22.624z" fill="#f9cf58"/><ellipse cx="256" cy="364.954" fill="#ffcb5b" rx="139.046" ry="139.046" transform="matrix(.707 -.707 .707 .707 -183.081 287.912)"/><path d="m256 486c-73.769 0-134.109-57.449-138.749-130.046-.19 2.977-.298 5.975-.298 9 .001 76.793 62.254 139.046 139.047 139.046s139.046-62.253 139.046-139.046c0-3.025-.108-6.023-.298-9-4.639 72.597-64.979 130.046-138.748 130.046z" fill="#f7b737"/><ellipse cx="256" cy="364.954" fill="#ff9838" rx="104.51" ry="104.51" transform="matrix(.707 -.707 .707 .707 -183.081 287.912)"/><path d="m256 451.463c-54.686 0-99.555-42.005-104.12-95.51-.253 2.967-.39 5.967-.39 9 0 57.719 46.791 104.51 104.51 104.51s104.51-46.791 104.51-104.51c0-3.033-.137-6.033-.39-9-4.565 53.505-49.434 95.51-104.12 95.51z" fill="#ff8709"/><path d="m265.884 306.154 10.07 20.404c1.606 3.253 4.709 5.508 8.299 6.03l22.517 3.272c9.041 1.314 12.651 12.424 6.109 18.801l-16.294 15.882c-2.598 2.532-3.783 6.181-3.17 9.757l3.846 22.426c1.544 9.005-7.907 15.871-15.993 11.62l-20.14-10.588c-3.211-1.688-7.048-1.688-10.259 0l-20.14 10.588c-8.087 4.251-17.538-2.615-15.993-11.62l3.846-22.426c.613-3.576-.572-7.224-3.17-9.757l-16.294-15.882c-6.542-6.377-2.932-17.488 6.109-18.801l22.517-3.272c3.59-.522 6.694-2.777 8.299-6.03l10.07-20.404c4.046-8.193 15.728-8.193 19.771 0z" fill="#fff5f5"/><g><path d="m253.673 384.284-39.095 20.553c.124 7.918 8.712 13.42 16.152 9.509l20.14-10.588c3.211-1.688 7.048-1.688 10.259 0l20.14 10.588c7.44 3.911 16.028-1.591 16.152-9.508l-39.095-20.553c-1.456-.766-3.196-.766-4.653-.001z" fill="#efe2dd"/></g></g><g><path d="m384.467 84.819c3.568 2.121 8.179.948 10.299-2.619l42.118-70.845c1.381-2.322 1.409-5.207.072-7.556-1.336-2.348-3.829-3.799-6.531-3.799h-107.628c-2.651 0-5.105 1.396-6.459 3.675l-60.338 101.492-60.338-101.492c-1.354-2.279-3.809-3.675-6.46-3.675h-107.627c-2.702 0-5.196 1.451-6.532 3.799s-1.308 5.233.072 7.556l98.852 166.275h-13.909c-4.15 0-7.515 3.365-7.515 7.515s3.365 7.515 7.515 7.515h7.09v5.751c0 16.35 11.287 30.11 26.477 33.908-22.041 10.359-41.508 26.143-56.215 46.249-2.45 3.35-1.721 8.051 1.629 10.502 3.348 2.45 8.051 1.721 10.502-1.629 24.768-33.862 64.566-54.077 106.459-54.077 72.677 0 131.804 59.127 131.804 131.804s-59.127 131.803-131.804 131.803-131.804-59.127-131.804-131.804c0-18.471 3.743-36.332 11.126-53.087 1.674-3.798-.049-8.233-3.847-9.907s-8.233.049-9.907 3.847c-8.229 18.677-12.402 38.577-12.402 59.147.001 80.964 65.87 146.833 146.834 146.833s146.833-65.869 146.833-146.833c0-58.642-34.56-109.356-84.377-132.868 15.149-3.827 26.395-17.568 26.395-33.889v-5.751h7.09c4.15 0 7.515-3.365 7.515-7.515s-3.364-7.515-7.515-7.515h-13.908l41.396-69.631c2.121-3.567.948-8.178-2.619-10.299-3.568-2.12-8.179-.948-10.299 2.619l-45.962 77.311h-21.469l-34.338-57.758 62.33-104.842h90.142l-35.367 59.49c-2.12 3.568-.948 8.179 2.62 10.3zm-54.646 113.591c0 10.986-8.938 19.924-19.924 19.924h-107.795c-10.986 0-19.924-8.938-19.924-19.924v-5.751h147.643zm-138.368-20.78-96.668-162.6h90.142l96.668 162.6z"/><path d="m344.958 420.942c3.664 1.952 8.214.563 10.165-3.101 8.574-16.104 13.106-34.318 13.106-52.674 0-61.883-50.346-112.229-112.229-112.229s-112.229 50.346-112.229 112.229 50.346 112.229 112.229 112.229c30.343 0 58.77-11.919 80.043-33.562 2.909-2.96 2.868-7.718-.091-10.627-2.96-2.909-7.718-2.869-10.627.091-18.425 18.745-43.045 29.068-69.325 29.068-53.596 0-97.2-43.604-97.2-97.2s43.604-97.2 97.2-97.2 97.2 43.604 97.2 97.2c0 15.902-3.922 31.674-11.343 45.611-1.95 3.664-.561 8.215 3.101 10.165z"/><path d="m318.237 360.235c5.095-4.968 6.895-12.257 4.696-19.025s-7.94-11.607-14.982-12.631l-22.562-3.278c-1.15-.167-2.143-.889-2.657-1.931l-10.09-20.444c-3.149-6.381-9.526-10.345-16.642-10.345s-13.493 3.964-16.642 10.345l-10.09 20.445c-.514 1.042-1.507 1.763-2.657 1.931l-22.561 3.278c-7.042 1.023-12.783 5.863-14.982 12.631s-.4 14.058 4.696 19.025l16.325 15.913c.832.811 1.212 1.979 1.015 3.124l-3.854 22.47c-1.203 7.014 1.626 13.97 7.384 18.152 3.253 2.363 7.059 3.565 10.891 3.565 2.949 0 5.914-.712 8.654-2.152l20.179-10.609c1.029-.541 2.258-.541 3.286 0l20.18 10.609c6.298 3.312 13.788 2.771 19.544-1.412 5.757-4.182 8.587-11.138 7.384-18.152l-3.854-22.471c-.197-1.145.183-2.313 1.015-3.124zm-26.817 5.152c-4.375 4.265-6.37 10.406-5.337 16.427l3.854 22.471c.335 1.951-.87 3.064-1.404 3.452s-1.963 1.191-3.717.269l-20.181-10.609c-5.406-2.842-11.863-2.842-17.272 0l-20.179 10.609c-1.755.923-3.183.119-3.717-.269s-1.739-1.501-1.404-3.453l3.854-22.47c1.033-6.021-.962-12.162-5.337-16.427l-16.325-15.913c-1.418-1.383-1.097-2.991-.893-3.618.204-.628.89-2.117 2.85-2.403l22.561-3.278c6.047-.878 11.271-4.673 13.974-10.152l10.09-20.444c.876-1.776 2.505-1.967 3.165-1.967.659 0 2.289.191 3.165 1.967l10.09 20.444c2.703 5.479 7.928 9.275 13.974 10.153l22.561 3.278c1.96.285 2.646 1.775 2.85 2.403.204.627.525 2.236-.893 3.618z"/></g></g></svg>