<svg id="Capa_1" enable-background="new 0 0 512 512" height="512" viewBox="0 0 512 512" width="512" xmlns="http://www.w3.org/2000/svg"><g><g><path d="m371.277 465.921h-230.554c-11.046 0-20 8.954-20 20v18.079h270.555v-18.079c-.001-11.046-8.955-20-20.001-20z" fill="#5a5a5a"/><path d="m120.723 486h270.555v18h-270.555z" fill="#4c4c4c"/><path d="m368.75 465.921h-225.499v-83.533c0-16.569 13.431-30 30-30h165.499c16.569 0 30 13.431 30 30z" fill="#ffcb5b"/><path d="m143.251 447.921h225.499v18h-225.499z" fill="#f7b737"/><path d="m188.038 320.03h135.924v32.358h-135.924z" fill="#5a5a5a"/><path d="m188.038 336.209h135.924v16.179h-135.924z" fill="#4c4c4c"/><path d="m253.936 320.03c-16.394 0-29.683-13.29-29.683-29.683v-183.748l-5.098 8.606c-8.355 14.105-26.562 18.767-40.668 10.41-14.105-8.355-18.765-26.563-10.41-40.668l36.961-62.392c5.345-9.022 15.053-14.555 25.539-14.555h23.359c16.393 0 29.683 13.29 29.683 29.683v252.663c0 16.394-13.29 29.684-29.683 29.684z" fill="#ffcb5b"/><g fill="#f7b737"><path d="m219.495 96.63c-8.126 13.718-25.642 19.159-39.733 11.7-7.216-3.82-12.163-10.128-14.428-17.257-4.114 12.884 1.022 27.356 13.153 34.543 14.105 8.357 32.313 3.695 40.668-10.41l5.098-8.606v-8.666c-.001-2.602-3.432-3.542-4.758-1.304z"/><path d="m253.936 302.03c-16.394 0-29.683-13.29-29.683-29.684v18c0 16.394 13.29 29.684 29.683 29.684s29.683-13.29 29.683-29.684v-18c0 16.394-13.29 29.684-29.683 29.684z"/></g></g><g><path d="m376.485 459.277v-76.642c0-20.718-16.855-37.573-37.573-37.573h-7.301v-24.907c0-4.15-3.365-7.515-7.515-7.515h-40.283c4.631-6.209 7.376-13.903 7.376-22.227v-186.254c0-4.15-3.365-7.515-7.515-7.515s-7.515 3.365-7.515 7.515v186.255c0 12.256-9.971 22.227-22.227 22.227s-22.226-9.971-22.226-22.227v-39.829c0-4.15-3.365-7.515-7.515-7.515s-7.515 3.364-7.515 7.515v39.829c0 8.324 2.745 16.017 7.375 22.227h-36.146c-4.15 0-7.515 3.365-7.515 7.515v24.907h-7.301c-20.718 0-37.573 16.855-37.573 37.573v76.642c-12.822 2.352-22.572 13.602-22.572 27.094v18.115c0 4.15 3.364 7.515 7.515 7.515h271.084c4.15 0 7.515-3.365 7.515-7.515v-18.115c-.001-13.493-9.751-24.743-22.573-27.095zm-181.066-131.607h121.161v17.392h-121.161zm188.608 169.301h-256.054v-10.6c0-6.906 5.618-12.524 12.524-12.524h73.432c4.15 0 7.515-3.365 7.515-7.515s-3.365-7.515-7.515-7.515h-63.385v-76.182c0-12.431 10.113-22.544 22.544-22.544h165.823c12.431 0 22.544 10.113 22.544 22.544v76.182h-117.467c-4.15 0-7.515 3.365-7.515 7.515s3.365 7.515 7.515 7.515h127.515c6.906 0 12.525 5.618 12.525 12.524v10.6z"/><path d="m174.505 131.825c8.562 5.072 18.589 6.506 28.228 4.039 5.166-1.322 9.89-3.68 13.943-6.902v91.564c0 4.15 3.365 7.515 7.515 7.515s7.515-3.365 7.515-7.515v-114.22c0-3.386-2.264-6.353-5.529-7.248-3.263-.892-6.725.505-8.451 3.417l-5.109 8.623c-3.025 5.108-7.859 8.732-13.61 10.205-5.752 1.472-11.732.617-16.841-2.41-5.108-3.026-8.732-7.86-10.204-13.612-1.473-5.752-.617-11.732 2.409-16.84l37.034-62.515c3.982-6.722 11.31-10.898 19.123-10.898h23.405c12.256 0 22.227 9.971 22.227 22.227v36.845c0 4.15 3.365 7.515 7.515 7.515s7.515-3.365 7.515-7.515v-36.844c-.002-20.543-16.715-37.256-37.258-37.256h-23.405c-13.096 0-25.378 6.999-32.054 18.267l-37.034 62.515c-5.072 8.562-6.506 18.587-4.039 28.228 2.468 9.64 8.543 17.743 17.105 22.815z"/></g></g></svg>