<svg id="Capa_1" enable-background="new 0 0 512 512" height="512" viewBox="0 0 512 512" width="512" xmlns="http://www.w3.org/2000/svg"><g><g><path d="m443.742 46.73h-375.484c-10.695 0-19.365-8.67-19.365-19.365 0-10.695 8.67-19.365 19.365-19.365h375.484c10.695 0 19.365 8.67 19.365 19.365 0 10.695-8.67 19.365-19.365 19.365z" fill="#5a5a5a"/><path d="m443.742 28.73h-375.484c-7.444 0-13.897-4.205-17.139-10.365-1.416 2.69-2.226 5.749-2.226 9 0 10.695 8.67 19.365 19.365 19.365h375.484c10.695 0 19.365-8.67 19.365-19.365 0-3.251-.81-6.31-2.226-9-3.241 6.16-9.695 10.365-17.139 10.365z" fill="#4c4c4c"/><path d="m412.939 503.189-156.942-66.585-156.936 66.585c-6.643 2.818-14.008-2.057-14.008-9.273v-447.186h341.893v447.186c.001 7.216-7.364 12.092-14.007 9.273z" fill="#ffe27a"/><path d="m85.053 46.73h341.893v18h-341.893z" fill="#f9cf58"/><path d="m386.305 451.476-131.324-55.716-131.32 55.716 1.017-404.746h262.644z" fill="#ff4755"/><path d="m124.678 64.73h262.599l.045-18h-262.644z" fill="#fc2b3a"/><path d="m266.82 170.138 11.023 22.335c1.758 3.561 5.155 6.03 9.085 6.601l24.649 3.582c9.897 1.438 13.849 13.6 6.687 20.581l-17.836 17.386c-2.844 2.772-4.142 6.766-3.47 10.68l4.21 24.549c1.691 9.857-8.655 17.374-17.507 12.72l-22.046-11.59c-3.515-1.848-7.715-1.848-11.23 0l-22.046 11.59c-8.852 4.654-19.198-2.863-17.507-12.72l4.21-24.549c.671-3.914-.626-7.908-3.47-10.68l-17.836-17.386c-7.161-6.981-3.21-19.143 6.687-20.581l24.649-3.582c3.93-.571 7.327-3.039 9.085-6.601l11.023-22.335c4.426-8.968 17.214-8.968 21.64 0z" fill="#ffe27a"/><g><path d="m253.673 257.252-42.878 22.543c1.199 7.764 9.922 12.784 17.544 8.777l22.046-11.59c3.515-1.848 7.715-1.848 11.23 0l22.046 11.59c7.622 4.007 16.345-1.012 17.544-8.777l-42.879-22.543c-1.456-.765-3.196-.765-4.653 0z" fill="#f9cf58"/></g></g><g><path d="m123.66 368.547c-.008 0-.016 0-.024 0-4.139 0-7.502 3.349-7.514 7.491l-.235 75.801c-.002 4.821 5.099 9.163 10.45 6.941l128.642-54.58 128.648 54.581c4.191 1.938 10.543-1.317 10.45-6.898l.648-239.933c.011-4.15-3.345-7.524-7.494-7.535-.008 0-.014 0-.021 0-4.141 0-7.504 3.351-7.515 7.495l-.617 228.615-121.164-51.405c-1.876-.796-3.994-.796-5.87 0l-121.093 51.377.2-64.411c.013-4.151-3.341-7.526-7.491-7.539z"/><path d="m444.112 0h-376.224c-14.842 0-26.918 12.075-26.918 26.918s12.076 26.918 26.918 26.918h9.314v51.008c0 4.15 3.365 7.515 7.515 7.515s7.515-3.365 7.515-7.515v-51.008h24.655l-.69 292.15c-.01 4.15 3.347 7.523 7.497 7.532h.018c4.142 0 7.505-3.353 7.514-7.497l.69-292.185h248.133l-.279 128.019c-.009 4.15 3.348 7.522 7.498 7.531h.017c4.143 0 7.506-3.354 7.515-7.499l.279-128.052h24.689v440.551c0 1.205-.723 1.864-1.155 2.15s-1.323.694-2.431.224l-157.251-66.716c-1.875-.796-3.994-.796-5.87 0l-157.244 66.716c-1.111.472-1.999.062-2.43-.224-.432-.286-1.155-.945-1.155-2.15v-359.483c0-4.15-3.364-7.515-7.515-7.515-4.15 0-7.515 3.365-7.515 7.515v359.484c0 5.924 2.949 11.413 7.889 14.683 2.932 1.941 6.31 2.931 9.712 2.931 2.328 0 4.669-.464 6.884-1.404l154.309-65.471 154.316 65.471c5.451 2.313 11.655 1.743 16.597-1.527 4.938-3.27 7.888-8.758 7.888-14.682v-440.552h9.314c14.843 0 26.918-12.075 26.918-26.918s-12.075-26.918-26.917-26.918zm0 38.806h-376.224c-6.555 0-11.888-5.333-11.888-11.888s5.333-11.889 11.889-11.889h376.223c6.556 0 11.889 5.333 11.889 11.889-.001 6.555-5.334 11.888-11.889 11.888z"/><path d="m323.631 228.557c5.384-5.247 7.285-12.947 4.962-20.097s-8.387-12.262-15.826-13.343l-24.696-3.589c-1.491-.217-2.779-1.152-3.445-2.503l-11.045-22.379v.001c-3.327-6.741-10.063-10.929-17.58-10.929-7.517 0-14.254 4.187-17.58 10.928l-11.044 22.379c-.667 1.351-1.955 2.287-3.445 2.503l-24.697 3.589c-7.439 1.081-13.503 6.193-15.826 13.342s-.422 14.85 4.961 20.097l17.871 17.42c1.078 1.051 1.571 2.565 1.316 4.049l-4.219 24.598c-1.271 7.409 1.718 14.756 7.799 19.174 6.082 4.418 13.992 4.99 20.646 1.492l22.09-11.614c1.333-.702 2.925-.701 4.258 0l22.089 11.613c2.894 1.522 6.026 2.273 9.141 2.273 4.048-.001 8.07-1.269 11.505-3.765 6.082-4.418 9.07-11.766 7.799-19.175l-4.218-24.596c-.255-1.485.237-2.999 1.315-4.05zm-28.362 6.657c-4.62 4.504-6.728 10.991-5.637 17.353l4.219 24.597c.433 2.53-1.129 3.972-1.821 4.475-.693.502-2.548 1.543-4.818.348l-22.089-11.613c-5.714-3.003-12.534-3.003-18.246 0l-22.09 11.613c-2.273 1.195-4.126.155-4.818-.348s-2.254-1.945-1.82-4.475l4.219-24.597c1.091-6.361-1.017-12.848-5.639-17.353l-17.87-17.42c-1.838-1.792-1.422-3.877-1.158-4.69.264-.814 1.153-2.745 3.693-3.114l24.698-3.589c6.386-.928 11.904-4.937 14.76-10.724l11.045-22.379c1.136-2.302 3.248-2.55 4.103-2.55s2.966.248 4.102 2.55v.001l11.045 22.378c2.855 5.787 8.373 9.797 14.761 10.725l24.697 3.589c2.54.369 3.429 2.301 3.693 3.114s.68 2.898-1.159 4.69z"/></g></g></svg>