<svg id="Capa_1" enable-background="new 0 0 512.001 512.001" height="512" viewBox="0 0 512.001 512.001" width="512" xmlns="http://www.w3.org/2000/svg"><g><g><path d="m283.201 17.178c23.396-17.781 57.282-8.701 68.653 18.396 7.814 18.619 27.082 29.743 47.113 27.201 29.152-3.7 53.958 21.106 50.258 50.258-2.543 20.031 8.582 39.3 27.201 47.113 27.097 11.372 36.176 45.257 18.396 68.654-12.217 16.076-12.217 38.326 0 54.402 17.781 23.397 8.701 57.282-18.396 68.654-18.619 7.814-29.743 27.082-27.201 47.113 3.7 29.152-21.105 53.958-50.258 50.258-20.031-2.543-39.3 8.582-47.113 27.201-11.372 27.097-45.257 36.176-68.653 18.396-16.076-12.217-38.326-12.217-54.402 0-23.396 17.781-57.282 8.701-68.654-18.396-7.814-18.619-27.082-29.743-47.113-27.201-29.152 3.7-53.958-21.105-50.258-50.258 2.543-20.031-8.582-39.3-27.201-47.113-27.097-11.372-36.176-45.257-18.396-68.654 12.217-16.076 12.217-38.326 0-54.402-17.781-23.396-8.701-57.282 18.396-68.654 18.619-7.814 29.743-27.082 27.201-47.113-3.7-29.152 21.105-53.958 50.258-50.258 20.031 2.542 39.3-8.582 47.113-27.201 11.372-27.097 45.257-36.176 68.654-18.396 16.076 12.218 38.326 12.218 54.402 0z" fill="#ffcb5b"/><g><path d="m449.226 398.968c-.186-1.469-.29-2.932-.332-4.388-4.059 22.773-25.457 39.752-49.925 36.646-20.031-2.543-39.3 8.582-47.113 27.201-11.372 27.097-45.257 36.176-68.653 18.396-16.076-12.217-38.326-12.217-54.402 0-23.396 17.781-57.282 8.701-68.654-18.396-7.814-18.618-27.082-29.743-47.113-27.201-24.468 3.106-45.866-13.873-49.925-36.646-.042 1.456-.146 2.919-.333 4.388-3.7 29.152 21.105 53.958 50.258 50.258 20.031-2.543 39.3 8.582 47.113 27.201 11.372 27.097 45.257 36.176 68.654 18.396 16.076-12.217 38.326-12.217 54.402 0 23.396 17.781 57.282 8.701 68.653-18.396 7.814-18.618 27.082-29.743 47.113-27.201 29.151 3.7 53.957-21.106 50.257-50.258z" fill="#f7b737"/></g><circle cx="256" cy="256" fill="#ff4755" r="194.455"/><path d="m256 432.455c-104.377 0-189.537-82.24-194.24-185.455-.136 2.984-.215 5.983-.215 9 0 107.395 87.061 194.455 194.455 194.455s194.455-87.06 194.455-194.455c0-3.017-.079-6.016-.215-9-4.703 103.216-89.863 185.455-194.24 185.455z" fill="#fc2b3a"/><circle cx="256" cy="256" fill="#c61926" r="156.074"/><path d="m256 394.074c-83.175 0-151.145-65.066-155.809-147.074-.169 2.979-.264 5.978-.264 9 0 86.197 69.876 156.074 156.074 156.074s156.073-69.876 156.073-156.074c0-3.022-.095-6.021-.264-9-4.664 82.008-72.634 147.074-155.81 147.074z" fill="#ad1729"/><path d="m270.157 180.511 14.422 29.222c2.299 4.659 6.745 7.889 11.886 8.636l32.249 4.686c12.948 1.882 18.119 17.794 8.749 26.927l-23.335 22.746c-3.721 3.627-5.419 8.852-4.54 13.973l5.509 32.118c2.212 12.896-11.324 22.731-22.906 16.642l-28.844-15.164c-4.599-2.418-10.093-2.418-14.692 0l-28.844 15.164c-11.581 6.089-25.118-3.746-22.906-16.642l5.509-32.118c.878-5.121-.82-10.346-4.54-13.973l-23.335-22.746c-9.37-9.133-4.199-25.046 8.749-26.927l32.249-4.686c5.142-.747 9.587-3.977 11.886-8.636l14.422-29.222c5.79-11.733 22.521-11.733 28.312 0z" fill="#ffe27a"/><g><path d="m253.674 299.659-55.275 29.06c3.781 7.28 13.099 11.113 21.412 6.743l28.844-15.164c4.599-2.418 10.093-2.418 14.692 0l28.844 15.164c8.313 4.37 17.631.537 21.412-6.743l-55.275-29.06c-1.458-.765-3.198-.765-4.654 0z" fill="#f9cf58"/></g></g><g><path d="m147.606 85.113c-58.826 37.389-93.946 101.272-93.946 170.887 0 111.571 90.77 202.341 202.341 202.341s202.34-90.77 202.34-202.341-90.77-202.341-202.341-202.341c-28.072 0-55.25 5.642-80.779 16.77-3.804 1.659-5.544 6.087-3.885 9.891 1.658 3.804 6.086 5.546 9.891 3.886 23.623-10.297 48.78-15.518 74.773-15.518 103.284 0 187.312 84.028 187.312 187.312s-84.028 187.312-187.312 187.312-187.312-84.027-187.312-187.312c0-64.446 32.516-123.588 86.98-158.204 3.502-2.226 4.537-6.87 2.311-10.372s-6.868-4.538-10.373-2.311z"/><path d="m360.25 382.46c37.9-31.277 59.637-77.37 59.637-126.46 0-90.367-73.519-163.886-163.887-163.886s-163.886 73.519-163.886 163.886 73.519 163.886 163.887 163.886c27.295 0 54.32-6.848 78.155-19.801 3.647-1.982 4.996-6.545 3.014-10.191-1.983-3.647-6.545-4.995-10.19-3.014-21.64 11.761-46.184 17.978-70.979 17.978-82.08 0-148.858-66.777-148.858-148.857s66.778-148.857 148.858-148.857 148.857 66.776 148.857 148.856c0 44.588-19.746 86.456-54.173 114.868-3.202 2.642-3.655 7.378-1.013 10.579 2.641 3.201 7.377 3.654 10.578 1.013z"/><path d="m342.864 255.352c6.406-6.245 8.668-15.409 5.903-23.918-2.764-8.508-9.981-14.592-18.834-15.878l-32.31-4.695c-2.705-.393-5.043-2.091-6.252-4.542l-14.449-29.278c-3.96-8.022-11.976-13.006-20.922-13.006s-16.962 4.984-20.922 13.006l-14.449 29.277c-1.209 2.451-3.547 4.15-6.251 4.543l-32.311 4.695c-8.853 1.286-16.07 7.37-18.834 15.878-2.765 8.508-.503 17.673 5.903 23.918l23.38 22.79c1.958 1.908 2.85 4.655 2.389 7.348l-5.519 32.18c-1.513 8.817 2.044 17.562 9.281 22.82 4.09 2.971 8.874 4.481 13.691 4.481 3.708 0 7.435-.894 10.879-2.705l28.899-15.194c2.419-1.272 5.309-1.272 7.728 0l28.899 15.193c7.918 4.164 17.334 3.483 24.57-1.775 7.237-5.258 10.794-14.002 9.281-22.82l-5.518-32.179c-.462-2.694.431-5.442 2.388-7.349zm-33.87 12.028c-5.5 5.361-8.009 13.081-6.71 20.651l5.519 32.18c.546 3.185-.689 6.221-3.303 8.12-2.615 1.9-5.883 2.136-8.743.632l-28.899-15.194c-3.4-1.787-7.129-2.68-10.858-2.68s-7.459.894-10.858 2.68l-28.899 15.194c-2.857 1.503-6.128 1.267-8.743-.632-2.614-1.9-3.849-4.935-3.303-8.12l5.52-32.181c1.297-7.569-1.211-15.289-6.711-20.65l-23.38-22.789c-2.314-2.256-3.1-5.438-2.101-8.511s3.504-5.186 6.701-5.65l32.312-4.695c7.6-1.105 14.167-5.876 17.567-12.763l14.449-29.278c1.43-2.898 4.213-4.629 7.445-4.629s6.014 1.73 7.445 4.629l14.449 29.278c3.4 6.887 9.966 11.658 17.568 12.763l32.311 4.695c3.197.465 5.702 2.577 6.701 5.65.999 3.074.213 6.256-2.101 8.511z"/><path d="m501.262 233.295c9.908-13.037 13.159-29.586 8.92-45.402-4.238-15.817-15.328-28.522-30.426-34.858-15.484-6.498-24.822-22.67-22.706-39.328 2.061-16.244-3.396-32.201-14.975-43.78-11.579-11.578-27.539-17.035-43.78-14.975-16.664 2.113-32.83-7.222-39.328-22.706-6.337-15.099-19.043-26.189-34.859-30.428-15.819-4.238-32.365-.986-45.401 8.922-13.368 10.16-32.043 10.161-45.413 0-13.036-9.908-29.584-13.16-45.401-8.922-15.816 4.238-28.522 15.328-34.859 30.428-6.497 15.484-22.666 24.821-39.328 22.706-16.24-2.06-32.201 3.396-43.78 14.975s-17.036 27.535-14.975 43.78c2.115 16.658-7.223 32.831-22.706 39.328-15.098 6.336-26.189 19.041-30.426 34.858-4.239 15.817-.987 32.365 8.921 45.402 10.16 13.369 10.16 32.043-.001 45.412-9.908 13.037-13.159 29.586-8.92 45.402 4.238 15.817 15.328 28.522 30.427 34.858 3.61 1.515 6.941 3.568 9.899 6.105 3.152 2.702 7.895 2.337 10.596-.814 2.7-3.151 2.336-7.895-.814-10.595-4.148-3.556-8.813-6.434-13.866-8.553-10.781-4.525-18.7-13.597-21.726-24.89-3.026-11.294-.705-23.111 6.369-32.419 14.23-18.723 14.23-44.876.001-63.599-7.075-9.309-9.397-21.125-6.371-32.419s10.945-20.365 21.726-24.89c21.685-9.1 34.762-31.749 31.8-55.078-1.473-11.599 2.424-22.993 10.692-31.261s19.661-12.165 31.261-10.692c23.337 2.961 45.978-10.117 55.079-31.799 4.524-10.782 13.597-18.701 24.89-21.726 11.292-3.027 23.109-.705 32.418 6.37 18.723 14.229 44.877 14.229 63.6 0 9.309-7.074 21.125-9.397 32.418-6.37 11.293 3.026 20.366 10.945 24.89 21.726 9.099 21.684 31.739 34.757 55.079 31.799 11.605-1.472 22.994 2.425 31.261 10.692 8.268 8.268 12.165 19.662 10.692 31.261-2.962 23.329 10.115 45.978 31.8 55.078 10.781 4.525 18.7 13.597 21.726 24.89 3.026 11.294.704 23.111-6.37 32.419-14.23 18.723-14.23 44.876-.001 63.599 7.075 9.309 9.397 21.125 6.37 32.419-3.026 11.293-10.945 20.365-21.726 24.89-21.685 9.1-34.762 31.749-31.8 55.078 1.473 11.599-2.424 22.993-10.692 31.261-8.269 8.268-19.663 12.165-31.261 10.692-23.333-2.96-45.978 10.116-55.079 31.799-4.524 10.782-13.597 18.701-24.89 21.726s-23.111.705-32.418-6.37c-18.723-14.229-44.877-14.229-63.6 0-9.309 7.074-21.124 9.398-32.418 6.37-11.293-3.026-20.366-10.945-24.89-21.726-9.1-21.684-31.747-34.764-55.079-31.799-11.603 1.474-22.993-2.425-31.261-10.692-8.268-8.268-12.165-19.662-10.692-31.261.73-5.753.51-11.541-.656-17.202-.836-4.065-4.81-6.681-8.874-5.846-4.064.836-6.682 4.81-5.845 8.875.831 4.039.987 8.171.466 12.281-2.062 16.244 3.396 32.201 14.975 43.78s27.537 17.036 43.78 14.975c16.657-2.113 32.83 7.222 39.328 22.706 6.337 15.099 19.043 26.19 34.859 30.428 15.816 4.236 32.364.985 45.401-8.922 13.368-10.159 32.043-10.16 45.413 0 9.289 7.059 20.359 10.74 31.678 10.739 4.566 0 9.176-.599 13.722-1.817 15.816-4.238 28.522-15.329 34.859-30.428 6.498-15.484 22.67-24.821 39.328-22.706 16.241 2.06 32.201-3.396 43.78-14.975s17.036-27.535 14.975-43.78c-2.115-16.658 7.223-32.831 22.706-39.328 15.098-6.336 26.189-19.041 30.426-34.858 4.238-15.817.987-32.365-8.921-45.402-10.158-13.37-10.158-32.045.003-45.413z"/></g></g></svg>