<svg id="Capa_1" enable-background="new 0 0 512 512" height="512" viewBox="0 0 512 512" width="512" xmlns="http://www.w3.org/2000/svg"><g><g><path d="m406.267 8v105.77l-92.735 71.513h-115.064l-92.735-71.513v-105.77z" fill="#c61926"/><path d="m198.468 167.283-92.735-71.513v18l92.735 71.513h115.064l92.735-71.513v-18l-92.735 71.513z" fill="#ad1729"/><path d="m309.793 225.907h-107.586c-15.124 0-27.385-12.26-27.385-27.385v-13.24h162.355v13.24c0 15.125-12.26 27.385-27.384 27.385z" fill="#ffe27a"/><path d="m309.793 207.907h-107.586c-13.499 0-24.709-9.771-26.964-22.624h-.421v13.24c0 15.124 12.261 27.385 27.385 27.385h107.585c15.124 0 27.385-12.26 27.385-27.385v-13.24h-.421c-2.254 12.854-13.464 22.624-26.963 22.624z" fill="#f9cf58"/><path d="m395.046 364.954c0-15.885-10.527-29.308-24.984-33.684-2.391-8.111-5.618-15.863-9.591-23.151 7.129-13.317 5.083-30.253-6.15-41.486s-28.169-13.28-41.486-6.151c-7.288-3.973-15.04-7.2-23.151-9.591-4.376-14.457-17.798-24.984-33.684-24.984s-29.307 10.527-33.684 24.984c-8.111 2.391-15.863 5.618-23.151 9.591-13.317-7.129-30.253-5.083-41.486 6.151-11.233 11.233-13.28 28.169-6.151 41.486-3.973 7.288-7.2 15.04-9.591 23.151-14.457 4.376-24.984 17.798-24.984 33.684 0 15.885 10.527 29.307 24.984 33.684 2.391 8.111 5.618 15.863 9.591 23.151-7.129 13.317-5.083 30.253 6.151 41.486 11.233 11.233 28.169 13.28 41.486 6.151 7.288 3.973 15.04 7.2 23.151 9.591 4.377 14.456 17.799 24.983 33.684 24.983s29.307-10.527 33.684-24.984c8.111-2.391 15.863-5.618 23.151-9.591 13.317 7.129 30.253 5.083 41.486-6.151 11.233-11.233 13.28-28.169 6.15-41.486 3.973-7.288 7.2-15.04 9.591-23.151 14.457-4.376 24.984-17.798 24.984-33.683z" fill="#ffcb5b"/><g><path d="m354.321 445.274c-10.639 10.638-26.392 13.037-39.342 7.206-1.407-.634-3.017-.573-4.387.136-5.889 3.048-12.066 5.614-18.478 7.655-1.484.472-2.661 1.588-3.214 3.043-5.044 13.261-17.869 22.686-32.9 22.686s-27.856-9.425-32.9-22.686c-.553-1.455-1.731-2.571-3.214-3.043-6.412-2.041-12.589-4.607-18.478-7.655-1.37-.709-2.98-.77-4.387-.136-12.95 5.832-28.703 3.433-39.342-7.206-4.569-4.569-7.591-10.086-9.121-15.914-3.102 11.72-.069 24.724 9.121 33.914 11.233 11.233 28.169 13.28 41.486 6.151 7.288 3.973 15.04 7.2 23.151 9.591 4.377 14.457 17.799 24.984 33.684 24.984s29.307-10.527 33.684-24.984c8.111-2.391 15.863-5.618 23.151-9.591 13.317 7.129 30.253 5.082 41.486-6.151 9.19-9.19 12.223-22.195 9.121-33.914-1.53 5.828-4.553 11.346-9.121 15.914z" fill="#f7b737"/></g><circle cx="256" cy="364.954" fill="#ff9838" r="86.247"/><path d="m256 433.201c-44.594 0-81.278-33.845-85.779-77.248-.307 2.959-.469 5.96-.469 9 0 47.633 38.614 86.248 86.248 86.248 47.633 0 86.248-38.614 86.248-86.248 0-3.04-.162-6.041-.468-9-4.502 43.404-41.186 77.248-85.78 77.248z" fill="#ff8709"/><path d="m313.532 185.283c17.82-13.742 20.206-15.582 37.711-29.081v-148.202h-37.711z" fill="#ff4755"/><path d="m160.758 156.202 37.71 29.081v-177.283h-37.71z" fill="#ff4755"/><g fill="#fc2b3a"><path d="m313.532 167.283v18c17.82-13.742 20.206-15.582 37.711-29.081v-18z"/><path d="m160.758 156.202 37.71 29.081v-18l-37.71-29.081z"/></g></g><g><path d="m406.562 53.65c4.151 0 7.515-3.365 7.515-7.515v-38.62c0-4.15-3.364-7.515-7.515-7.515h-301.124c-4.151 0-7.515 3.365-7.515 7.515v105.977c0 2.33 1.081 4.528 2.926 5.951l75.456 58.187h-16.245c-4.151 0-7.515 3.365-7.515 7.515s3.364 7.515 7.515 7.515h7.089v5.751c0 19.273 15.68 34.953 34.953 34.953h21.281c-2.855 3.373-5.216 7.221-6.949 11.46-6.026 1.98-11.906 4.416-17.553 7.271-15.936-6.692-34.26-3.202-46.708 9.246s-15.938 30.771-9.246 46.709c-2.856 5.649-5.292 11.527-7.271 17.551-16.002 6.538-26.49 21.962-26.49 39.566s10.488 33.028 26.49 39.566c1.979 6.025 4.415 11.903 7.271 17.551-6.693 15.939-3.203 34.261 9.247 46.709 12.447 12.448 30.772 15.938 46.707 9.246 5.649 2.856 11.526 5.291 17.553 7.271 6.539 16.002 21.962 26.49 39.566 26.49s33.027-10.488 39.566-26.49c6.026-1.98 11.904-4.415 17.553-7.271 15.936 6.692 34.26 3.202 46.708-9.246s15.938-30.77 9.246-46.709c2.856-5.648 5.292-11.526 7.271-17.551 16.002-6.538 26.49-21.962 26.49-39.566s-10.488-33.028-26.49-39.566c-1.979-6.025-4.415-11.903-7.271-17.551 6.693-15.939 3.203-34.261-9.247-46.709-12.447-12.447-30.77-15.937-46.707-9.246-5.647-2.855-11.526-5.291-17.553-7.271-1.732-4.24-4.094-8.087-6.949-11.46h21.281c19.273 0 34.953-15.68 34.953-34.953v-5.751h7.089c4.151 0 7.515-3.365 7.515-7.515s-3.364-7.515-7.515-7.515h-16.245l75.456-58.187c1.845-1.423 2.926-3.621 2.926-5.951v-37.298c0-4.15-3.364-7.515-7.515-7.515s-7.515 3.364-7.515 7.515v33.603l-40.103 30.925v-125.693h40.103v31.106c0 4.15 3.364 7.515 7.515 7.515zm-200.691 123.98v-48.505c0-4.15-3.364-7.515-7.515-7.515s-7.515 3.365-7.515 7.515v40.736l-22.755-17.548v-137.284h22.755v84.036c0 4.15 3.364 7.515 7.515 7.515s7.515-3.364 7.515-7.515v-84.036h100.259v162.6h-100.259zm-92.918-162.601h40.104v125.693l-40.104-30.926zm169.604 238.029c.734 2.423 2.639 4.315 5.068 5.031 7.54 2.224 14.85 5.252 21.725 9 2.223 1.213 4.909 1.223 7.144.027 10.681-5.719 24.13-3.723 32.705 4.851 8.575 8.575 10.57 22.025 4.852 32.708-1.196 2.233-1.185 4.919.027 7.143 3.749 6.879 6.777 14.188 9 21.725.715 2.429 2.607 4.334 5.03 5.067 11.597 3.51 19.696 14.431 19.696 26.557s-8.099 23.047-19.696 26.557c-2.424.733-4.314 2.638-5.03 5.067-2.223 7.538-5.251 14.847-9 21.725-1.212 2.224-1.223 4.909-.027 7.143 5.718 10.682 3.723 24.132-4.851 32.707-8.576 8.576-22.025 10.57-32.706 4.851-2.233-1.195-4.919-1.185-7.144.027-6.877 3.75-14.186 6.777-21.725 9-2.429.716-4.334 2.607-5.068 5.031-3.51 11.596-14.431 19.695-26.557 19.695s-23.047-8.099-26.557-19.695c-.734-2.424-2.639-4.314-5.068-5.031-7.539-2.223-14.848-5.25-21.725-9-1.12-.611-2.358-.917-3.597-.917-1.219 0-2.438.297-3.547.889-10.681 5.719-24.13 3.724-32.705-4.851s-10.571-22.025-4.852-32.707c1.196-2.233 1.185-4.919-.027-7.143-3.749-6.878-6.777-14.187-9-21.725-.716-2.429-2.607-4.334-5.03-5.067-11.597-3.51-19.696-14.431-19.696-26.557s8.099-23.047 19.696-26.557c2.424-.733 4.315-2.638 5.03-5.067 2.223-7.537 5.25-14.846 9-21.725 1.212-2.224 1.223-4.91.027-7.143-5.718-10.683-3.723-24.132 4.851-32.708 8.576-8.575 22.026-10.569 32.706-4.851 2.234 1.195 4.92 1.186 7.144-.027 6.875-3.748 14.185-6.776 21.725-9 2.429-.716 4.334-2.608 5.068-5.031 3.51-11.596 14.431-19.695 26.557-19.695 12.126.001 23.047 8.1 26.557 19.696zm47.265-54.648c0 10.986-8.937 19.924-19.924 19.924h-107.796c-10.986 0-19.924-8.938-19.924-19.924v-5.751h147.644zm14.093-46.098-22.755 17.548v-154.831h22.755z"/><path d="m162.07 365.167c0 51.794 42.137 93.931 93.93 93.931 18.344 0 36.119-5.291 51.403-15.302 3.472-2.274 4.443-6.932 2.169-10.404-2.275-3.473-6.934-4.443-10.404-2.169-12.83 8.403-27.757 12.845-43.168 12.845-43.506 0-78.901-35.395-78.901-78.902 0-43.506 35.395-78.902 78.901-78.902s78.901 35.395 78.901 78.902c0 17.196-5.433 33.537-15.709 47.255-2.488 3.322-1.812 8.031 1.509 10.52 3.32 2.488 8.031 1.813 10.521-1.509 12.24-16.339 18.709-35.795 18.709-56.266 0-51.794-42.137-93.931-93.931-93.931s-93.93 42.138-93.93 93.932z"/></g></g></svg>