<svg id="Capa_1" enable-background="new 0 0 512 512" height="512" viewBox="0 0 512 512" width="512" xmlns="http://www.w3.org/2000/svg"><g><g><path d="m256 365.128c52.922-17.704 87.086-46.001 108.422-71.82 21.7-26.26 33.405-59.272 33.354-93.256l-.175-131.391-141.601-60.661-141.602 60.661-.175 131.391c-.051 33.983 11.654 66.996 33.354 93.256 21.337 25.819 55.501 54.115 108.423 71.82z" fill="#e0e0e0"/><path d="m364.422 275.308c-21.118 25.554-54.802 53.536-106.802 71.272-1.047.357-2.195.357-3.241 0-52-17.736-85.684-45.718-106.802-71.272-21.22-25.679-32.875-57.816-33.333-91.003l-.021 15.747c-.051 33.983 11.654 66.996 33.354 93.256 21.336 25.819 55.5 54.115 108.422 71.82 52.922-17.704 87.086-46.001 108.422-71.82 21.7-26.26 33.405-59.272 33.354-93.256l-.021-15.747c-.456 33.187-12.111 65.324-33.332 91.003z" fill="#cecece"/><path d="m356.046 302.824c-21.559 23.035-53.566 46.755-100.046 62.304l48.336 138.872 45.41-44.406 63.168 6.614z" fill="#0083fd"/><path d="m362.444 321.205-6.398-18.381c-21.559 23.035-53.566 46.755-100.046 62.304l6.307 18.121c44.993-16.1 77.314-39.11 100.137-62.044z" fill="#0072fc"/><path d="m256 365.128c-46.48-15.549-78.487-39.268-100.046-62.304l-56.868 163.384 63.168-6.614 45.41 44.406z" fill="#0083fd"/><path d="m249.693 383.248 6.307-18.12c-46.48-15.549-78.487-39.268-100.046-62.304l-6.398 18.381c22.823 22.934 55.144 45.944 100.137 62.043z" fill="#0072fc"/><path d="m256 326.025c40.935-13.694 67.36-35.581 83.863-55.552 16.785-20.312 25.838-45.847 25.799-72.132l-.135-106.347-109.527-46.92-109.527 46.92-.135 106.347c-.04 26.286 9.014 51.821 25.799 72.132 16.503 19.971 42.928 41.858 83.863 55.552z" fill="#9e9e9e"/><path d="m339.863 252.473c-16.283 19.704-42.225 41.274-82.231 54.999-1.053.361-2.212.361-3.265 0-40.006-13.725-65.948-35.295-82.231-54.999-16.556-20.035-25.572-45.154-25.777-71.061l-.022 16.929c-.04 26.286 9.014 51.821 25.799 72.132 16.503 19.971 42.929 41.858 83.863 55.552 40.935-13.694 67.36-35.581 83.863-55.552 16.785-20.312 25.838-45.846 25.799-72.132l-.022-16.928c-.203 25.907-9.219 51.025-25.776 71.06z" fill="#898989"/><path d="m266.825 128.774 11.028 22.345c1.758 3.563 5.157 6.032 9.089 6.603l24.659 3.583c9.901 1.439 13.854 13.606 6.69 20.59l-17.843 17.393c-2.845 2.773-4.143 6.769-3.472 10.685l4.212 24.559c1.691 9.861-8.659 17.381-17.515 12.725l-22.055-11.595c-3.517-1.849-7.718-1.849-11.235 0l-22.055 11.595c-8.856 4.656-19.206-2.864-17.515-12.725l4.212-24.559c.672-3.916-.627-7.911-3.472-10.685l-17.843-17.393c-7.164-6.984-3.211-19.151 6.69-20.59l24.659-3.583c3.932-.571 7.331-3.041 9.089-6.603l11.028-22.345c4.427-8.972 17.221-8.972 21.649 0z" fill="#fff5f5"/><g><path d="m258.327 215.931c-1.457-.766-3.197-.766-4.653 0l-42.896 22.552c1.204 7.764 9.927 12.781 17.55 8.773l22.055-11.595c3.517-1.849 7.718-1.849 11.235 0l22.055 11.595c7.623 4.008 16.347-1.01 17.55-8.773z" fill="#efe2dd"/></g></g><g><path d="m153.772 203.836c-.21-4.146-3.748-7.343-7.887-7.124-4.145.211-7.335 3.742-7.124 7.887 1.312 25.796 11.049 50.912 27.418 70.721 21.791 26.368 51.212 45.884 87.446 58.006 1.027.234 2.212.714 4.769 0 36.234-12.122 65.655-31.638 87.446-58.006 17.824-21.569 27.617-48.943 27.575-77.079l-.135-106.567c-.004-3.003-1.795-5.716-4.556-6.898l-109.757-47.018c-1.89-.809-4.028-.809-5.919 0l-109.753 47.017c-2.761 1.183-4.552 3.895-4.556 6.898l-.105 82.479c-.005 4.151 3.355 7.52 7.506 7.525h.01c4.146 0 7.51-3.358 7.516-7.506l.099-77.53 102.244-43.801 102.244 43.801.129 101.619c.037 24.643-8.532 48.608-24.13 67.483-19.498 23.594-45.812 41.253-78.244 52.514-32.432-11.262-58.746-28.921-78.244-52.514-14.323-17.331-22.844-39.318-23.992-61.907z"/><path d="m323.674 187.151c5.385-5.249 7.286-12.952 4.962-20.104-2.324-7.151-8.39-12.266-15.832-13.347l-24.71-3.591c-1.492-.217-2.782-1.154-3.449-2.506l-11.051-22.391c-3.328-6.743-10.067-10.932-17.587-10.932s-14.258 4.189-17.587 10.932l-11.051 22.391c-.667 1.352-1.957 2.288-3.449 2.506l-24.709 3.591c-7.442 1.081-13.508 6.195-15.832 13.347s-.423 14.855 4.962 20.104l17.88 17.429c1.08 1.053 1.572 2.569 1.318 4.055l-4.221 24.61c-1.271 7.412 1.718 14.761 7.802 19.182 6.083 4.42 13.997 4.992 20.654 1.493l22.102-11.62c1.334-.702 2.927-.702 4.262 0l22.101 11.619c6.101 3.264 14.486 3.067 20.654-1.493 6.083-4.42 9.073-11.77 7.802-19.182l-4.221-24.61c-.255-1.486.238-3.002 1.317-4.055zm-28.374 6.667c-4.622 4.506-6.731 10.995-5.639 17.359l4.221 24.61c.435 2.532-1.129 3.976-1.822 4.48-.693.503-2.55 1.545-4.824.348l-22.101-11.619c-5.259-2.753-12.299-3.143-18.253-.001l-22.101 11.619c-2.273 1.195-4.131.155-4.824-.348s-2.257-1.947-1.822-4.48l4.221-24.611c1.091-6.363-1.017-12.852-5.641-17.359l-17.88-17.429c-1.84-1.794-1.424-3.881-1.159-4.696.265-.814 1.154-2.747 3.698-3.117l24.71-3.591c6.389-.928 11.909-4.939 14.766-10.728l11.051-22.391c1.137-2.304 3.251-2.554 4.108-2.554.856 0 2.97.249 4.108 2.554l11.051 22.391c2.857 5.79 8.377 9.801 14.766 10.729l24.71 3.591c2.543.37 3.433 2.303 3.698 3.117.265.815.681 2.902-1.159 4.696z"/><path d="m420.344 464.201-24.953-71.691c-1.364-3.92-5.646-5.993-9.568-4.627-3.92 1.364-5.992 5.648-4.627 9.568l21.062 60.513-51.527-5.395c-2.226-.227-4.438.537-6.037 2.102l-37.042 36.223-42.079-120.895c34.344-12.462 63.682-30.284 87.561-53.172l18.183 52.242c3.773 9.469 16.995 4.183 14.195-4.941l-20.677-59.406c1.912-2.137 3.784-4.309 5.612-6.521 22.718-27.491 35.2-62.383 35.145-98.246l-.061-45.852c-.005-4.148-3.369-7.506-7.515-7.506-.003 0-.007 0-.011 0-4.151.005-7.511 3.375-7.505 7.526l.061 45.854c.049 32.371-11.209 63.854-31.701 88.65-25.612 30.993-60.208 54.139-102.854 68.82-42.646-14.682-77.242-37.828-102.854-68.82-20.492-24.796-31.75-56.279-31.701-88.651l.169-126.713 134.385-57.57 134.386 57.57.068 50.799c.005 4.148 3.369 7.506 7.516 7.506h.01c4.151-.005 7.511-3.375 7.506-7.525l-.074-55.749c-.004-3.003-1.796-5.716-4.556-6.898l-141.894-60.789c-1.89-.809-4.029-.809-5.918 0l-141.895 60.786c-2.761 1.183-4.552 3.895-4.556 6.898l-.175 131.662c-.054 35.865 12.428 70.757 35.145 98.248 1.828 2.212 3.701 4.384 5.612 6.521l-55.508 159.479c-1.701 4.413 2.198 10.646 7.881 9.945l59.786-6.261 42.979 42.029c3.298 3.479 10.532 2.526 12.352-2.903l41.338-118.768 41.338 118.768c1.586 4.728 8.112 6.894 12.352 2.903l42.979-42.029 59.786 6.261c4.967.631 9.662-4.541 7.881-9.945zm-215.979 26.693-37.042-36.223c-1.6-1.564-3.811-2.328-6.037-2.102l-51.527 5.395 49.124-141.137c23.879 22.888 53.217 40.71 87.561 53.172z"/></g></g></svg>