<svg id="Capa_1" enable-background="new 0 0 512 512" height="512" viewBox="0 0 512 512" width="512" xmlns="http://www.w3.org/2000/svg"><g><g><path d="m406.267 8v105.77l-92.735 71.513h-115.064l-92.735-71.513v-105.77z" fill="#0083fd"/><path d="m198.468 167.283-92.735-71.513v18l92.735 71.513h115.064l92.735-71.513v-18l-92.735 71.513z" fill="#0072fc"/><path d="m309.793 225.907h-107.586c-15.124 0-27.385-12.26-27.385-27.385v-13.24h162.355v13.24c0 15.125-12.26 27.385-27.384 27.385z" fill="#ffe27a"/><path d="m309.793 207.907h-107.586c-13.499 0-24.709-9.771-26.964-22.624h-.421v13.24c0 15.124 12.261 27.385 27.385 27.385h107.585c15.124 0 27.385-12.26 27.385-27.385v-13.24h-.421c-2.254 12.854-13.464 22.624-26.963 22.624z" fill="#f9cf58"/><path d="m378.034 314.53c-10.638 0-19.584 7.229-22.203 17.042l-59.91-8.705-27.077-54.863c6.121-4.129 10.146-11.127 10.146-19.065 0-12.693-10.29-22.982-22.982-22.982s-22.982 10.29-22.982 22.982c0 7.938 4.025 14.936 10.145 19.065l-27.077 54.863-59.925 8.708c-2.618-9.814-11.565-17.044-22.203-17.044-12.693 0-22.982 10.29-22.982 22.982 0 12.693 10.289 22.982 22.982 22.982 5.091 0 9.793-1.658 13.602-4.46l43.859 42.751-10.165 59.268c-.263-.009-.526-.02-.791-.02-12.693 0-22.982 10.29-22.982 22.982 0 12.693 10.29 22.982 22.982 22.982 12.693 0 22.982-10.29 22.982-22.982 0-2.475-.396-4.857-1.12-7.091l53.676-28.219 53.676 28.219c-.724 2.234-1.12 4.616-1.12 7.091 0 12.693 10.29 22.982 22.982 22.982 12.693 0 22.982-10.29 22.982-22.982 0-12.693-10.289-22.982-22.982-22.982-.265 0-.528.011-.791.02l-10.165-59.268 43.852-42.745c3.807 2.798 8.506 4.453 13.593 4.453 12.693 0 22.982-10.29 22.982-22.982-.002-12.692-10.291-22.982-22.984-22.982z" fill="#ffcb5b"/><path d="m307.01 454.522-48.653-25.578c-1.469-.772-3.22-.769-4.683.016-6.9 3.699-28.017 15.025-48.714 26.172-1.619.872-2.628 2.563-2.628 4.402v14.395l53.676-28.219 53.676 28.219v-14.98c0-1.859-1.03-3.563-2.674-4.427z" fill="#f7b737"/><path d="m313.532 185.283c17.82-13.742 20.206-15.582 37.711-29.081v-148.202h-37.711z" fill="#8bcaff"/><path d="m160.758 156.202 37.71 29.081v-177.283h-37.71z" fill="#8bcaff"/><g fill="#60b8ff"><path d="m313.532 167.283v18c17.82-13.742 20.206-15.582 37.711-29.081v-18z"/><path d="m160.758 156.202 37.71 29.081v-18l-37.71-29.081z"/></g></g><path d="m406.561 53.65c4.15 0 7.515-3.365 7.515-7.515v-38.62c0-4.15-3.364-7.515-7.515-7.515h-301.122c-4.15 0-7.515 3.365-7.515 7.515v105.977c0 2.33 1.081 4.528 2.926 5.951l75.455 58.187h-16.246c-4.15 0-7.515 3.365-7.515 7.515s3.365 7.515 7.515 7.515h7.09v5.751c0 19.273 15.68 34.953 34.953 34.953h27.639c-2.712 4.561-4.276 9.881-4.276 15.561 0 7.904 3.044 15.386 8.363 21.001l-22.803 46.204-50.275 7.305c-5.195-9.852-15.527-16.304-27.023-16.304-16.841 0-30.542 13.701-30.542 30.542s13.701 30.542 30.542 30.542c4.348 0 8.562-.902 12.446-2.641l37.052 36.117-8.532 49.746c-14.162 2.649-24.914 15.104-24.914 30.022 0 16.841 13.701 30.542 30.542 30.542s30.542-13.701 30.542-30.542c0-1.029-.052-2.055-.155-3.074l9.422-4.953c3.674-1.931 5.086-6.474 3.155-10.148s-6.475-5.087-10.148-3.155l-14.408 7.574c-3.238 1.702-4.78 5.489-3.652 8.969.502 1.548.756 3.159.756 4.788 0 8.554-6.959 15.513-15.513 15.513s-15.513-6.959-15.513-15.513 6.959-15.513 15.513-15.513c.131 0 .26.006.389.011l.153.005c3.789.145 7.023-2.539 7.657-6.24l10.185-59.385c.418-2.437-.39-4.925-2.161-6.651l-43.945-42.835c-2.633-2.567-6.736-2.851-9.698-.672-2.674 1.967-5.847 3.007-9.175 3.007-8.554 0-15.513-6.959-15.513-15.513s6.959-15.513 15.513-15.513c7.017 0 13.18 4.729 14.986 11.5.983 3.684 4.566 6.052 8.342 5.5l60.042-8.725c2.448-.356 4.563-1.893 5.658-4.111l27.13-54.971c1.663-3.371.58-7.452-2.536-9.555-4.292-2.895-6.854-7.708-6.854-12.873 0-8.554 6.959-15.513 15.513-15.513s15.513 6.959 15.513 15.513c0 5.165-2.562 9.978-6.854 12.873-3.116 2.102-4.199 6.184-2.536 9.555l27.13 54.971c1.095 2.218 3.21 3.755 5.658 4.111l60.027 8.723c3.77.547 7.358-1.815 8.341-5.499 1.807-6.77 7.97-11.499 14.986-11.499 8.554 0 15.513 6.959 15.513 15.513s-6.959 15.513-15.513 15.513c-3.325 0-6.496-1.038-9.169-3.003-2.961-2.176-7.063-1.89-9.695.675l-43.938 42.828c-1.772 1.727-2.58 4.214-2.161 6.652l10.185 59.384c.635 3.701 3.889 6.376 7.658 6.24l.154-.005c.129-.005.258-.011.388-.011 8.554 0 15.513 6.959 15.513 15.513s-6.959 15.513-15.513 15.513-15.513-6.959-15.513-15.513c0-1.629.254-3.24.756-4.788 1.128-3.479-.413-7.266-3.651-8.969l-53.781-28.274c-2.19-1.151-4.804-1.151-6.994 0l-12.682 6.667c-3.673 1.931-5.086 6.475-3.154 10.149 1.931 3.674 6.474 5.086 10.148 3.155l9.184-4.829 45.298 23.815c-.103 1.019-.155 2.045-.155 3.074 0 16.841 13.701 30.542 30.542 30.542s30.542-13.701 30.542-30.542c0-14.919-10.752-27.373-24.913-30.022l-8.532-49.746 37.047-36.112c3.881 1.736 8.092 2.637 12.435 2.637 16.841 0 30.542-13.701 30.542-30.542s-13.701-30.542-30.542-30.542c-11.496 0-21.827 6.45-27.022 16.302l-50.26-7.303-22.803-46.204c5.319-5.614 8.363-13.096 8.363-21.001 0-5.68-1.564-11-4.276-15.561h27.624c19.273 0 34.953-15.68 34.953-34.953v-5.751h7.09c4.15 0 7.515-3.365 7.515-7.515s-3.365-7.515-7.515-7.515h-16.246l75.455-58.187c1.845-1.423 2.926-3.621 2.926-5.951v-37.3c0-4.15-3.364-7.515-7.515-7.515-4.15 0-7.515 3.364-7.515 7.515v33.603l-40.103 30.925v-125.693h40.103v31.106c.003 4.15 3.367 7.515 7.517 7.515zm-200.691 123.98v-48.505c0-4.15-3.365-7.515-7.515-7.515s-7.515 3.365-7.515 7.515v40.736l-22.755-17.548v-137.284h22.755v84.036c0 4.15 3.365 7.515 7.515 7.515s7.515-3.364 7.515-7.515v-84.036h100.26v162.6h-100.26zm-92.916-162.601h40.103v125.693l-40.103-30.925zm216.867 183.381c0 10.986-8.938 19.924-19.924 19.924h-107.795c-10.986 0-19.924-8.938-19.924-19.924v-5.751h147.643zm14.093-46.098-22.755 17.547v-154.83h22.755z"/></g></svg>