<svg id="Capa_1" enable-background="new 0 0 512 512" height="512" viewBox="0 0 512 512" width="512" xmlns="http://www.w3.org/2000/svg"><g><g><path d="m368.75 465.921h-225.499v-83.533c0-16.569 13.431-30 30-30h165.499c16.569 0 30 13.431 30 30z" fill="#e0e0e0"/><path d="m143.251 447.921h225.499v18h-225.499z" fill="#cecece"/><path d="m371.277 465.921h-230.554c-11.046 0-20 8.954-20 20v18.079h270.555v-18.079c-.001-11.046-8.955-20-20.001-20z" fill="#5a5a5a"/><path d="m120.723 486h270.555v18h-270.555z" fill="#4c4c4c"/><path d="m188.038 320.03h135.924v32.358h-135.924z" fill="#5a5a5a"/><path d="m188.038 336.209h135.924v16.179h-135.924z" fill="#4c4c4c"/><path d="m326.004 320.03h-136.69c-16.393 0-29.683-13.29-29.683-29.683 0-25.521 9.078-50.306 25.563-69.788l96.176-113.668c9.111-10.768 5.045-22.369 3.583-25.668-1.78-4.015-7.314-13.401-20.213-13.836-.374-.013-.758-.019-1.144-.019-18.044 0-32.725 14.681-32.725 32.726 0 16.394-13.29 29.683-29.683 29.683s-29.683-13.29-29.683-29.683c-.001-50.781 41.312-92.094 92.091-92.094 1.051 0 2.097.018 3.138.053 31.76 1.073 59.533 19.888 72.488 49.103 13.149 29.653 8.347 63.403-12.532 88.081l-96.177 113.668c-.487.576-.96 1.162-1.419 1.758h96.909c16.394 0 29.683 13.29 29.683 29.683s-13.287 29.684-29.682 29.684z" fill="#e0e0e0"/><g><path d="m326.004 302.03h-136.69c-14.244 0-26.14-10.036-29.016-23.421-.426 3.885-.668 7.801-.668 11.738 0 16.394 13.29 29.684 29.683 29.684h136.69c16.394 0 29.683-13.29 29.683-29.684 0-3.138-.49-6.161-1.393-9-3.81 11.992-15.033 20.683-28.289 20.683z" fill="#cecece"/></g></g><g><path d="m376.484 459.277v-76.642c0-20.718-16.855-37.573-37.574-37.573h-7.301v-17.797c17.96-2.653 31.788-18.165 31.788-36.851 0-20.543-16.712-37.256-37.255-37.256h-80.966l31.11-36.769c2.681-3.168 2.286-7.909-.882-10.59-3.17-2.682-7.911-2.285-10.591.883l-40.09 47.38c-5.134 4.113-3.567 14.07 4.32 14.125h97.099c12.255 0 22.226 9.971 22.226 22.227s-9.971 22.227-22.226 22.227h-136.958c-12.256 0-22.227-9.971-22.227-22.227 0-23.797 8.465-46.906 23.835-65.071l96.364-113.889c11.948-14.121 6.636-29.301 4.722-33.62-4.912-11.073-14.956-17.924-26.856-18.326-.462-.016-.935-.024-1.412-.024-22.223 0-40.303 18.081-40.303 40.305 0 12.256-9.971 22.227-22.227 22.227s-22.227-9.971-22.227-22.227c0-17.807 5.484-34.858 15.86-49.311 2.42-3.372 1.649-8.067-1.722-10.487s-8.066-1.65-10.487 1.723c-12.22 17.023-18.68 37.105-18.68 58.076 0 20.543 16.713 37.256 37.256 37.256s37.256-16.713 37.256-37.256c0-13.937 11.337-25.275 25.274-25.275.298 0 .594.005.893.015 8.362.282 12.133 6.011 13.636 9.397 1.304 2.944 3.676 10.572-2.457 17.82l-96.364 113.889c-17.663 20.875-27.391 47.432-27.391 74.779 0 17.514 12.151 32.235 28.463 36.198v18.45h-7.301c-20.718 0-37.574 16.855-37.574 37.573v76.642c-12.822 2.352-22.572 13.602-22.572 27.094v18.115c0 4.15 3.364 7.515 7.515 7.515h271.084c4.151 0 7.515-3.365 7.515-7.515v-18.115c0-13.493-9.751-24.743-22.573-27.095zm-181.064-131.607h121.16v17.392h-121.16zm188.607 169.301h-256.054v-10.6c0-6.906 5.618-12.524 12.524-12.524h73.432c4.151 0 7.515-3.365 7.515-7.515s-3.364-7.515-7.515-7.515h-63.385v-76.182c0-12.431 10.113-22.544 22.544-22.544h165.822c12.431 0 22.544 10.113 22.544 22.544v76.182h-117.466c-4.151 0-7.515 3.365-7.515 7.515s3.364 7.515 7.515 7.515h127.515c6.906 0 12.524 5.618 12.524 12.524z"/><path d="m214.251 30.925c14.464-10.399 31.532-15.896 49.36-15.896.97 0 1.934.017 2.891.049 28.916.977 54.211 18.119 66.014 44.735 11.998 27.055 7.62 57.845-11.423 80.353l-36.848 43.549c-2.681 3.168-2.286 7.909.883 10.59 2.796 2.357 7.63 2.508 10.591-.883l36.848-43.55c22.797-26.944 28.041-63.787 13.689-96.154-14.159-31.927-44.523-52.49-79.25-53.663-1.126-.035-2.257-.055-3.395-.055-20.996 0-41.098 6.474-58.133 18.723-3.37 2.423-4.138 7.118-1.715 10.488s7.12 4.136 10.488 1.714z"/></g></g></svg>