<svg id="Capa_1" enable-background="new 0 0 512 512" height="512" viewBox="0 0 512 512" width="512" xmlns="http://www.w3.org/2000/svg"><g><g><path d="m377.435 504h-242.87v-16.229c0-9.915 8.038-17.954 17.954-17.954h206.963c9.915 0 17.953 8.038 17.953 17.954z" fill="#5a5a5a"/><path d="m134.654 486c-.057.583-.089 1.173-.089 1.771v16.229h242.87v-16.229c0-.598-.032-1.188-.089-1.771z" fill="#4c4c4c"/><path d="m317.172 350.571h-122.344c-13.679 0-25.252 10.111-27.089 23.666l-12.951 95.58h202.424l-12.951-95.58c-1.837-13.555-13.41-23.666-27.089-23.666z" fill="#e0e0e0"/><path d="m157.227 451.817-2.439 18h202.424l-2.439-18z" fill="#cecece"/><g><g><circle cx="256" cy="153.177" fill="#98db7c" r="145.177"/></g></g><path d="m256 280.354c-77.155 0-140.242-60.191-144.891-136.177-.182 2.978-.286 5.977-.286 9 0 80.179 64.998 145.177 145.177 145.177s145.177-64.998 145.177-145.177c0-3.023-.104-6.022-.286-9-4.649 75.985-67.736 136.177-144.891 136.177z" fill="#82d361"/><path d="m256 298.354c-12.089 0-23.829-1.487-35.057-4.272l-4.307 56.489h78.727l-4.307-56.489c-11.227 2.784-22.967 4.272-35.056 4.272z" fill="#9e9e9e"/><path d="m256 316.354c12.572 0 24.77-1.6 36.404-4.604l-1.347-17.668c-11.228 2.785-22.968 4.272-35.057 4.272s-23.829-1.487-35.057-4.272l-1.347 17.668c11.634 3.004 23.832 4.604 36.404 4.604z" fill="#898989"/><path d="m256 8c-24.693 0-47.942 6.173-68.3 17.047 5.053 29.008-6.881 55.434-6.881 55.434h.003c-5.212 10.882-8.135 23.07-8.135 35.942 0 46.012 37.3 83.313 83.313 83.313s83.313-37.3 83.313-83.313c0-12.872-2.923-25.059-8.135-35.942h.003s-11.934-26.427-6.881-55.434c-20.359-10.875-43.607-17.047-68.3-17.047z" fill="#98db7c"/><g><g><g><path d="m256 181.736c-42.977 0-78.344-32.545-82.824-74.333-.32 2.963-.489 5.972-.489 9.02 0 46.012 37.3 83.313 83.313 83.313s83.313-37.3 83.313-83.313c0-3.048-.169-6.057-.489-9.02-4.48 41.788-39.846 74.333-82.824 74.333z" fill="#82d361"/></g></g></g></g><path d="m364.027 463.099-12.147-89.639c-2.334-17.227-17.204-30.218-34.589-30.218h-14.887l-3.311-43.424c24.263-7.084 46.508-20.162 64.903-38.497 2.939-2.93 2.947-7.688.017-10.628-2.929-2.939-7.687-2.946-10.627-.017-26.036 25.954-60.622 40.247-97.386 40.247-76.064 0-137.946-61.883-137.946-137.946 0-48.537 25.201-91.295 63.202-115.889.587 21.698-7.343 39.759-7.432 39.959-.005.012-.01.024-.016.035-5.838 12.26-8.798 25.404-8.798 39.07 0 10.523 1.783 20.842 5.3 30.669 3.842 9.43 17.029 4.039 14.151-5.065-2.934-8.197-4.421-16.811-4.421-25.604 0-11.471 2.494-22.495 7.414-32.766.061-.128.119-.257.172-.387 1.221-2.788 11.17-26.559 8.137-54.102 18.212-8.877 38.652-13.866 60.238-13.866s42.027 4.989 60.238 13.866c-3.04 27.604 6.96 51.42 8.144 54.12.051.124.107.247.165.369 4.92 10.271 7.414 21.295 7.414 32.766 0 41.885-34.076 75.961-75.961 75.961-22.753 0-44.118-10.076-58.618-27.646-2.642-3.201-7.378-3.654-10.579-1.013-3.201 2.642-3.654 7.378-1.013 10.579 17.365 21.041 42.956 33.109 70.21 33.109 50.172 0 90.991-40.818 90.991-90.99 0-13.673-2.963-26.822-8.807-39.087 0-.002-.001-.004-.003-.006-.094-.21-8.024-18.273-7.437-39.971 38.001 24.594 63.202 67.352 63.202 115.889 0 26.988-7.791 53.125-22.53 75.584-2.277 3.47-1.311 8.129 2.159 10.406 3.469 2.277 8.128 1.31 10.406-2.159 16.352-24.916 24.995-53.904 24.995-83.83-.002-84.353-68.626-152.978-152.977-152.978s-152.976 68.625-152.976 152.976c0 69.393 46.449 128.134 109.886 146.787l-3.315 43.478h-14.887c-17.385 0-32.254 12.991-34.589 30.218l-12.147 89.639c-12 2.068-21.161 12.544-21.161 25.126v16.261c0 4.15 3.364 7.515 7.515 7.515h243.345c4.15 0 7.515-3.364 7.515-7.515v-16.261c.001-12.582-9.159-23.057-21.159-25.125zm-136.314-159.78c9.171 1.722 18.624 2.633 28.287 2.633 9.595 0 19.053-.889 28.289-2.607l3.042 39.897h-62.661zm142.445 193.652h-228.316v-8.746c0-5.775 4.699-10.474 10.474-10.474h61.614c4.15 0 7.515-3.365 7.515-7.515s-3.365-7.515-7.515-7.515h-50.738l11.822-87.244c1.329-9.809 9.796-17.206 19.695-17.206h122.583c9.899 0 18.366 7.397 19.695 17.206l11.822 87.244h-104.821c-4.15 0-7.515 3.365-7.515 7.515s3.365 7.515 7.515 7.515h115.696c5.775 0 10.474 4.699 10.474 10.474z"/></g></svg>