<svg id="Capa_1" enable-background="new 0 0 512 512" height="512" viewBox="0 0 512 512" width="512" xmlns="http://www.w3.org/2000/svg"><g><g><path d="m324.988 345.133c-8.184 19.502-32.572 26.037-49.411 13.24-11.57-8.793-27.583-8.793-39.154 0-16.839 12.797-41.227 6.262-49.411-13.24-4.776-11.381-15.5-18.867-27.455-19.745l-.327 178.612 95.889-37.716 95.892 37.716.328-178.51c-11.508 1.244-21.723 8.614-26.351 19.643z" fill="#c61926"/><path d="m211.103 483.596 44.015-17.313 44.346 17.442v-119.054c-8.105 1.101-16.686-.825-23.888-6.298-11.57-8.793-27.583-8.793-39.154 0-7.628 5.797-16.802 7.615-25.32 6.07v119.153z" fill="#ff4755"/><path d="m275.577 14.605c16.839-12.797 41.227-6.262 49.411 13.24 5.623 13.4 19.491 21.407 33.908 19.577 20.981-2.663 38.834 15.19 36.171 36.171-1.83 14.417 6.177 28.285 19.577 33.908 19.502 8.184 26.037 32.572 13.24 49.411-8.793 11.57-8.793 27.584 0 39.154 12.797 16.839 6.262 41.226-13.24 49.411-13.4 5.624-21.407 19.491-19.577 33.908 2.663 20.981-15.19 38.834-36.171 36.171-14.417-1.83-28.285 6.177-33.908 19.577-8.184 19.502-32.572 26.037-49.411 13.24-11.57-8.793-27.583-8.793-39.154 0-16.839 12.797-41.226 6.262-49.411-13.24-5.624-13.4-19.491-21.407-33.908-19.577-20.981 2.663-38.834-15.19-36.171-36.171 1.83-14.417-6.177-28.284-19.577-33.908-19.502-8.184-26.037-32.572-13.24-49.411 8.793-11.57 8.793-27.584 0-39.154-12.797-16.839-6.262-41.226 13.24-49.411 13.4-5.624 21.407-19.492 19.577-33.908-2.663-20.981 15.19-38.834 36.171-36.171 14.417 1.83 28.285-6.177 33.908-19.577 8.184-19.502 32.572-26.037 49.411-13.24 11.57 8.793 27.584 8.793 39.154 0z" fill="#ffcb5b"/><g><path d="m394.826 286.158c-5.123 13.585-19.072 22.94-34.76 20.949-14.581-1.851-28.606 6.247-34.294 19.799-8.277 19.724-32.943 26.333-49.973 13.39-11.702-8.893-27.897-8.893-39.599 0-17.03 12.943-41.695 6.334-49.973-13.39-5.687-13.552-19.713-21.65-34.294-19.799-15.688 1.991-29.636-7.364-34.76-20.949-.029 1.07-.104 2.146-.241 3.226-2.663 20.981 15.19 38.834 36.171 36.171 14.417-1.83 28.285 6.177 33.908 19.577 8.184 19.502 32.572 26.037 49.411 13.24 11.57-8.793 27.583-8.793 39.154 0 16.839 12.797 41.226 6.262 49.411-13.24 5.623-13.4 19.491-21.407 33.908-19.577 20.981 2.663 38.834-15.19 36.171-36.171-.136-1.079-.211-2.155-.24-3.226z" fill="#f7b737"/></g><path d="m324.988 345.133c-8.184 19.502-32.572 26.037-49.411 13.24-11.57-8.793-27.583-8.793-39.154 0-16.839 12.797-41.227 6.262-49.411-13.24-4.776-11.381-15.5-18.867-27.455-19.745l-.031 16.912c8.906 3.408 16.33 10.328 20.208 19.568 9.048 21.559 36.008 28.783 54.623 14.636 12.791-9.721 30.493-9.721 43.284 0 18.615 14.147 45.575 6.923 54.623-14.636 3.707-8.834 10.656-15.545 19.041-19.097l.032-17.281c-11.506 1.244-21.721 8.614-26.349 19.643z" fill="#b2182b"/><path d="m275.577 358.372c-11.57-8.793-27.583-8.793-39.154 0-7.628 5.797-16.802 7.615-25.32 6.07v19.32c7.999.376 16.222-1.914 23.255-7.258 12.791-9.721 30.493-9.721 43.284 0 6.614 5.026 14.28 7.342 21.823 7.289v-19.122c-8.105 1.101-16.686-.826-23.888-6.299z" fill="#fc2b3a"/><g><g><circle cx="256" cy="186.489" fill="#ff9838" r="124.989"/></g></g><path d="m256 293.478c-66.003 0-120.05-51.161-124.664-115.989-.212 2.973-.325 5.973-.325 9 0 69.03 55.96 124.989 124.989 124.989s124.989-55.96 124.989-124.989c0-3.027-.114-6.027-.325-9-4.614 64.828-58.661 115.989-124.664 115.989z" fill="#ff8709"/><path d="m266.82 125.823 11.023 22.335c1.758 3.561 5.155 6.03 9.085 6.601l24.649 3.582c9.897 1.438 13.849 13.6 6.687 20.581l-17.836 17.386c-2.844 2.772-4.142 6.766-3.47 10.68l4.21 24.549c1.691 9.857-8.655 17.374-17.507 12.72l-22.046-11.59c-3.515-1.848-7.715-1.848-11.23 0l-22.046 11.59c-8.852 4.654-19.198-2.863-17.507-12.72l4.21-24.549c.671-3.914-.626-7.908-3.47-10.68l-17.836-17.386c-7.161-6.981-3.21-19.143 6.687-20.581l24.649-3.582c3.93-.571 7.327-3.039 9.085-6.601l11.023-22.335c4.426-8.968 17.214-8.968 21.64 0z" fill="#fff5f5"/><g><path d="m253.673 212.937-42.878 22.542c1.199 7.765 9.922 12.784 17.544 8.777l22.046-11.59c3.515-1.848 7.715-1.848 11.23 0l22.046 11.59c7.622 4.007 16.345-1.012 17.544-8.777l-42.879-22.542c-1.456-.765-3.196-.765-4.653 0z" fill="#efe2dd"/></g></g><g><path d="m141.649 214.431c-.986-4.031-5.051-6.497-9.085-5.514-4.031.986-6.5 5.053-5.514 9.085 6.937 28.36 23.412 54.041 46.392 72.313 23.686 18.834 52.234 28.79 82.558 28.79 73.196 0 132.746-59.55 132.746-132.746s-59.55-132.746-132.746-132.746-132.746 59.55-132.746 132.746c0 4.15 3.364 7.514 7.515 7.514 4.15 0 7.514-3.364 7.514-7.514 0-64.909 52.808-117.717 117.717-117.717s117.717 52.808 117.717 117.717-52.808 117.717-117.717 117.717c-26.891 0-52.205-8.826-73.204-25.524-20.385-16.209-34.998-38.981-41.147-64.121z"/><path d="m434.199 171.291c7.528-9.906 9.999-22.48 6.779-34.497-3.221-12.017-11.647-21.671-23.118-26.485-2-.84-3.879-1.933-5.586-3.251-3.285-2.536-8.004-1.929-10.54 1.356s-1.929 8.004 1.356 10.54c2.739 2.115 5.752 3.869 8.955 5.213 7.154 3.002 12.41 9.023 14.418 16.517s.467 15.336-4.228 21.514c-10.811 14.226-10.811 34.097 0 48.323 4.695 6.178 6.235 14.018 4.228 21.513-2.008 7.494-7.264 13.515-14.418 16.518-16.475 6.914-26.411 24.123-24.161 41.849.977 7.697-1.609 15.259-7.096 20.745-5.487 5.487-13.053 8.075-20.745 7.095-17.723-2.245-34.934 7.686-41.848 24.162-3.003 7.155-9.023 12.41-16.518 14.418-7.496 2.009-15.336.467-21.513-4.227-14.227-10.812-34.098-10.812-48.324 0-6.178 4.694-14.02 6.233-21.513 4.228-7.495-2.008-13.515-7.264-16.518-14.418-6.914-16.476-24.118-26.412-41.849-24.162-7.697.979-15.258-1.608-20.744-7.095-5.487-5.486-8.073-13.048-7.096-20.745 2.249-17.726-7.686-34.935-24.162-41.849-7.154-3.003-12.409-9.023-14.418-16.518-2.008-7.495-.467-15.335 4.228-21.513 10.811-14.226 10.811-34.097 0-48.323-4.695-6.178-6.236-14.019-4.228-21.514 2.008-7.494 7.263-13.514 14.418-16.517 16.476-6.915 26.411-24.123 24.162-41.849-.977-7.698 1.609-15.258 7.096-20.745 5.486-5.487 13.044-8.076 20.745-7.096 17.725 2.25 34.934-7.686 41.848-24.162 3.003-7.154 9.023-12.41 16.518-14.417 7.495-2.01 15.336-.468 21.513 4.227 14.226 10.811 34.096 10.811 48.323 0 6.177-4.694 14.017-6.236 21.513-4.227 7.495 2.008 13.515 7.263 16.518 14.417 6.914 16.477 24.129 26.41 41.849 24.162 7.697-.978 15.258 1.609 20.744 7.095 5.487 5.487 8.073 13.048 7.096 20.747-.125.989-.215 1.992-.266 2.983-.214 4.145 2.973 7.678 7.117 7.892 4.155.214 7.678-2.973 7.892-7.117.032-.62.088-1.248.166-1.867 1.566-12.343-2.581-24.467-11.378-33.265-8.798-8.797-20.922-12.941-33.265-11.378-11.061 1.401-21.786-4.793-26.098-15.068-4.814-11.472-14.468-19.899-26.486-23.119-12.018-3.22-24.591-.749-34.497 6.779-8.871 6.741-21.263 6.743-30.136 0-9.905-7.528-22.48-9.998-34.496-6.779-12.018 3.22-21.672 11.647-26.486 23.119-4.312 10.275-15.037 16.476-26.099 15.068-12.338-1.568-24.466 2.581-33.264 11.378-8.797 8.798-12.944 20.922-11.378 33.265 1.403 11.054-4.793 21.786-15.068 26.099-11.472 4.814-19.898 14.467-23.118 26.485s-.749 24.591 6.779 34.497c6.742 8.872 6.742 21.264 0 30.136-7.528 9.905-9.999 22.479-6.779 34.496s11.646 21.671 23.118 26.486c10.275 4.312 16.471 15.044 15.068 26.099-1.566 12.343 2.581 24.467 11.379 33.265 8.319 8.32 19.615 12.471 31.255 11.575l-.314 171.124c-.004 2.488 1.223 4.817 3.278 6.22 1.267.864 2.746 1.308 4.237 1.308.928 0 1.861-.172 2.75-.521l93.324-36.708 93.327 36.708c2.31.909 4.921.618 6.975-.779 2.054-1.396 3.285-3.717 3.29-6.2l.153-83.528c.008-4.15-3.351-7.52-7.501-7.528-.005 0-.009 0-.014 0-4.143 0-7.506 3.356-7.514 7.501l-.133 72.519-36.637-14.41v-108.165c11.316-3.501 20.375-11.682 24.987-22.671 2.373-5.654 6.695-10.063 11.94-12.66l-.102 55.328c-.008 4.15 3.351 7.521 7.501 7.528h.014c4.143 0 7.506-3.356 7.514-7.501l.106-57.677c12.039 1.268 23.8-2.874 32.389-11.464 8.798-8.797 12.945-20.922 11.379-33.265-1.403-11.054 4.793-21.787 15.068-26.099 11.473-4.814 19.899-14.468 23.119-26.486 3.22-12.017.75-24.591-6.779-34.496-6.743-8.872-6.743-21.264-.001-30.136zm-267.331 163.747c5.756 2.501 10.54 7.123 13.082 13.18 4.415 10.521 12.907 18.467 23.552 22.198v108.506l-36.925 14.524zm90.999 124.665c-1.768-.696-3.734-.696-5.501 0l-33.835 13.309v-100.344c8.015-.338 15.801-3.095 22.401-8.111 8.872-6.743 21.264-6.742 30.135.001 6.207 4.717 13.459 7.446 20.967 8.036v100.547z"/><path d="m323.63 184.158c5.383-5.247 7.283-12.947 4.96-20.096s-8.387-12.262-15.826-13.342l-24.696-3.589c-1.49-.217-2.778-1.153-3.445-2.503l-11.043-22.378c-3.327-6.741-10.063-10.928-17.58-10.928s-14.253 4.187-17.58 10.928l-11.044 22.378c-.667 1.351-1.955 2.287-3.445 2.503l-24.697 3.589c-7.438 1.081-13.502 6.193-15.825 13.342s-.422 14.85 4.961 20.096l17.87 17.419c1.078 1.051 1.57 2.565 1.316 4.049l-4.219 24.597c-1.27 7.408 1.718 14.756 7.799 19.174 3.436 2.497 7.456 3.765 11.504 3.764 3.115 0 6.247-.751 9.141-2.272l22.089-11.613c1.333-.701 2.925-.701 4.258 0l22.089 11.613c6.654 3.497 14.564 2.925 20.646-1.492 6.082-4.418 9.07-11.766 7.799-19.174l-4.219-24.596c-.255-1.484.237-2.998 1.315-4.049zm-28.361 6.658c-4.622 4.505-6.729 10.991-5.638 17.352l4.218 24.596c.434 2.53-1.128 3.972-1.82 4.475-.691.503-2.546 1.543-4.818.348l-22.09-11.613c-2.856-1.501-5.989-2.252-9.122-2.252s-6.266.751-9.123 2.252l-22.089 11.613c-2.271 1.194-4.127.155-4.818-.348-.692-.503-2.254-1.945-1.82-4.474l4.219-24.596c1.091-6.361-1.017-12.848-5.638-17.352l-17.87-17.419c-1.838-1.792-1.422-3.877-1.158-4.69.264-.814 1.153-2.745 3.693-3.114l24.697-3.588c6.386-.928 11.903-4.937 14.76-10.724l11.044-22.379c1.136-2.302 3.247-2.55 4.103-2.55.855 0 2.967.249 4.103 2.55l11.045 22.379c2.856 5.787 8.374 9.795 14.76 10.723l24.696 3.588c2.54.369 3.429 2.301 3.693 3.114.265.813.681 2.898-1.157 4.69z"/></g></g></svg>