<svg id="Capa_1" enable-background="new 0 0 512 512" height="512" viewBox="0 0 512 512" width="512" xmlns="http://www.w3.org/2000/svg"><g><g><path d="m371.277 465.921h-230.554c-11.046 0-20 8.954-20 20v18.079h270.555v-18.079c-.001-11.046-8.955-20-20.001-20z" fill="#ff9838"/><path d="m120.723 486h270.555v18h-270.555z" fill="#ff8709"/><path d="m368.75 465.921h-225.5v-83.533c0-16.569 13.431-30 30-30h165.5c16.569 0 30 13.431 30 30z" fill="#ffcb5b"/><path d="m143.25 447.921h225.499v18h-225.499z" fill="#f7b737"/><path d="m188.038 320.03h135.924v32.358h-135.924z" fill="#ff9838"/><path d="m188.038 336.209h135.924v16.179h-135.924z" fill="#ff8709"/><path d="m267.476 240.128c-7.185-3.777-15.768-3.777-22.953 0l-19.909 10.467-8.568 69.435h79.907l-8.568-69.435z" fill="#ffcb5b"/><path d="m278.116 21.748 22.53 45.652c3.592 7.279 10.536 12.324 18.569 13.491l50.38 7.321c20.229 2.939 28.306 27.798 13.668 42.067l-36.455 35.535c-5.813 5.666-8.465 13.829-7.093 21.83l8.606 50.177c3.455 20.147-17.691 35.511-35.784 25.999l-45.061-23.69c-7.185-3.777-15.768-3.777-22.953 0l-45.061 23.69c-18.093 9.512-39.239-5.852-35.784-25.999l8.606-50.177c1.372-8-1.28-16.164-7.093-21.83l-36.455-35.535c-14.638-14.268-6.56-39.127 13.668-42.067l50.38-7.321c8.033-1.167 14.977-6.212 18.569-13.491l22.531-45.652c9.047-18.331 35.185-18.331 44.232 0z" fill="#ffe27a"/><g><path d="m253.673 217.318-82.031 43.126c7.198 6.343 17.958 8.559 27.82 3.374l45.061-23.69c7.185-3.777 15.768-3.777 22.953 0l45.061 23.69c9.862 5.185 20.622 2.969 27.82-3.374l-82.032-43.126c-1.455-.766-3.195-.766-4.652 0z" fill="#f9cf58"/></g><path d="m287.385 250.595-19.909-10.467c-7.185-3.777-15.768-3.777-22.953 0l-19.909 10.467-2.375 19.249 22.284-11.716c7.185-3.777 15.768-3.777 22.953 0l22.284 11.716z" fill="#f7b737"/></g><g><path d="m376.484 459.277v-76.642c0-20.718-16.855-37.573-37.573-37.573h-7.301v-24.906c0-4.15-3.364-7.515-7.515-7.515h-21.418l-6.012-48.72 12.487 6.565c4.757 2.501 9.905 3.736 15.026 3.736 6.654 0 13.262-2.085 18.911-6.189 9.996-7.263 14.909-19.34 12.82-31.52l-1.695-9.876c-.703-4.091-4.586-6.84-8.677-6.136-4.09.702-6.838 4.587-6.135 8.678l1.695 9.875c1.131 6.597-1.427 12.885-6.842 16.82-5.416 3.934-12.186 4.424-18.11 1.309l-45.15-23.736c-9.39-4.937-20.602-4.937-29.992-.001l-45.15 23.737c-5.924 3.114-12.695 2.625-18.109-1.309-5.415-3.934-7.973-10.222-6.841-16.818l8.623-50.275c1.793-10.456-1.671-21.119-9.268-28.523l-36.526-35.605c-4.794-4.672-6.42-11.262-4.352-17.628 2.069-6.366 7.258-10.741 13.882-11.704l50.478-7.335c10.498-1.525 19.569-8.115 24.264-17.628l3.125-6.332c1.837-3.722.309-8.228-3.413-10.065-3.723-1.839-8.229-.309-10.064 3.413l-3.125 6.332c-2.505 5.076-7.345 8.593-12.948 9.407l-50.478 7.335c-12.228 1.776-22.196 10.18-26.014 21.932-3.818 11.751-.694 24.409 8.155 33.035l36.527 35.605c4.053 3.951 5.902 9.641 4.945 15.221l-8.623 50.274c-2.089 12.179 2.823 24.256 12.82 31.519 9.996 7.263 22.998 8.203 33.937 2.453l12.488-6.565-6.012 48.72h-21.419c-4.15 0-7.515 3.365-7.515 7.515v24.906h-7.301c-20.718 0-37.573 16.855-37.573 37.573v76.642c-12.822 2.352-22.572 13.602-22.572 27.094v18.115c0 4.15 3.364 7.515 7.515 7.515h271.084c4.151 0 7.515-3.364 7.515-7.515v-18.115c-.001-13.493-9.752-24.743-22.574-27.095zm-144.954-203.87 16.468-8.658c5.011-2.635 10.994-2.634 16.004 0l16.469 8.658 7.063 57.233h-63.066zm-36.111 72.263h121.161v17.392h-121.161zm188.608 169.301h-256.054v-10.6c0-6.906 5.618-12.524 12.524-12.524h73.432c4.15 0 7.515-3.365 7.515-7.515s-3.365-7.515-7.515-7.515h-63.385v-76.182c0-12.431 10.113-22.544 22.544-22.544h165.822c12.431 0 22.544 10.113 22.544 22.544v76.182h-117.466c-4.15 0-7.515 3.365-7.515 7.515s3.365 7.515 7.515 7.515h127.515c6.906 0 12.525 5.618 12.525 12.524v10.6z"/><path d="m224.373 40.473c3.721 1.836 8.227.309 10.065-3.413l6.142-12.445c2.962-6.003 8.727-9.586 15.42-9.586 6.694 0 12.458 3.583 15.42 9.586l22.575 45.742c4.696 9.513 13.766 16.103 24.264 17.628l50.479 7.335c6.623.963 11.813 5.338 13.882 11.704 2.068 6.366.441 12.956-4.351 17.628l-36.527 35.605c-7.596 7.404-11.061 18.068-9.268 28.523l1.837 10.71c.628 3.661 3.805 6.246 7.398 6.246.422 0 .849-.035 1.279-.109 4.091-.702 6.838-4.586 6.136-8.677l-1.836-10.71c-.957-5.58.891-11.27 4.945-15.221l36.527-35.605c8.847-8.625 11.972-21.284 8.154-33.035-3.819-11.751-13.787-20.155-26.015-21.931l-50.478-7.335c-5.602-.814-10.441-4.331-12.947-9.407l-22.575-45.742c-5.47-11.08-16.543-17.964-28.899-17.964-.001 0 0 0 0 0-12.356 0-23.43 6.884-28.898 17.963l-6.142 12.445c-1.836 3.722-.308 8.228 3.413 10.065z"/></g></g></svg>