<svg id="Capa_1" enable-background="new 0 0 512 512" height="512" viewBox="0 0 512 512" width="512" xmlns="http://www.w3.org/2000/svg"><g><g><ellipse cx="256" cy="364.954" fill="#ffcb5b" rx="139.046" ry="139.046" transform="matrix(.707 -.707 .707 .707 -183.081 287.912)"/><path d="m256 486c-73.769 0-134.109-57.449-138.749-130.046-.19 2.977-.298 5.975-.298 9 .001 76.793 62.254 139.046 139.047 139.046s139.046-62.253 139.046-139.046c0-3.025-.108-6.023-.298-9-4.639 72.597-64.979 130.046-138.748 130.046z" fill="#f7b737"/><path d="m152.012 8h207.977v177.283h-207.977z" fill="#609e3f"/><path d="m152.012 167.283h207.977v18h-207.977z" fill="#548736"/><path d="m202.046 8h107.908v177.283h-107.908z" fill="#98db7c"/><path d="m202.046 167.283h107.908v18h-107.908z" fill="#82d361"/><path d="m338.136 225.907h-164.272c-17.977 0-32.549-14.573-32.549-32.549v-8.075h229.37v8.075c0 17.976-14.573 32.549-32.549 32.549z" fill="#ffe27a"/><path d="m338.136 207.907h-164.272c-14.514 0-26.805-9.503-31.003-22.624h-1.547v8.075c0 17.977 14.573 32.549 32.549 32.549h164.271c17.977 0 32.549-14.573 32.549-32.549v-8.075h-1.547c-4.195 13.122-16.486 22.624-31 22.624z" fill="#f9cf58"/><ellipse cx="256" cy="364.954" fill="#ff9838" rx="104.51" ry="104.51" transform="matrix(.707 -.707 .707 .707 -183.081 287.912)"/><path d="m256 451.463c-54.686 0-99.555-42.005-104.12-95.51-.253 2.967-.39 5.967-.39 9 0 57.719 46.791 104.51 104.51 104.51s104.51-46.791 104.51-104.51c0-3.033-.137-6.033-.39-9-4.565 53.505-49.434 95.51-104.12 95.51z" fill="#ff8709"/><path d="m265.884 306.154 10.07 20.404c1.606 3.253 4.709 5.508 8.299 6.03l22.517 3.272c9.041 1.314 12.651 12.424 6.109 18.802l-16.294 15.882c-2.598 2.532-3.783 6.181-3.17 9.757l3.846 22.426c1.544 9.005-7.907 15.871-15.993 11.62l-20.14-10.588c-3.211-1.688-7.048-1.688-10.259 0l-20.14 10.588c-8.087 4.251-17.538-2.615-15.993-11.62l3.846-22.426c.613-3.576-.572-7.224-3.17-9.757l-16.294-15.882c-6.542-6.377-2.932-17.488 6.109-18.802l22.517-3.272c3.59-.522 6.694-2.777 8.299-6.03l10.07-20.404c4.046-8.193 15.728-8.193 19.771 0z" fill="#fff5f5"/><g><path d="m253.673 384.285-39.095 20.553c.124 7.917 8.712 13.42 16.152 9.508l20.14-10.588c3.211-1.688 7.048-1.688 10.259 0l20.14 10.588c7.44 3.912 16.028-1.591 16.152-9.508l-39.095-20.553c-1.456-.766-3.196-.766-4.653 0z" fill="#efe2dd"/></g></g><g><path d="m320.663 233.363h17.634c22.127 0 40.128-18.001 40.128-40.128v-.576h13.117c4.151 0 7.515-3.364 7.515-7.515 0-4.15-3.364-7.515-7.515-7.515h-23.836v-43.771c0-4.15-3.364-7.515-7.515-7.515s-7.515 3.364-7.515 7.515v43.771h-35.103v-162.6h35.103v88.771c0 4.15 3.364 7.515 7.515 7.515s7.515-3.364 7.515-7.515v-96.285c0-4.15-3.364-7.515-7.515-7.515h-208.383c-4.151 0-7.515 3.365-7.515 7.515v170.115h-23.836c-4.151 0-7.515 3.365-7.515 7.515s3.364 7.515 7.515 7.515h13.117v.576c0 22.127 18.001 40.128 40.128 40.128h17.633c-48.629 23.954-82.171 74.032-82.171 131.804.002 80.963 65.871 146.832 146.836 146.832s146.834-65.869 146.834-146.833c0-57.772-33.542-107.85-82.171-131.804zm-161.34-218.334h35.103v46.09c0 4.15 3.364 7.515 7.515 7.515s7.515-3.364 7.515-7.515v-46.09h93.09v162.6h-93.09v-86.451c0-4.15-3.364-7.515-7.515-7.515s-7.515 3.365-7.515 7.515v86.452h-35.103zm14.381 203.305c-13.84 0-25.099-11.259-25.099-25.098v-.576h214.791v.576c0 13.839-11.259 25.098-25.099 25.098zm82.296 278.637c-72.677 0-131.804-59.127-131.804-131.804s59.127-131.804 131.804-131.804 131.804 59.127 131.804 131.804-59.127 131.804-131.804 131.804z"/><path d="m256 252.938c-61.884 0-112.229 50.346-112.229 112.229 0 4.15 3.364 7.515 7.515 7.515s7.515-3.365 7.515-7.515c0-53.596 43.604-97.2 97.2-97.2s97.2 43.604 97.2 97.2-43.604 97.2-97.2 97.2c-21.393 0-41.685-6.814-58.681-19.705-16.454-12.481-28.722-30.197-34.543-49.885-1.177-3.979-5.353-6.249-9.337-5.076-3.98 1.177-6.251 5.357-5.075 9.337 6.723 22.74 20.885 43.195 39.874 57.598 19.63 14.89 43.063 22.76 67.763 22.76 61.884 0 112.229-50.346 112.229-112.229-.002-61.883-50.347-112.229-112.231-112.229z"/><path d="m256 292.581c-7.115 0-13.493 3.964-16.643 10.345l-10.088 20.443c-.515 1.042-1.509 1.765-2.659 1.932l-22.563 3.278c-7.042 1.023-12.783 5.863-14.981 12.632-2.199 6.768-.399 14.058 4.697 19.024l16.326 15.914c.832.811 1.211 1.978 1.016 3.123l-3.854 22.47c-1.204 7.014 1.625 13.969 7.382 18.152 5.758 4.184 13.249 4.725 19.546 1.412l20.178-10.608c1.029-.541 2.259-.542 3.287-.001l20.179 10.609c2.74 1.44 5.704 2.152 8.655 2.152 3.832 0 7.638-1.201 10.891-3.565 5.756-4.183 8.585-11.138 7.382-18.152l-3.854-22.47c-.196-1.145.184-2.312 1.017-3.124l16.325-15.913c5.096-4.967 6.895-12.257 4.697-19.024-2.199-6.768-7.939-11.608-14.982-12.632l-22.562-3.278c-1.15-.167-2.144-.889-2.658-1.93l-10.089-20.444s0 0 0-.001c-3.152-6.38-9.529-10.344-16.645-10.344zm27.229 47.593 22.561 3.278c1.961.285 2.646 1.775 2.85 2.403.204.627.525 2.236-.894 3.618l-16.324 15.912c-4.376 4.264-6.372 10.406-5.339 16.428l3.854 22.47c.335 1.952-.871 3.065-1.404 3.452-.533.388-1.965 1.191-3.717.269l-20.18-10.61c-2.703-1.421-5.669-2.131-8.636-2.131-2.966 0-5.932.711-8.637 2.132l-20.179 10.609c-1.753.922-3.184.119-3.717-.269-.533-.387-1.739-1.5-1.404-3.452l3.854-22.47c1.033-6.023-.963-12.164-5.337-16.427l-16.325-15.913c-1.419-1.383-1.098-2.991-.894-3.618.204-.628.889-2.117 2.849-2.403l22.562-3.278c6.045-.878 11.269-4.673 13.975-10.153l10.089-20.443c.877-1.776 2.506-1.968 3.165-1.968s2.289.191 3.165 1.967l10.09 20.446c2.704 5.478 7.928 9.273 13.973 10.151z"/></g></g></svg>