<svg id="Capa_1" enable-background="new 0 0 512 512" height="512" viewBox="0 0 512 512" width="512" xmlns="http://www.w3.org/2000/svg"><g><g><path d="m391.277 504h-270.554v-18.079c0-11.046 8.954-20 20-20h230.555c11.046 0 20 8.954 20 20v18.079z" fill="#ff9838"/><path d="m120.723 486h270.555v18h-270.555z" fill="#ff8709"/><path d="m324.145 333.081h-136.29c-15.238 0-28.131 11.264-30.177 26.364l-14.428 106.476h225.5l-14.428-106.476c-2.046-15.1-14.939-26.364-30.177-26.364z" fill="#ffcb5b"/><path d="m145.689 447.921-2.438 18h225.499l-2.44-18z" fill="#f7b737"/><g><g fill="#ff9838"><path d="m384.17 35.934c-8.783-4.032-19.173-.183-23.207 8.6-.726 1.58-17.975 39.346-35.414 95.224-15.326 49.106-33.432 121.45-35.246 193.323h35.004c3.575-133.314 66.806-272.509 67.463-273.94 4.034-8.783.184-19.173-8.6-23.207z"/><path d="m221.697 333.081c-1.814-71.872-19.92-144.217-35.246-193.323-17.439-55.878-34.688-93.644-35.414-95.224-4.034-8.783-14.423-12.632-23.207-8.6-8.783 4.034-12.633 14.423-8.6 23.207.657 1.431 63.888 140.626 67.463 273.94z"/></g></g><g><g fill="#ff8709"><path d="m291.097 315.081c-.367 5.994-.642 11.999-.793 18h35.004c.16-5.968.444-11.948.833-17.927-.661-.043-1.325-.073-1.996-.073z"/><path d="m186.692 333.081h35.004c-.152-6.002-.426-12.006-.794-18h-33.048c-.671 0-1.335.03-1.996.073.39 5.979.674 11.959.834 17.927z"/></g></g><ellipse cx="256" cy="89.623" fill="#ffe27a" rx="81.623" ry="81.623" transform="matrix(.707 -.707 .707 .707 11.608 207.269)"/><path d="m256 153.245c-42.036 0-76.636-31.78-81.118-72.623-.324 2.957-.505 5.957-.505 9 0 45.079 36.544 81.623 81.623 81.623s81.623-36.544 81.623-81.623c0-3.043-.18-6.043-.504-9-4.483 40.843-39.083 72.623-81.119 72.623z" fill="#f9cf58"/></g><path d="m337.532 199.545c-.997 4.028 1.46 8.103 5.488 9.101 4.029.998 8.104-1.459 9.101-5.488 19.755-79.776 47.471-140.664 47.747-141.266 5.764-12.552.242-27.453-12.311-33.217-12.552-5.762-27.453-.24-33.215 12.31-.367.798-4.891 10.704-11.517 27.421-9.432-39.194-44.778-68.406-86.825-68.406s-77.392 29.212-86.823 68.405c-6.626-16.717-11.15-26.623-11.517-27.421-5.763-12.549-20.663-18.075-33.216-12.31-12.552 5.764-18.074 20.665-12.312 33.214.082.178 8.458 18.613 19.111 47.849 1.42 3.898 5.732 5.909 9.633 4.488 3.899-1.421 5.909-5.734 4.488-9.634-11.047-30.318-19.487-48.787-19.572-48.973-2.305-5.021-.096-10.981 4.924-13.287 5.02-2.303 10.981-.098 13.288 4.924.719 1.566 17.808 38.986 35.139 94.513 14.422 46.211 31.862 114.942 34.713 183.948h-20.043c-3.055-71.524-22.472-143.786-38.521-192.499-1.297-3.941-5.548-6.084-9.488-4.786-3.942 1.299-6.085 5.547-4.786 9.489 15.782 47.901 34.882 118.929 37.8 188.867-14.904 3.622-26.643 16.111-28.777 31.851l-13.616 100.482c-13.268 1.975-23.481 13.441-23.481 27.251v18.115c0 4.15 3.364 7.515 7.515 7.515h271.084c4.151 0 7.515-3.364 7.515-7.515v-18.115c0-13.81-10.213-25.276-23.481-27.251l-13.614-100.482c-2.133-15.739-13.872-28.227-28.773-31.85 1.219-29.255 5.355-61.042 12.32-94.609.844-4.064-1.767-8.042-5.832-8.885-4.062-.844-8.041 1.768-8.885 5.831-7.096 34.194-11.323 66.643-12.599 96.592h-20.046c2.851-69.006 20.291-137.736 34.713-183.948 17.331-55.527 34.42-92.948 35.139-94.513 2.305-5.02 8.264-7.229 13.287-4.924 5.021 2.306 7.23 8.267 4.923 13.291-.286.618-28.577 62.752-48.678 143.922zm-81.532-184.516c40.951 0 74.268 33.317 74.268 74.268s-33.317 74.268-74.268 74.268-74.268-33.317-74.268-74.268 33.317-74.268 74.268-74.268zm91.069 345.627 13.3 98.161h-116.38c-4.151 0-7.515 3.365-7.515 7.515s3.364 7.515 7.515 7.515h127.515c6.906 0 12.525 5.618 12.525 12.524v10.6h-256.056v-10.6c0-6.906 5.618-12.524 12.524-12.524h73.432c4.151 0 7.515-3.365 7.515-7.515s-3.364-7.515-7.515-7.515h-62.298l13.3-98.16c1.539-11.35 11.337-19.91 22.791-19.91h136.556c11.454 0 21.252 8.559 22.791 19.909zm-118.169-34.939c-2.44-60.81-15.922-121.246-29.013-167.012 15.345 12.43 34.873 19.888 56.113 19.888s40.768-7.459 56.113-19.888c-13.09 45.766-26.572 106.202-29.013 167.012z"/></g></svg>