<svg id="Capa_1" enable-background="new 0 0 512 512" height="512" viewBox="0 0 512 512" width="512" xmlns="http://www.w3.org/2000/svg"><g><g><path d="m364.277 504h-216.554v-18.079c0-11.046 8.954-20 20-20h176.555c11.046 0 20 8.954 20 20v18.079z" fill="#ffcb5b"/><path d="m147.723 486h216.555v18h-216.555z" fill="#f7b737"/><path d="m308.81 405.081h-105.62c-8.86 0-16.665 5.83-19.178 14.326l-13.761 46.514h171.499l-13.762-46.514c-2.514-8.496-10.318-14.326-19.178-14.326z" fill="#ff9838"/><path d="m175.576 447.921-5.325 18h171.499l-5.326-18z" fill="#ff8709"/><path d="m332.705 232.942-23.438-99.326c-2.809-11.904-11.763-21.4-23.481-24.903l-6.92-2.069c15.362-10.843 25.821-31.333 25.821-49.956 0-26.89-21.798-48.688-48.687-48.688s-48.687 21.798-48.687 48.687c0 18.622 10.459 39.111 25.82 49.954l-6.924 2.07c-11.718 3.503-20.672 13-23.481 24.903l-23.439 99.326c-2.842 12.043 1.046 24.682 10.165 33.046l34.207 31.375 9.335 107.718h22.999.005 22.999l9.335-107.718 34.207-31.375c9.119-8.362 13.006-21.001 10.164-33.044z" fill="#ffe27a"/><path d="m256.003 387.081h-.013-24.555l1.56 18h22.999.006 22.999l1.56-18z" fill="#f9cf58"/></g><g><path d="m347.585 459.001-12.251-41.405c-3.438-11.621-14.303-19.737-26.422-19.737h-21.675l3.498-40.363c.358-4.134-2.703-7.777-6.838-8.135-4.139-.356-7.776 2.703-8.135 6.838l-3.61 41.661h-32.311l-8.758-101.063c-.163-1.874-1.022-3.618-2.407-4.889l-34.274-31.437c-7.124-6.534-10.17-16.438-7.951-25.847l12.419-52.627c.953-4.04-1.549-8.087-5.588-9.04-4.043-.951-8.087 1.548-9.04 5.588l-12.419 52.627c-3.468 14.697 1.291 30.168 12.419 40.375l32.119 29.461 8.393 96.852h-21.668c-12.119 0-22.984 8.116-26.422 19.737l-12.251 41.406c-13.722 1.562-24.419 13.237-24.419 27.37v18.115c0 4.15 3.365 7.515 7.515 7.515h216.978c4.15 0 7.515-3.364 7.515-7.515v-18.115c.002-14.135-10.695-25.81-24.417-27.372zm9.39 37.97h-201.95v-10.6c0-6.906 5.618-12.524 12.524-12.524h46.38c4.15 0 7.515-3.365 7.515-7.515s-3.365-7.515-7.515-7.515h-33.787l10.935-36.958c1.563-5.282 6.501-8.971 12.01-8.971h105.826c5.508 0 10.447 3.689 12.01 8.972l10.935 36.958h-87.869c-4.15 0-7.515 3.365-7.515 7.515s3.365 7.515 7.515 7.515h100.461c6.906 0 12.524 5.618 12.524 12.524v10.599z"/><path d="m196.728 158.354c4.042.955 8.087-1.548 9.04-5.588l4.168-17.664c2.191-9.283 9.228-16.746 18.366-19.479l6.938-2.074c2.756-.824 4.799-3.148 5.264-5.987.464-2.839-.733-5.693-3.083-7.352-13.359-9.43-22.689-27.488-22.689-43.912 0-22.755 18.513-41.268 41.268-41.268s41.268 18.513 41.268 41.268c0 16.426-9.331 34.484-22.691 43.914-2.35 1.659-3.547 4.513-3.083 7.352s2.508 5.163 5.264 5.988l6.934 2.072c9.138 2.732 16.175 10.196 18.365 19.479l23.484 99.521c2.22 9.408-.826 19.313-7.95 25.847l-34.273 31.437c-1.386 1.272-2.245 3.016-2.408 4.889l-2.551 29.437c-.358 4.135 2.704 7.777 6.838 8.135.221.019.44.028.657.028 3.857 0 7.139-2.953 7.478-6.866l2.298-26.524 32.119-29.461c11.128-10.207 15.887-25.678 12.418-40.375l-23.484-99.52c-2.963-12.557-11.606-22.984-23.139-28.324 11.534-12.697 18.752-30.245 18.752-47.028.001-31.044-25.253-56.299-56.296-56.299s-56.298 25.255-56.298 56.298c0 16.783 7.217 34.329 18.75 47.026-11.536 5.34-20.18 15.768-23.144 28.326l-4.168 17.664c-.953 4.04 1.549 8.087 5.588 9.04z"/></g></g></svg>