<svg id="Capa_1" enable-background="new 0 0 512 512" height="512" viewBox="0 0 512 512" width="512" xmlns="http://www.w3.org/2000/svg"><g><g><path d="m391.403 504h-270.555v-18.079c0-11.046 8.954-20 20-20h230.555c11.046 0 20 8.954 20 20z" fill="#5a5a5a"/><path d="m120.848 486h270.555v18h-270.555z" fill="#4c4c4c"/><path d="m324.27 333.081h-136.289c-15.238 0-28.131 11.264-30.177 26.364l-14.428 106.476h225.499l-14.428-106.476c-2.046-15.1-14.939-26.364-30.177-26.364z" fill="#e0e0e0"/><path d="m145.815 447.921-2.439 18h225.499l-2.439-18z" fill="#cecece"/><path d="m196.411 333.081-75.814-325.081 261.901 35.176-70.394 289.905z" fill="#9e9e9e"/><path d="m196.411 333.081-75.814-325.081 261.901 35.176-70.394 289.905z" fill="#9e9e9e"/><path d="m196.411 333.081h115.693l4.37-18h-124.261z" fill="#898989"/><path d="m268.207 333.081h-34.836l-27-261.982h88.836z" fill="#fff5f5"/><path d="m231.516 315.081 1.855 18h34.836l1.855-18z" fill="#efe2dd"/><path d="m120.597 8 85.774 63.099h88.836l87.291-27.923z" fill="#5a5a5a"/></g><path d="m375.718 459.121-13.615-100.48c-2.543-18.768-18.743-32.92-37.682-32.92h-2.633l68.275-281.178c.983-3.821-1.582-8.656-6.302-9.22l-262.343-35.235c-4.432-.773-9.81 3.636-8.382 9.146l22.236 95.344c.943 4.042 4.981 6.552 9.025 5.611 4.042-.943 6.554-4.983 5.611-9.025l-17.612-75.524 66.865 49.189 25.857 250.892h-22.739l-46.084-197.605c-.942-4.042-4.983-6.551-9.025-5.611-4.042.943-6.554 4.983-5.611 9.025l45.294 194.215c-18.498.496-34.168 14.466-36.666 32.897l-13.615 100.479c-13.268 1.975-23.48 13.441-23.48 27.25v18.114c0 4.15 3.364 7.514 7.515 7.514h271.077c4.15 0 7.514-3.364 7.514-7.514v-18.114c0-13.808-10.212-25.275-23.48-27.25zm-81.588-395.887h-85.369l-60.284-44.347 200.22 26.892zm-79.506 15.029h72.35l-14.601 141.672c-.426 4.129 2.576 7.82 6.704 8.245.262.027.522.04.78.04 3.803 0 7.067-2.879 7.466-6.744l14.951-145.068 70.027-22.401-65.977 271.715h-29.745l7.658-74.302c.426-4.129-2.576-7.82-6.704-8.245-4.129-.422-7.82 2.576-8.245 6.704l-7.816 75.843h-21.344zm169.545 418.708h-256.048v-10.6c0-6.906 5.618-12.524 12.524-12.524h73.305c4.15 0 7.514-3.364 7.514-7.514s-3.364-7.514-7.514-7.514h-62.171l13.301-98.158c1.538-11.35 11.335-19.909 22.789-19.909h136.553c11.454 0 21.251 8.559 22.789 19.909l13.3 98.158h-116.503c-4.15 0-7.515 3.364-7.515 7.514s3.364 7.514 7.515 7.514h127.637c6.906 0 12.524 5.618 12.524 12.524z"/></g></svg>