<svg id="Capa_1" enable-background="new 0 0 512 512" height="512" viewBox="0 0 512 512" width="512" xmlns="http://www.w3.org/2000/svg"><g><g><g><circle cx="256" cy="256" fill="#98db7c" r="248"/><path d="m256 486c-133.952 0-243.081-106.205-247.82-239-.107 2.989-.18 5.986-.18 9 0 136.967 111.033 248 248 248s248-111.033 248-248c0-3.014-.073-6.011-.18-9-4.739 132.795-113.868 239-247.82 239z" fill="#82d361"/><g fill="#609e3f"><path d="m397.879 114.121 33.484-33.484c-44.88-44.879-106.88-72.637-175.363-72.637v47.353c55.407 0 105.569 22.459 141.879 58.768z"/><path d="m114.121 114.121-33.484-33.483c-44.879 44.879-72.637 106.879-72.637 175.362h47.353c0-55.407 22.458-105.569 58.768-141.879z"/><path d="m456.647 256c0 55.407-22.458 105.569-58.768 141.879l33.484 33.484c44.879-44.88 72.637-106.88 72.637-175.363z"/></g><path d="m422.127 422.127 9.236 9.236c44.879-44.88 72.637-106.88 72.637-175.363h-.655c-4.72 65.806-35.111 124.501-81.218 166.127z" fill="#548736"/><path d="m114.121 397.879-33.484 33.484c44.88 44.879 106.88 72.637 175.363 72.637v-47.353c-55.407 0-105.569-22.458-141.879-58.768z" fill="#609e3f"/><path d="m80.637 431.362c44.88 44.88 106.88 72.638 175.363 72.638v-18c-63.904 0-122.156-24.176-166.127-63.873z" fill="#548736"/><circle cx="256" cy="256" fill="#ffe27a" r="200.647"/><path d="m256 438.647c-107.797 0-195.727-85.011-200.436-191.647-.132 2.985-.211 5.983-.211 9 0 110.814 89.833 200.647 200.647 200.647s200.647-89.833 200.647-200.647c0-3.017-.079-6.015-.211-9-4.709 106.636-92.639 191.647-200.436 191.647z" fill="#f9cf58"/></g><path d="m331.615 161.943 47.955 51.542c7.047 7.574 7.155 19.271.249 26.974l-108.927 121.502c-7.948 8.866-21.835 8.866-29.783 0l-108.928-121.502c-6.905-7.703-6.797-19.4.249-26.974l47.955-51.542c3.784-4.067 9.088-6.376 14.642-6.376h121.945c5.555-.001 10.859 2.309 14.643 6.376z" fill="#0083fd"/><path d="m379.819 222.459-108.927 121.502c-7.948 8.866-21.835 8.866-29.783 0l-108.928-121.502c-1.206-1.346-2.185-2.818-2.964-4.365-3.629 7.184-2.655 16.097 2.964 22.365l108.928 121.502c7.948 8.866 21.835 8.866 29.783 0l108.928-121.502c5.619-6.268 6.593-15.181 2.964-22.365-.779 1.546-1.758 3.019-2.965 4.365z" fill="#0072fc"/><g fill="#8bcaff"><path d="m319.959 226.858h64.965c-.06-4.812-1.846-9.604-5.353-13.373l-47.955-51.542c-3.784-4.067-9.088-6.376-14.642-6.376h-35.334z"/><path d="m192.041 226.858 40.333-71.292h-37.347c-5.554 0-10.859 2.31-14.642 6.376l-47.955 51.542c-3.507 3.77-5.293 8.561-5.353 13.373h64.964z"/><path d="m319.959 226.858h-127.918l59.547 141.248c2.904.653 5.92.653 8.824 0z"/></g><path d="m241.629 344.482 9.959 23.624c2.904.653 5.92.653 8.824 0l9.959-23.624c-7.849 8.141-20.893 8.141-28.742 0z" fill="#60b8ff"/></g><g><path d="m437.02 74.98c-48.353-48.351-112.639-74.98-181.02-74.98-68.38 0-132.667 26.629-181.02 74.98-48.351 48.353-74.98 112.64-74.98 181.02s26.629 132.667 74.98 181.02c48.353 48.351 112.64 74.98 181.02 74.98 28.967 0 57.395-4.803 84.495-14.275 3.918-1.369 5.983-5.655 4.615-9.573-1.37-3.917-5.657-5.985-9.573-4.615-23.155 8.093-47.349 12.551-72.022 13.305v-32.439c51.842-1.846 98.919-22.7 134.467-55.795l23.019 23.019c-17.341 16.3-37.059 30.022-58.589 40.636-3.722 1.835-5.252 6.341-3.417 10.063s6.34 5.251 10.063 3.417c42.241-20.825 77.934-52.888 103.221-92.721 25.986-40.931 39.721-88.313 39.721-137.022 0-68.38-26.628-132.667-74.98-181.02zm27.384 173.505c-1.846-51.842-22.7-98.919-55.795-134.467l23.006-23.007c40.483 43.025 63.43 98.424 65.227 157.473h-32.438zm-208.404 201.04c-106.71 0-193.525-86.815-193.525-193.525 0-70.538 38.417-135.529 100.258-169.61 3.635-2.003 4.957-6.573 2.954-10.208s-6.573-4.959-10.208-2.954c-15.232 8.394-29.14 18.534-41.542 30.083l-22.925-22.926c43.025-40.484 98.424-63.431 157.473-65.228v32.433c-22.033.778-43.593 4.97-64.193 12.513-3.897 1.427-5.9 5.743-4.473 9.64 1.427 3.898 5.745 5.901 9.64 4.473 21.277-7.791 43.664-11.741 66.541-11.741 106.709 0 193.525 86.815 193.525 193.524s-86.816 193.526-193.525 193.526zm-240.843-186.01h32.439c1.846 51.842 22.7 98.919 55.795 134.467l-23.006 23.006c-40.484-43.025-63.431-98.424-65.228-157.473zm65.228-172.503 22.926 22.926c-33.706 36.258-53.904 83.855-55.727 134.547h-32.427c1.797-59.049 24.744-114.448 65.228-157.473zm33.633 317.597c35.548 33.095 82.625 53.949 134.467 55.795v32.439c-59.049-1.797-114.449-24.744-157.473-65.228zm283.964-305.218c-35.548-33.095-82.625-53.949-134.467-55.795v-32.439c59.049 1.797 114.448 24.744 157.473 65.227zm61.609 281.578c-8.206 12.926-17.576 24.982-27.959 36.035l-23.022-23.023c33.095-35.548 53.949-82.625 55.795-134.467h32.444c-1.335 43.2-14.142 85.043-37.258 121.455z"/><path d="m337.265 156.64s0 0-.001 0c-5.194-5.583-12.547-8.785-20.172-8.785h-122.184c-7.626 0-14.979 3.202-20.172 8.785l-48.05 51.643c-9.772 10.504-9.92 26.48-.343 37.162l109.141 121.74c5.219 5.822 12.697 9.161 20.516 9.161s15.296-3.339 20.516-9.161l109.141-121.74c9.577-10.682 9.43-26.659-.342-37.162zm-11.004 10.238 48.049 51.643c.23.247.441.505.648.766h-50.382l-30.318-56.402h22.833c3.467 0 6.809 1.455 9.17 3.993zm-49.066-3.993 30.318 56.402h-102.711l31.909-56.402zm-91.456 3.992c2.361-2.538 5.703-3.993 9.169-3.993h24.535l-31.909 56.402h-50.493c.207-.26.418-.518.648-.766zm-49.077 67.439h50.267l44.718 106.074-94.113-104.977c-.316-.353-.602-.721-.872-1.097zm143.691 106.073 19.048-45.182c1.612-3.824-.181-8.232-4.006-9.844-3.823-1.612-8.231.181-9.843 4.005l-29.552 70.099-52.761-125.152h105.521l-11.541 27.376c-1.613 3.824.181 8.231 4.005 9.844.954.402 1.943.592 2.917.592 2.931 0 5.717-1.727 6.928-4.597l14.003-33.214h50.266c-.269.376-.555.744-.871 1.097z"/></g></g></svg>