<svg id="Capa_1" enable-background="new 0 0 512 512" height="512" viewBox="0 0 512 512" width="512" xmlns="http://www.w3.org/2000/svg"><g><g><path d="m474.818 364.908v-217.816c0-10.784-5.753-20.748-15.092-26.14l-188.634-108.908c-9.339-5.392-20.845-5.392-30.184 0l-188.634 108.908c-9.339 5.392-15.092 15.356-15.092 26.14v217.816c0 10.784 5.753 20.748 15.092 26.14l188.635 108.908c9.339 5.392 20.845 5.392 30.184 0l188.635-108.908c9.337-5.392 15.09-15.356 15.09-26.14z" fill="#ff4755"/><path d="m459.726 373.048-188.634 108.908c-9.339 5.392-20.845 5.392-30.184 0l-188.634-108.908c-9.339-5.392-15.092-15.356-15.092-26.14v18c0 10.784 5.753 20.748 15.092 26.14l188.635 108.908c9.339 5.392 20.845 5.392 30.184 0l188.634-108.908c9.339-5.392 15.092-15.356 15.092-26.14v-18c-.001 10.784-5.754 20.748-15.093 26.14z" fill="#fc2b3a"/><path d="m434.789 359.224v-206.448l-178.789-103.224-178.789 103.224v206.448l178.789 103.224z" fill="#fff5f5"/><path d="m77.211 341.224v18l178.789 103.224 178.789-103.224v-18l-176.289 101.78c-1.547.893-3.453.893-5 0z" fill="#efe2dd"/><path d="m331.615 161.943 47.955 51.542c7.047 7.574 7.155 19.271.249 26.974l-108.927 121.502c-7.948 8.866-21.835 8.866-29.783 0l-108.928-121.502c-6.906-7.703-6.797-19.4.249-26.974l47.955-51.542c3.784-4.067 9.088-6.376 14.642-6.376h121.945c5.555-.001 10.859 2.309 14.643 6.376z" fill="#ff9838"/><path d="m379.819 222.459-108.927 121.502c-7.948 8.866-21.835 8.866-29.783 0l-108.928-121.502c-1.206-1.346-2.186-2.818-2.964-4.365-3.629 7.184-2.655 16.097 2.964 22.365l108.928 121.502c7.948 8.866 21.835 8.866 29.783 0l108.928-121.502c5.619-6.268 6.593-15.181 2.964-22.365-.779 1.546-1.758 3.019-2.965 4.365z" fill="#ff8709"/><g><path d="m192.042 226.858 40.333-71.292h-37.347c-5.555 0-10.859 2.31-14.643 6.376l-47.955 51.542c-3.507 3.77-5.293 8.561-5.353 13.373h64.965z" fill="#ffcb5b"/><path d="m127.075 226.884v.099z" fill="#8bcaff"/></g><g><path d="m384.925 226.981c0-.032 0-.064 0-.096z" fill="#8bcaff"/><path d="m319.958 226.858h64.965c-.06-4.812-1.846-9.604-5.353-13.373l-47.955-51.542c-3.784-4.067-9.088-6.376-14.643-6.376h-35.334z" fill="#ffcb5b"/></g><path d="m319.959 226.858h-127.918l59.547 141.248c2.904.653 5.92.653 8.824 0z" fill="#ffcb5b"/><path d="m241.629 344.482 9.959 23.624c2.904.653 5.92.653 8.824 0l9.959-23.624c-7.849 8.141-20.893 8.141-28.742 0z" fill="#f7b737"/></g><g><path d="m463.91 114.179-189.029-109.136c-11.647-6.724-26.117-6.724-37.762 0l-189.029 109.136c-11.646 6.724-18.881 19.255-18.881 32.703v218.272c0 13.448 7.235 25.979 18.881 32.703l189.029 109.136c11.277 6.537 26.02 6.815 37.762 0l82.947-47.889c3.594-2.075 4.826-6.672 2.751-10.267s-6.673-4.826-10.267-2.751l-82.947 47.889c-7.011 4.047-15.72 4.047-22.731 0l-189.029-109.136c-7.011-4.048-11.366-11.591-11.366-19.686v-218.271c0-8.095 4.355-15.638 11.366-19.686l189.03-109.136c7.011-4.048 15.72-4.048 22.731 0l189.029 109.136c7.011 4.048 11.366 11.591 11.366 19.686v218.272c0 8.095-4.355 15.638-11.366 19.686l-80.047 46.215c-3.594 2.075-4.826 6.672-2.751 10.266 2.077 3.595 6.673 4.827 10.267 2.751l80.047-46.215c11.646-6.723 18.881-19.255 18.881-32.703v-218.272c-.001-13.448-7.235-25.98-18.882-32.703z"/><path d="m155.33 98.582-82.251 47.487c-2.325 1.343-3.758 3.823-3.758 6.509v206.88c0 2.685 1.433 5.166 3.758 6.509l179.163 103.439c1.868 1 4.583 1.549 7.516 0l179.163-103.439c2.325-1.343 3.758-3.823 3.758-6.509v-206.88c0-2.685-1.433-5.166-3.758-6.509l-179.163-103.439c-2.325-1.343-5.191-1.343-7.516 0l-70.876 40.92c-3.594 2.075-4.826 6.672-2.751 10.267 2.076 3.596 6.675 4.827 10.266 2.751l67.119-38.751 171.647 99.1v198.201l-171.647 99.101-171.647-99.1v-198.202l78.493-45.318c3.594-2.075 4.826-6.672 2.751-10.267-2.077-3.594-6.674-4.826-10.267-2.75z"/><path d="m126.326 245.461 109.154 121.756c5.221 5.823 12.699 9.162 20.519 9.162s15.298-3.34 20.518-9.162l109.155-121.756c9.579-10.684 9.431-26.663-.342-37.167l-48.055-51.65s0 0-.001 0c-5.194-5.583-12.549-8.786-20.175-8.786h-35.344c-.028 0-.056 0-.084 0h-49.204c-.008 0-.015 0-.023 0h-37.544c-7.626 0-14.98 3.202-20.176 8.786l-48.055 51.65c-9.774 10.504-9.921 26.483-.343 37.167zm10.321-11.131h50.272l44.725 106.089-94.125-104.992c-.317-.352-.602-.721-.872-1.097zm140.551-71.44 30.322 56.409h-102.726l31.914-56.409zm3.159 177.528 20.097-47.67c1.613-3.825-.181-8.233-4.006-9.845-3.822-1.611-8.232.181-9.845 4.006l-30.603 72.59-52.768-125.169h105.536l-10.481 24.861c-3.515 9.326 9.619 14.654 13.851 5.839l12.943-30.701h50.273c-.269.376-.555.745-.871 1.097zm45.914-173.534 48.055 51.65c.23.247.442.506.648.766h-50.389l-30.322-56.409h22.837c3.466-.001 6.809 1.455 9.171 3.993zm-140.542 0c2.361-2.538 5.704-3.994 9.171-3.994h24.538l-31.913 56.409h-50.499c.207-.26.418-.518.648-.766z"/></g></g></svg>