<svg id="Capa_1" enable-background="new 0 0 512 512" height="512" viewBox="0 0 512 512" width="512" xmlns="http://www.w3.org/2000/svg"><g><g><path d="m233.475 453.769c13.313-10.117 31.738-10.117 45.05 0 19.375 14.724 47.435 7.206 56.852-15.233 6.47-15.418 22.427-24.63 39.015-22.525 24.141 3.064 44.683-17.478 41.619-41.619-2.105-16.588 7.107-32.544 22.525-39.015 2.06-.864 3.991-1.889 5.794-3.046l-66.531.154c13.941-22.155 22.014-48.375 22.014-76.485 0-28.541-8.314-55.14-22.652-77.507l64.918-.15c-1.138-.623-2.314-1.204-3.543-1.72-15.418-6.47-24.631-22.427-22.525-39.015 3.064-24.141-17.478-44.683-41.619-41.619-16.588 2.105-32.544-7.107-39.015-22.525-9.417-22.439-37.477-29.958-56.852-15.234-13.313 10.117-31.738 10.117-45.05 0-19.375-14.724-47.435-7.205-56.852 15.234-6.471 15.418-22.427 24.631-39.015 22.525-24.141-3.064-44.683 17.478-41.619 41.619 2.105 16.588-7.107 32.544-22.525 39.015-1.229.516-2.405 1.097-3.543 1.72l64.918.15c-14.338 22.367-22.652 48.966-22.652 77.507 0 28.11 8.073 54.33 22.015 76.485l-66.531-.154c1.803 1.157 3.734 2.182 5.794 3.046 15.418 6.471 24.631 22.427 22.525 39.015-3.064 24.141 17.478 44.683 41.619 41.619 16.588-2.105 32.544 7.107 39.015 22.525 9.416 22.439 37.476 29.957 56.851 15.233z" fill="#ffe27a"/><g><path d="m415.792 367.379c-3.232 19.002-21.035 33.216-41.4 30.631-16.588-2.105-32.544 7.107-39.015 22.525-9.417 22.439-37.477 29.958-56.852 15.233-13.313-10.117-31.738-10.117-45.05 0-19.375 14.724-47.435 7.206-56.852-15.233-6.471-15.418-22.427-24.63-39.015-22.525-20.365 2.585-38.168-11.629-41.4-30.631.144 2.308.081 4.653-.219 7.012-3.064 24.141 17.478 44.683 41.619 41.619 16.588-2.105 32.544 7.107 39.015 22.525 9.417 22.439 37.477 29.958 56.852 15.233 13.313-10.117 31.738-10.117 45.05 0 19.375 14.724 47.435 7.206 56.852-15.233 6.47-15.418 22.427-24.63 39.015-22.525 24.141 3.064 44.683-17.478 41.619-41.619-.3-2.358-.363-4.704-.219-7.012z" fill="#f9cf58"/></g><path d="m399.813 256c0 28.11-8.073 54.33-22.014 76.485l126.201-.314-29.798-76.998 29.798-76.995-126.84.315c14.339 22.367 22.653 48.966 22.653 77.507z" fill="#ff4755"/><path d="m112.187 256c0-28.541 8.314-55.14 22.652-77.507l-126.839-.315 29.798 76.995-29.798 76.998 126.202.314c-13.942-22.155-22.015-48.375-22.015-76.485z" fill="#ff4755"/><g><g><g><path d="m387.413 314.461c-2.788 6.254-5.999 12.279-9.615 18.024l126.202-.314-6.959-17.983z" fill="#fc2b3a"/></g></g></g><g><g><g><path d="m14.959 314.188-6.959 17.983 126.202.314c-3.616-5.745-6.827-11.77-9.615-18.024z" fill="#fc2b3a"/></g></g></g><g><g><ellipse cx="256" cy="256" fill="#ff9838" rx="143.813" ry="143.813" transform="matrix(.707 -.707 .707 .707 -106.039 256)"/></g></g><path d="m256 381.813c-76.402 0-138.877-59.581-143.524-134.813-.184 2.977-.288 5.976-.288 9 0 79.426 64.387 143.813 143.813 143.813s143.812-64.388 143.812-143.813c0-3.024-.105-6.023-.289-9-4.647 75.231-67.122 134.813-143.524 134.813z" fill="#ff8709"/><g><ellipse cx="256" cy="256" fill="#fff5f5" rx="105.58" ry="105.58" transform="matrix(.707 -.707 .707 .707 -106.039 256)"/></g><path d="m256 343.58c-55.278 0-100.627-42.484-105.195-96.581-.251 2.967-.386 5.968-.386 9 0 58.311 47.27 105.581 105.58 105.581s105.581-47.27 105.581-105.58c0-3.032-.135-6.033-.386-9-4.567 54.097-49.916 96.58-105.194 96.58z" fill="#efe2dd"/><path d="m265.686 201.246 9.868 19.994c1.573 3.188 4.615 5.397 8.133 5.909l22.065 3.206c8.859 1.287 12.397 12.175 5.986 18.424l-15.966 15.563c-2.546 2.481-3.707 6.057-3.106 9.56l3.769 21.976c1.513 8.824-7.748 15.552-15.672 11.386l-19.735-10.375c-3.147-1.654-6.906-1.654-10.053 0l-19.735 10.375c-7.924 4.166-17.185-2.563-15.672-11.386l3.769-21.976c.601-3.504-.561-7.079-3.106-9.56l-15.966-15.563c-6.411-6.249-2.873-17.136 5.986-18.424l22.065-3.206c3.518-.511 6.559-2.721 8.133-5.909l9.868-19.994c3.959-8.028 15.407-8.028 19.369 0z" fill="#ff4755"/><g><path d="m253.673 277.47-38.267 20.118c-.139 7.951 8.428 13.569 15.832 9.677l19.735-10.375c3.147-1.654 6.906-1.654 10.053 0l19.735 10.375c7.403 3.892 15.971-1.726 15.832-9.677l-38.267-20.118c-1.456-.766-3.196-.766-4.653 0z" fill="#fc2b3a"/></g></g><g><path d="m256 142.698c-62.475 0-113.302 50.827-113.302 113.302 0 4.15 3.365 7.515 7.515 7.515s7.515-3.364 7.515-7.515c0-54.188 44.085-98.272 98.272-98.272s98.272 44.085 98.272 98.272-44.084 98.273-98.272 98.273c-21.674 0-42.222-6.914-59.425-19.996-16.657-12.666-29.051-30.637-34.898-50.6-1.166-3.982-5.341-6.265-9.324-5.099-3.983 1.167-6.266 5.341-5.099 9.324 6.744 23.023 21.029 43.742 40.225 58.338 19.84 15.087 43.535 23.062 68.522 23.062 62.475 0 113.302-50.827 113.302-113.302-.001-62.475-50.828-113.302-113.303-113.302z"/><path d="m482.687 255.171 28.807-74.433c.896-2.315.591-4.922-.815-6.968-1.402-2.041-3.719-3.259-6.194-3.259-.006 0-.013 0-.019 0l-60.232.15c-.816-.404-1.625-.783-2.434-1.122-12.29-5.158-19.701-17.994-18.022-31.216 1.758-13.852-2.896-27.458-12.77-37.332-9.873-9.873-23.481-14.528-37.332-12.77-13.222 1.682-26.058-5.732-31.215-18.022-5.403-12.875-16.237-22.332-29.724-25.946-13.488-3.614-27.599-.841-38.716 7.608-1.574 1.196-3.27 2.238-5.04 3.096-3.734 1.81-5.295 6.305-3.484 10.04 1.81 3.735 6.306 5.293 10.04 3.484 2.663-1.291 5.213-2.857 7.578-4.655 7.388-5.615 16.767-7.46 25.732-5.056 8.964 2.402 16.164 8.687 19.756 17.244 7.76 18.491 27.072 29.638 46.966 27.116 9.208-1.169 18.25 1.925 24.812 8.487s9.656 15.606 8.487 24.812c-1.599 12.593 2.288 24.949 10.042 34.294l-37.523.093c-8.135-11.965-17.981-22.806-29.29-32.084-26.994-22.145-61.122-34.341-96.098-34.341-52.041 0-98.037 26.36-125.351 66.425l-37.561-.093c7.754-9.344 11.641-21.701 10.043-34.294-1.169-9.206 1.925-18.25 8.487-24.812 6.563-6.561 15.604-9.656 24.812-8.487 19.896 2.526 39.207-8.626 46.966-27.116 3.592-8.557 10.792-14.843 19.756-17.244 8.966-2.402 18.344-.559 25.732 5.056 3.16 2.402 6.62 4.372 10.285 5.857 3.842 1.556 8.227-.296 9.787-4.143 1.558-3.846-.296-8.228-4.143-9.787-2.433-.986-4.733-2.296-6.835-3.893-11.117-8.449-25.227-11.22-38.715-7.608-13.487 3.614-24.321 13.071-29.724 25.946-5.158 12.289-17.998 19.698-31.216 18.022-13.85-1.754-27.458 2.896-37.332 12.77s-14.527 23.48-12.77 37.332c1.678 13.222-5.732 26.058-18.023 31.216-.808.339-1.616.718-2.433 1.122l-60.232-.15c-.006 0-.012 0-.019 0-2.475 0-4.792 1.219-6.194 3.259-1.406 2.046-1.71 4.653-.815 6.968l28.807 74.433-28.804 74.438c-.893 2.309-.592 4.909.804 6.953 1.397 2.043 3.71 3.268 6.185 3.274l57.692.143c1.619.928 3.295 1.763 5.011 2.483 12.29 5.158 19.7 17.994 18.022 31.216-1.758 13.852 2.896 27.458 12.77 37.332 9.873 9.873 23.481 14.527 37.332 12.77 13.225-1.681 26.059 5.733 31.216 18.022 5.403 12.875 16.237 22.332 29.724 25.946 13.487 3.613 27.598.841 38.716-7.608 10.61-8.064 25.433-8.064 36.044 0 7.921 6.02 17.361 9.158 27.013 9.158 3.894 0 7.825-.511 11.703-1.55 13.487-3.614 24.321-13.071 29.724-25.946 5.158-12.289 18-19.7 31.216-18.022 13.853 1.76 27.459-2.896 37.332-12.77 9.873-9.873 14.527-23.48 12.77-37.332-1.679-13.222 5.732-26.058 18.022-31.215 1.717-.721 3.393-1.556 5.011-2.483l57.691-.143c2.476-.006 4.789-1.231 6.185-3.274 1.397-2.044 1.698-4.644.804-6.953zm-438.308 2.713c.675-1.745.675-3.68 0-5.425l-25.888-66.891 103.153.257c-11.011 20.996-17.253 44.869-17.253 70.176 0 24.869 6.02 48.358 16.678 69.088l-102.599-.256zm364.49 117.686c1.169 9.207-1.925 18.25-8.487 24.812-6.563 6.562-15.608 9.659-24.813 8.487-19.893-2.519-39.206 8.626-46.966 27.116-3.592 8.557-10.792 14.842-19.756 17.244-8.965 2.402-18.343.559-25.732-5.056-15.965-12.133-38.266-12.133-54.232 0-7.388 5.614-16.767 7.457-25.731 5.056-8.964-2.402-16.164-8.687-19.756-17.245-7.76-18.49-27.073-29.643-46.966-27.116-9.205 1.169-18.249-1.925-24.812-8.487-6.562-6.562-9.656-15.606-8.487-24.812 1.669-13.154-2.644-26.051-11.1-35.525l37.914.094c27.223 40.651 73.563 67.469 126.055 67.469s98.832-26.819 126.055-67.469l37.914-.094c-8.457 9.475-12.77 22.372-11.1 35.526zm-17.938-50.482c10.657-20.73 16.678-44.219 16.678-69.088 0-4.15-3.364-7.515-7.515-7.515-4.15 0-7.515 3.364-7.515 7.515 0 75.31-61.269 136.579-136.579 136.579s-136.579-61.269-136.579-136.579 61.269-136.579 136.579-136.579c31.51 0 62.252 10.985 86.566 30.931 23.988 19.68 40.704 47.134 47.07 77.304.857 4.061 4.845 6.659 8.904 5.801 4.061-.857 6.658-4.843 5.801-8.904-2.854-13.526-7.582-26.559-13.955-38.73l103.123-.256-25.888 66.891c-.675 1.745-.675 3.679 0 5.425l25.909 66.95z"/><path d="m317.092 254.146c5.034-4.908 6.813-12.111 4.64-18.797-2.173-6.687-7.845-11.469-14.803-12.48l-22.108-3.212c-1.077-.157-2.008-.833-2.49-1.81l-9.887-20.033c-3.112-6.305-9.413-10.222-16.444-10.222s-13.332 3.917-16.444 10.222l-9.887 20.034c-.482.976-1.413 1.653-2.49 1.809l-22.108 3.212c-6.958 1.011-12.63 5.793-14.803 12.48-2.173 6.686-.394 13.889 4.64 18.797l15.998 15.594c.78.76 1.135 1.854.951 2.927l-3.776 22.019c-1.188 6.93 1.607 13.802 7.295 17.935s13.088 4.667 19.311 1.396l19.773-10.396c.964-.507 2.116-.507 3.079 0l19.775 10.396c2.706 1.423 5.635 2.126 8.549 2.126 3.786 0 7.547-1.187 10.761-3.522 5.688-4.133 8.483-11.005 7.295-17.935l-3.776-22.019c-.184-1.073.171-2.167.951-2.928zm-26.488 4.831c-4.323 4.213-6.294 10.281-5.274 16.23l3.776 22.019c.302 1.764-.695 2.784-1.316 3.235-.622.452-1.902 1.084-3.483.252l-19.774-10.396c-2.671-1.404-5.602-2.107-8.533-2.107-2.93 0-5.861.702-8.533 2.107l-19.773 10.396c-1.586.832-2.863.2-3.483-.252-.621-.451-1.618-1.472-1.316-3.235l3.776-22.019c1.021-5.95-.951-12.017-5.274-16.231l-15.997-15.593c-1.281-1.249-1.074-2.66-.837-3.391.237-.73.9-1.994 2.67-2.251l22.108-3.212c5.973-.868 11.135-4.618 13.806-10.031l9.887-20.033c.792-1.604 2.198-1.844 2.966-1.844s2.174.24 2.966 1.844l9.887 20.033c2.671 5.413 7.833 9.163 13.806 10.031l22.108 3.212c1.771.257 2.433 1.521 2.67 2.251s.444 2.142-.837 3.391z"/></g></g></svg>