<svg id="Capa_1" enable-background="new 0 0 512 512" height="512" viewBox="0 0 512 512" width="512" xmlns="http://www.w3.org/2000/svg"><g><g><g><path d="m364.38 504h-216.76v-18.096c0-11.056 8.963-20.019 20.019-20.019h176.722c11.056 0 20.019 8.963 20.019 20.019z" fill="#ffcb5b"/><path d="m147.62 486h216.76v18h-216.76z" fill="#f7b737"/><path d="m308.86 404.987h-105.72c-8.869 0-16.68 5.835-19.196 14.34l-13.775 46.558h171.661l-13.775-46.558c-2.515-8.504-10.327-14.34-19.195-14.34z" fill="#ff9838"/><path d="m175.495 447.885-5.326 18h171.662l-5.326-18z" fill="#ff8709"/><path d="m234.131 198.013-13.602 206.974h70.942l-13.602-206.974z" fill="#ffe27a"/><path d="m217.239 162.477h77.522c9.813 0 17.768 7.955 17.768 17.768 0 9.813-7.955 17.768-17.768 17.768h-77.522c-9.813 0-17.768-7.955-17.768-17.768 0-9.813 7.955-17.768 17.768-17.768z" fill="#ff9838"/><path d="m279.052 216.013-1.183-18h-43.738l-1.183 18z" fill="#f9cf58"/><path d="m294.761 180.245h-77.522c-6.573 0-12.298-3.578-15.372-8.884-1.515 2.616-2.396 5.644-2.396 8.884 0 9.813 7.955 17.768 17.768 17.768h77.522c9.813 0 17.768-7.955 17.768-17.768 0-3.24-.881-6.269-2.397-8.884-3.073 5.306-8.798 8.884-15.371 8.884z" fill="#ff8709"/><path d="m122.251 8v27.244c0 59.445 38.786 109.824 92.428 127.233h82.641c53.643-17.409 92.428-67.788 92.428-127.233v-27.244z" fill="#ffe27a"/><path d="m178.826 144.477c10.867 7.69 22.927 13.805 35.854 18h82.641c12.927-4.195 24.987-10.31 35.854-18z" fill="#f9cf58"/></g></g><path d="m397.525 34.812v-27.297c0-4.15-3.365-7.515-7.515-7.515h-268.02c-4.15 0-7.515 3.365-7.515 7.515v27.297c0 13.206 1.819 26.282 5.406 38.866 1.138 3.991 5.298 6.305 9.287 5.167 3.991-1.138 6.304-5.296 5.166-9.287-3.205-11.243-4.83-22.934-4.83-34.745v-19.784h252.991v19.782c0 54.663-34.7 102.747-86.444 119.998-.402-.019-.807-.031-1.214-.031h-77.674c-.415 0-.828.012-1.238.031-30.218-10.082-55.328-31.003-70.778-59.02-2.003-3.635-6.576-4.957-10.209-2.951-3.635 2.004-4.956 6.575-2.952 10.209 14.944 27.099 37.973 48.262 65.792 60.787-3.699 4.403-5.933 10.075-5.933 16.262 0 13.96 11.357 25.318 25.317 25.318h8.901l-12.642 192.35h-10.386c-12.127 0-22.999 8.122-26.44 19.751l-12.263 41.449c-13.733 1.561-24.44 13.246-24.44 27.39v18.132c0 4.15 3.365 7.515 7.515 7.515h217.184c4.15 0 7.515-3.365 7.515-7.515v-18.132c0-14.144-10.707-25.829-24.44-27.39l-12.263-41.449c-3.441-11.629-14.313-19.751-26.44-19.751h-10.386l-5.829-88.691c-.272-4.141-3.854-7.276-7.991-7.006-4.141.272-7.278 3.85-7.006 7.991l5.764 87.706h-55.032l12.641-192.35h29.749l4.905 74.634c.261 3.974 3.565 7.023 7.491 7.023.165 0 .333-.006.5-.017 4.141-.272 7.278-3.85 7.006-7.991l-4.84-73.649h8.901c13.96 0 25.318-11.357 25.318-25.318 0-6.184-2.232-11.855-5.928-16.256 50.398-22.655 83.299-72.726 83.299-129.028zm-76.534 386.967 10.947 37.002h-87.95c-4.15 0-7.515 3.365-7.515 7.515s3.365 7.515 7.515 7.515h100.545c6.916 0 12.544 5.627 12.544 12.543v10.617h-202.154v-10.617c0-6.916 5.627-12.543 12.543-12.543h46.463c4.15 0 7.515-3.365 7.515-7.515s-3.364-7.515-7.515-7.515h-33.868l10.947-37.002c1.565-5.291 6.511-8.985 12.028-8.985h105.927c5.517-.001 10.463 3.694 12.028 8.985zm-26.154-231.394h-77.674c-5.673 0-10.288-4.615-10.288-10.288s4.615-10.289 10.288-10.289h77.674c5.673 0 10.288 4.616 10.288 10.289s-4.615 10.288-10.288 10.288z"/></g></svg>