<svg id="Capa_1" enable-background="new 0 0 512 512" height="512" viewBox="0 0 512 512" width="512" xmlns="http://www.w3.org/2000/svg"><g><g><path d="m377.435 504h-242.87v-16.229c0-9.915 8.038-17.953 17.953-17.953h206.963c9.915 0 17.953 8.038 17.953 17.953v16.229z" fill="#5a5a5a"/><path d="m134.654 486c-.057.583-.089 1.173-.089 1.771v16.229h242.87v-16.229c0-.598-.032-1.188-.089-1.771z" fill="#4c4c4c"/><path d="m317.172 350.571h-122.344c-13.679 0-25.253 10.111-27.089 23.666l-12.951 95.58h202.424l-12.951-95.58c-1.837-13.555-13.41-23.666-27.089-23.666z" fill="#e0e0e0"/><path d="m157.227 451.817-2.439 18h202.424l-2.439-18z" fill="#cecece"/><path d="m256 298.354c-12.089 0-23.829-1.487-35.057-4.272l-4.307 56.489h78.727l-4.307-56.489c-11.227 2.784-22.967 4.272-35.056 4.272z" fill="#9e9e9e"/><g><ellipse cx="256" cy="153.177" fill="#e0e0e0" rx="145.177" ry="145.177" transform="matrix(.707 -.707 .707 .707 -33.332 225.884)"/></g><path d="m256 316.353c12.572 0 24.77-1.599 36.404-4.604l-1.347-17.668c-11.228 2.785-22.968 4.272-35.057 4.272s-23.829-1.487-35.057-4.272l-1.347 17.668c11.634 3.005 23.832 4.604 36.404 4.604z" fill="#898989"/><path d="m256 280.353c-77.155 0-140.242-60.191-144.891-136.177-.182 2.978-.286 5.977-.286 9 0 80.179 64.998 145.177 145.177 145.177s145.177-64.998 145.177-145.177c0-3.023-.104-6.022-.286-9-4.649 75.986-67.736 136.177-144.891 136.177z" fill="#cecece"/><ellipse cx="152.611" cy="153.177" fill="#fff5f5" rx="41.787" ry="101.904"/><ellipse cx="359.389" cy="153.177" fill="#fff5f5" rx="41.787" ry="101.904"/><g fill="#efe2dd"><path d="m350.591 245.303c2.787 3.39 5.72 6.655 8.798 9.777 25.837-26.211 41.788-62.192 41.788-101.904 0-3.023-.104-6.021-.286-8.999-2.472 40.399-21.457 76.33-50.3 101.126z"/><path d="m111.109 144.178c-.182 2.977-.286 5.976-.286 8.999 0 39.712 15.951 75.693 41.788 101.904 3.078-3.122 6.011-6.388 8.798-9.777-28.843-24.797-47.828-60.728-50.3-101.126z"/></g></g><path d="m256 0c-29.739 0-58.574 8.543-83.388 24.705-24.168 15.742-43.343 37.86-55.453 63.962-1.747 3.765-.11 8.233 3.655 9.979 3.764 1.746 8.232.11 9.979-3.655 5.652-12.182 12.979-23.282 21.627-33.079 10.105 11.469 18.126 24.353 23.866 38.181l-8.101 2.733c-3.932 1.327-6.045 5.59-4.718 9.522 1.437 3.596 5.176 6.112 9.522 4.718l8.281-2.794c2.929 10.068 4.715 20.516 5.286 31.186h-11.509c-4.15 0-7.515 3.364-7.515 7.515 0 4.15 3.365 7.515 7.515 7.515h11.509c-.571 10.669-2.356 21.117-5.286 31.186l-8.281-2.794c-3.931-1.326-8.196.785-9.522 4.718-1.327 3.933.786 8.196 4.718 9.523l8.101 2.733c-5.734 13.816-13.747 26.689-23.839 38.15-21.395-24.309-34.393-56.178-34.393-91.03 0-10.474 1.178-20.911 3.5-31.02.929-4.045-1.596-8.077-5.641-9.006-4.043-.928-8.077 1.596-9.006 5.641-2.576 11.211-3.882 22.78-3.882 34.385 0 69.394 46.449 128.134 109.886 146.787l-3.315 43.478h-14.887c-17.385 0-32.254 12.991-34.589 30.218l-12.147 89.639c-12 2.068-21.161 12.544-21.161 25.125v16.261c0 4.15 3.365 7.515 7.515 7.515h243.345c4.151 0 7.515-3.365 7.515-7.515v-16.261c0-12.582-9.161-23.058-21.161-25.126l-12.146-89.64c-2.334-17.227-17.203-30.218-34.588-30.218h-14.887l-3.316-43.496c42.633-12.523 78.553-43.268 97.013-85.254 1.671-3.799-.055-8.233-3.854-9.904-3.799-1.669-8.234.055-9.903 3.855-5.802 13.195-13.531 25.145-22.746 35.614-10.113-11.474-18.141-24.365-23.883-38.201l8.101-2.733c3.932-1.327 6.045-5.59 4.718-9.523-1.327-3.932-5.588-6.044-9.523-4.718l-8.281 2.794c-2.929-10.068-4.715-20.517-5.286-31.186h11.509c4.151 0 7.515-3.365 7.515-7.515s-3.364-7.515-7.515-7.515h-11.509c.571-10.669 2.356-21.117 5.286-31.186l8.281 2.794c3.079 1.271 8.341-.707 9.523-4.718 1.327-3.933-.786-8.196-4.718-9.522l-8.101-2.733c5.734-13.816 13.747-26.689 23.838-38.15 21.395 24.309 34.393 56.178 34.393 91.03 0 9.534-.977 19.055-2.903 28.299-.847 4.063 1.76 8.043 5.823 8.89.518.108 1.032.16 1.541.16 3.484 0 6.61-2.437 7.348-5.983 2.137-10.251 3.22-20.804 3.22-31.366 0-84.345-68.625-152.97-152.976-152.97zm80.987 375.477 11.822 87.244h-104.821c-4.15 0-7.515 3.365-7.515 7.515s3.365 7.515 7.515 7.515h115.696c5.775 0 10.473 4.699 10.473 10.474v8.747h-228.315v-8.747c0-5.775 4.699-10.474 10.474-10.474h61.613c4.15 0 7.515-3.365 7.515-7.515s-3.365-7.515-7.515-7.515h-50.738l11.822-87.244c1.329-9.809 9.796-17.206 19.695-17.206h122.583c9.9 0 18.367 7.397 19.696 17.206zm-49.656-32.236h-62.661l3.044-39.923c9.171 1.722 18.624 2.633 28.287 2.633 9.605 0 19.065-.905 28.286-2.64zm18.821-237.257 10.318 3.481c-3.428 11.605-5.487 23.67-6.081 35.996h-11.108c-4.151 0-7.515 3.364-7.515 7.515 0 4.15 3.364 7.515 7.515 7.515h11.108c.594 12.326 2.653 24.391 6.081 35.996l-10.318 3.481c-3.932 1.327-6.045 5.59-4.718 9.523 1.437 3.596 5.176 6.112 9.523 4.718l10.479-3.535c6.528 16.035 15.808 30.948 27.6 44.136-24.96 22.775-57.936 36.112-93.036 36.112-35.8 0-68.455-13.711-92.999-36.153 11.774-13.178 21.042-28.077 27.563-44.095l10.479 3.535c3.078 1.271 8.341-.707 9.523-4.718 1.327-3.932-.786-8.196-4.718-9.523l-10.317-3.48c3.428-11.605 5.487-23.671 6.081-35.996h11.108c4.15 0 7.515-3.365 7.515-7.515s-3.365-7.515-7.515-7.515h-11.108c-.594-12.326-2.652-24.392-6.081-35.997l10.317-3.48c3.932-1.327 6.045-5.59 4.718-9.522-1.326-3.933-5.589-6.043-9.523-4.718l-10.479 3.535c-6.521-16.021-15.789-30.92-27.564-44.099 25.02-22.782 58.075-36.152 93-36.152 35.8 0 68.455 13.711 92.999 36.154-11.774 13.179-21.042 28.077-27.563 44.095l-10.479-3.535c-3.933-1.325-8.196.786-9.523 4.718-1.327 3.933.785 8.196 4.718 9.523z"/></g></svg>