<svg id="Capa_1" enable-background="new 0 0 512 512" height="512" viewBox="0 0 512 512" width="512" xmlns="http://www.w3.org/2000/svg"><g><g><path d="m474.818 364.908v-217.816c0-10.784-5.753-20.748-15.092-26.14l-188.634-108.908c-9.339-5.392-20.845-5.392-30.184 0l-188.634 108.908c-9.339 5.392-15.092 15.356-15.092 26.14v217.816c0 10.784 5.753 20.748 15.092 26.14l188.635 108.908c9.339 5.392 20.845 5.392 30.184 0l188.635-108.908c9.337-5.392 15.09-15.356 15.09-26.14z" fill="#ff4755"/><path d="m459.726 373.048-188.634 108.908c-9.339 5.392-20.845 5.392-30.184 0l-188.634-108.908c-9.339-5.392-15.092-15.356-15.092-26.14v18c0 10.784 5.753 20.748 15.092 26.14l188.634 108.908c9.339 5.392 20.845 5.392 30.184 0l188.635-108.908c9.339-5.392 15.092-15.356 15.092-26.14v-18c-.001 10.784-5.754 20.748-15.093 26.14z" fill="#fc2b3a"/><path d="m434.789 359.224v-206.448l-178.789-103.224-178.789 103.224v206.448l178.789 103.224z" fill="#fff5f5"/><path d="m77.211 341.224v18l178.789 103.224 178.789-103.224v-18l-176.289 101.78c-1.547.893-3.453.893-5 0z" fill="#efe2dd"/><path d="m145.012 198.402h221.976v37.633h-221.976z" fill="#ffe27a"/><path d="m145.012 218.035h221.976v18h-221.976z" fill="#f9cf58"/><path d="m354.066 236.035h-196.132v102.555c0 11.046 8.954 20 20 20h156.132c11.046 0 20-8.954 20-20z" fill="#ffcb5b"/><path d="m157.934 236.035h196.132v18h-196.132z" fill="#f7b737"/><path d="m324.383 139.435c-15.615-4.386-40.152 16.537-52.234 28.123 1.214 1.229 1.964 2.916 1.964 4.779v26.065h60.079s11.559-52.964-9.809-58.967z" fill="#ff4755"/><path d="m274.113 180.402v18h60.079s1.73-7.93 2.614-18z" fill="#fc2b3a"/><path d="m239.848 167.556c-12.083-11.586-36.617-32.506-52.231-28.12-21.368 6.002-9.809 58.967-9.809 58.967h60.073v-26.065c0-1.865.752-3.554 1.967-4.782z" fill="#ff4755"/><path d="m175.194 180.402c.884 10.07 2.614 18 2.614 18h60.073v-18z" fill="#fc2b3a"/><path d="m274.113 198.402h-36.232v-26.065c0-3.757 3.046-6.803 6.803-6.803h22.626c3.757 0 6.803 3.046 6.803 6.803z" fill="#c61926"/><path d="m237.881 180.402h36.232v18h-36.232z" fill="#b2182b"/></g><g><path d="m137.252 198.321v37.715c0 4.151 3.365 7.517 7.516 7.517h5.434v30.541c0 4.151 3.365 7.517 7.517 7.517s7.516-3.365 7.516-7.517v-30.541h83.249v107.791h-70.721c-6.908 0-12.527-5.62-12.527-12.527v-34.657c0-4.151-3.365-7.516-7.516-7.516-4.152 0-7.517 3.365-7.517 7.516v34.657c0 15.197 12.364 27.56 27.56 27.56h156.476c15.196 0 27.56-12.363 27.56-27.56v-95.263h5.434c4.152 0 7.516-3.365 7.516-7.517v-37.715c0-4.151-3.365-7.516-7.516-7.516h-23.921c.778-5.298 1.569-12.352 1.683-19.659.35-22.45-5.85-35.624-18.429-39.158-16.766-4.709-38.849 10.904-55.681 26.34-1.137-.291-2.322-.463-3.549-.463h-22.676c-1.226 0-2.409.171-3.546.462-16.832-15.434-38.92-31.045-55.68-26.339-12.579 3.534-18.779 16.708-18.429 39.158.114 7.306.905 14.361 1.683 19.659h-23.921c-4.151-.002-7.515 3.363-7.515 7.515zm209.513 140.495c0 6.908-5.62 12.527-12.527 12.527h-70.721v-107.79h83.249v95.263zm12.951-110.296h-96.199v-22.682h70.827c.009 0 .018.001.027.001.006 0 .011-.001.017-.001h25.328zm-114.358-55.623h21.279v17.907h-21.279zm77.142-26.437c4.866 1.367 7.656 10.437 7.467 24.263-.105 7.621-1.073 15.111-1.871 20.081h-46.426v-18.606c0-1.049-.121-2.07-.336-3.056 17.798-16.256 33.342-24.881 41.166-22.682zm-140.467 24.264c-.19-13.826 2.6-22.896 7.467-24.263 7.824-2.201 23.366 6.425 41.162 22.677-.216.987-.337 2.01-.337 3.061v18.606h-46.421c-.798-4.971-1.766-12.46-1.871-20.081zm-29.749 35.113h96.199v22.682h-96.199z"/><path d="m463.932 114.191-189.049-109.147c-11.649-6.725-26.12-6.725-37.766 0l-189.049 109.147c-11.648 6.724-18.883 19.257-18.883 32.707v218.295c0 13.449 7.236 25.982 18.883 32.706l189.049 109.147c10.721 6.159 25.6 7.037 37.766 0l82.956-47.895c3.595-2.075 4.827-6.672 2.751-10.268-2.075-3.595-6.675-4.827-10.268-2.751l-82.956 47.895c-7.012 4.048-15.722 4.048-22.733 0l-189.049-109.147c-7.011-4.048-11.367-11.592-11.367-19.688v-218.295c0-8.096 4.355-15.64 11.367-19.688l189.049-109.147c7.011-4.048 15.722-4.048 22.733 0l189.05 109.148c7.011 4.048 11.367 11.592 11.367 19.688v218.295c0 8.096-4.355 15.64-11.367 19.688l-80.055 46.22c-3.595 2.075-4.827 6.672-2.751 10.268 2.077 3.596 6.674 4.827 10.268 2.751l80.055-46.22c11.648-6.724 18.883-19.257 18.883-32.706v-218.297c-.001-13.449-7.236-25.982-18.884-32.706z"/><path d="m155.319 98.592-82.259 47.493c-2.325 1.343-3.758 3.824-3.758 6.509v206.902c0 2.686 1.433 5.167 3.758 6.509l179.182 103.45c1.868 1 4.584 1.549 7.516 0l179.182-103.45c2.325-1.343 3.758-3.824 3.758-6.509v-206.902c0-2.685-1.433-5.167-3.758-6.509l-179.182-103.451c-2.325-1.343-5.191-1.343-7.516 0l-70.884 40.925c-3.595 2.075-4.827 6.672-2.751 10.268 2.075 3.596 6.675 4.827 10.268 2.751l67.125-38.755 171.665 99.111v198.223l-171.665 99.11-171.665-99.111v-198.222l78.501-45.322c3.595-2.075 4.827-6.672 2.751-10.268-2.077-3.596-6.674-4.828-10.268-2.752z"/></g></g></svg>