<svg id="Capa_1" enable-background="new 0 0 512 512" height="512" viewBox="0 0 512 512" width="512" xmlns="http://www.w3.org/2000/svg"><g><g><path d="m256 8c-136.967 0-248 111.033-248 248s111.033 248 248 248 248-111.033 248-248z" fill="#98db7c"/><path d="m256 486c-133.952 0-243.081-106.205-247.82-239-.107 2.988-.18 5.986-.18 9 0 136.967 111.033 248 248 248s248-111.033 248-248l-.616-.616c-8.924 128.854-116.263 230.616-247.384 230.616z" fill="#82d361"/><path d="m256 8 248 248c-136.967 0-248-111.033-248-248z" fill="#609e3f"/><path d="m272.889 24.889-16.889-16.889c0 136.967 111.033 248 248 248l-13.145-13.145c-114.264-13.032-204.935-103.703-217.966-217.966z" fill="#548736"/><path d="m456.59 251.454c-98.937-19.155-176.888-97.107-196.044-196.044-1.512-.034-3.026-.057-4.546-.057-110.814 0-200.647 89.833-200.647 200.647s89.833 200.647 200.647 200.647 200.647-89.833 200.647-200.647c0-1.52-.023-3.034-.057-4.546z" fill="#ffcb5b"/><path d="m456.192 251.373c-6.883 104.577-93.873 187.274-200.192 187.274-107.797 0-195.727-85.011-200.436-191.647-.132 2.985-.211 5.983-.211 9 0 110.814 89.832 200.647 200.647 200.647s200.647-89.833 200.647-200.647c0-1.52-.023-3.034-.057-4.546-.133-.026-.265-.055-.398-.081z" fill="#f7b737"/><path d="m274.559 150.812 18.907 38.31c3.015 6.108 8.842 10.342 15.583 11.322l42.277 6.143c16.975 2.467 23.753 23.327 11.47 35.301l-30.592 29.82c-4.878 4.755-7.103 11.605-5.952 18.319l7.222 42.106c2.9 16.907-14.846 29.799-30.029 21.817l-37.814-19.88c-6.029-3.17-13.232-3.17-19.261 0l-37.814 19.88c-15.183 7.982-32.928-4.91-30.029-21.817l7.222-42.106c1.152-6.714-1.074-13.564-5.952-18.319l-30.592-29.82c-12.283-11.973-5.505-32.834 11.47-35.301l42.277-6.143c6.741-.979 12.568-5.213 15.583-11.322l18.907-38.31c7.591-15.382 29.525-15.382 37.117 0z" fill="#ff4755"/><g><path d="m253.673 312.23-70.36 36.99c5.92 6.734 16.047 9.564 25.242 4.729l37.814-19.88c6.029-3.17 13.232-3.17 19.261 0l37.814 19.88c9.195 4.834 19.322 2.004 25.242-4.729l-70.36-36.99c-1.456-.766-3.196-.766-4.653 0z" fill="#fc2b3a"/></g></g><path d="m511.962 255.25c-.177-1.358-.672-3.098-2.163-4.563l-117.035-117.035c-2.935-2.934-7.693-2.935-10.628 0-2.934 2.934-2.934 7.693 0 10.627l103.475 103.474c-57.252-4.407-110.482-28.811-151.518-69.846-41.035-41.035-65.439-94.266-69.846-151.518l96.64 96.641c2.934 2.935 7.692 2.935 10.628 0 2.934-2.934 2.934-7.693 0-10.627l-110.201-110.202c-1.249-1.122-2.83-2.201-5.314-2.201-68.381 0-132.667 26.629-181.02 74.98-48.352 48.353-74.98 112.64-74.98 181.02s26.628 132.667 74.98 181.02c48.353 48.351 112.639 74.98 181.02 74.98 38.212 0 74.975-8.218 109.266-24.425 3.752-1.773 5.356-6.253 3.582-10.005-1.774-3.753-6.254-5.356-10.005-3.583-32.267 15.251-66.869 22.984-102.843 22.984-64.366 0-124.879-25.065-170.392-70.579-45.513-45.513-70.579-106.026-70.579-170.392s25.066-124.879 70.579-170.392c43.766-43.766 101.407-68.609 163.001-70.454.318 10.915 1.32 21.711 2.978 32.343-38.894.812-76.514 12.349-109.064 33.496-3.48 2.261-4.469 6.915-2.207 10.395 2.025 2.228 5.187 4.974 10.395 2.207 30.887-20.066 66.7-30.801 103.671-31.106 10.319 47.395 33.965 90.925 69.084 126.044 2.533 2.533 5.114 4.998 7.732 7.411l-20.965-3.047c-4.307-.626-8.028-3.33-9.955-7.233l-18.944-38.385c-4.795-9.714-14.502-15.748-25.334-15.748s-20.539 6.034-25.334 15.748l-18.944 38.385c-1.927 3.903-5.648 6.607-9.955 7.233l-42.359 6.156c-10.72 1.557-19.459 8.925-22.806 19.227-3.348 10.302-.609 21.399 7.148 28.961l30.653 29.878c3.116 3.039 4.538 7.414 3.803 11.703l-7.237 42.189c-1.832 10.677 2.475 21.264 11.239 27.631s20.164 7.189 29.753 2.15l37.887-19.919c3.853-2.026 8.454-2.026 12.305 0l37.888 19.919c4.171 2.193 8.683 3.275 13.174 3.275 5.832 0 11.627-1.828 16.578-5.426 8.763-6.367 13.07-16.954 11.239-27.632l-7.237-42.188c-.735-4.29.687-8.665 3.803-11.703l30.653-29.878c4.98-4.855 7.884-11.169 8.445-17.793 22.66 13.092 47.167 22.585 72.809 28.169-.875 105.968-87.336 191.909-193.505 191.909-106.709 0-193.525-86.815-193.525-193.525 0-55.335 23.768-108.139 65.21-144.873 3.106-2.753 3.392-7.502.639-10.609-2.752-3.106-7.501-3.391-10.608-.639-44.657 39.585-70.27 96.488-70.27 156.121 0 114.997 93.557 208.554 208.554 208.554 113.522 0 206.14-91.174 208.498-204.141 10.637 1.659 21.437 2.662 32.356 2.979-1.193 38.892-11.777 77.045-30.798 110.78-19.614 34.789-47.851 64.451-81.658 85.779-3.51 2.215-4.561 6.856-2.345 10.365 1.96 2.236 5.174 5.046 10.365 2.346 35.905-22.654 65.896-54.159 86.73-91.11 21.492-38.117 32.852-81.533 32.852-125.552 0-.252-.013-.502-.038-.75zm-150.857-32.325c1.591 4.895.34 9.961-3.345 13.554l-30.653 29.879c-6.659 6.492-9.697 15.84-8.124 25.005l7.237 42.188c.87 5.072-1.097 9.907-5.26 12.932-4.163 3.024-9.37 3.4-13.925 1.006l-37.888-19.919c-4.116-2.163-8.63-3.246-13.146-3.246-4.515 0-9.03 1.082-13.147 3.246l-37.887 19.919c-4.554 2.394-9.76 2.02-13.925-1.006-4.163-3.025-6.13-7.86-5.26-12.931l7.237-42.189c1.572-9.165-1.465-18.513-8.124-25.005l-30.653-29.878c-3.686-3.592-4.936-8.659-3.345-13.554 1.59-4.894 5.58-8.258 10.673-8.998l42.359-6.156c9.204-1.337 17.156-7.114 21.272-15.454l18.944-38.385c2.278-4.615 6.71-7.37 11.856-7.37s9.578 2.755 11.856 7.37l18.944 38.385c4.116 8.34 12.068 14.117 21.272 15.454l42.359 6.156c2.984.29 8.64 2.957 10.673 8.997z"/></g></svg>