<svg id="Capa_1" enable-background="new 0 0 510.967 510.967" height="512" viewBox="0 0 510.967 510.967" width="512" xmlns="http://www.w3.org/2000/svg"><g><g><path d="m474.301 364.391v-217.816c0-10.784-5.753-20.748-15.092-26.14l-188.634-108.908c-9.339-5.392-20.845-5.392-30.184 0l-188.634 108.908c-9.339 5.392-15.092 15.356-15.092 26.14v217.816c0 10.784 5.753 20.748 15.092 26.14l188.635 108.908c9.339 5.392 20.845 5.392 30.184 0l188.634-108.908c9.339-5.392 15.091-15.356 15.091-26.14z" fill="#ff4755"/><path d="m459.21 372.531-188.635 108.908c-9.339 5.392-20.845 5.392-30.184 0l-188.634-108.908c-9.339-5.392-15.092-15.356-15.092-26.14v18c0 10.784 5.753 20.748 15.092 26.14l188.635 108.908c9.339 5.392 20.845 5.392 30.184 0l188.634-108.908c9.339-5.392 15.092-15.356 15.092-26.14v-18c-.001 10.784-5.753 20.748-15.092 26.14z" fill="#fc2b3a"/><path d="m434.272 358.707v-206.448l-178.789-103.223-178.789 103.223v206.448l178.789 103.224z" fill="#fff5f5"/><path d="m76.694 340.707v18l178.789 103.224 178.789-103.224v-18l-176.289 101.78c-1.547.893-3.453.893-5 0z" fill="#efe2dd"/><path d="m274.042 150.296 18.907 38.31c3.015 6.108 8.842 10.342 15.583 11.322l42.277 6.143c16.975 2.467 23.753 23.327 11.47 35.301l-30.592 29.82c-4.878 4.755-7.103 11.605-5.952 18.319l7.222 42.106c2.9 16.906-14.846 29.799-30.029 21.817l-37.814-19.88c-6.029-3.17-13.232-3.17-19.261 0l-37.814 19.88c-15.183 7.982-32.928-4.91-30.029-21.817l7.222-42.106c1.151-6.714-1.074-13.564-5.952-18.319l-30.592-29.82c-12.283-11.973-5.505-32.834 11.47-35.301l42.277-6.143c6.741-.98 12.568-5.213 15.583-11.322l18.907-38.31c7.591-15.383 29.526-15.383 37.117 0z" fill="#ffcb5b"/><g><path d="m253.157 311.713-70.36 36.991c5.92 6.734 16.047 9.564 25.242 4.729l37.814-19.88c6.029-3.17 13.232-3.17 19.261 0l37.814 19.88c9.195 4.834 19.323 2.005 25.242-4.729l-70.36-36.991c-1.457-.766-3.197-.766-4.653 0z" fill="#f7b737"/></g></g><g><path d="m312.585 363.34c-4.482.001-8.985-1.08-13.148-3.268l-37.814-19.88c-3.845-2.021-8.436-2.021-12.28 0l-37.814 19.88c-9.57 5.031-20.948 4.208-29.694-2.147-8.747-6.354-13.044-16.921-11.217-27.576l7.222-42.106c.734-4.282-.685-8.648-3.795-11.681l-30.591-29.819c-7.742-7.547-10.476-18.622-7.135-28.904s12.062-17.635 22.761-19.189l42.277-6.143c4.299-.625 8.013-3.323 9.936-7.219l18.907-38.309c4.785-9.694 14.473-15.717 25.284-15.717s20.499 6.022 25.284 15.717l18.907 38.309c1.922 3.896 5.637 6.594 9.936 7.219l42.277 6.143c10.699 1.555 19.42 8.907 22.761 19.189s.607 21.357-7.134 28.903l-30.592 29.82c-3.11 3.032-4.529 7.398-3.795 11.681.7 4.082-2.042 7.96-6.125 8.659-4.079.704-7.96-2.042-8.66-6.124-1.569-9.148 1.462-18.479 8.109-24.957l30.592-29.821c3.678-3.585 4.926-8.642 3.339-13.527s-5.569-8.241-10.652-8.98l-42.277-6.144c-9.185-1.335-17.122-7.101-21.229-15.424l-18.907-38.31c-2.273-4.605-6.697-7.355-11.833-7.355s-9.56 2.75-11.833 7.355l-18.907 38.31c-4.108 8.323-12.044 14.089-21.23 15.424l-42.277 6.144c-5.083.739-9.065 4.096-10.652 8.98-1.587 4.886-.339 9.942 3.339 13.528l30.591 29.818c6.647 6.479 9.678 15.81 8.109 24.958l-7.222 42.107c-.868 5.063 1.094 9.887 5.249 12.906 4.156 3.018 9.35 3.394 13.897 1.004l37.814-19.88c8.216-4.318 18.025-4.32 26.241 0l37.814 19.88c4.546 2.39 9.742 2.016 13.897-1.004s6.117-7.844 5.249-12.906l-2.149-12.529c-.7-4.082 2.042-7.959 6.125-8.659 4.079-.707 7.96 2.041 8.66 6.124l2.149 12.529c1.828 10.655-2.47 21.222-11.217 27.576-4.942 3.59-10.725 5.415-16.547 5.415z"/><path d="m255.483 510.967c-6.516 0-13.031-1.677-18.842-5.032l-188.634-108.909c-11.621-6.709-18.841-19.215-18.841-32.635v-217.816c0-13.42 7.22-25.926 18.841-32.635l188.635-108.908c11.623-6.709 26.063-6.71 37.684 0l188.634 108.908c11.622 6.71 18.841 19.215 18.841 32.635v217.816c0 13.42-7.22 25.925-18.841 32.635l-79.88 46.118c-3.587 2.069-8.173.843-10.245-2.745-2.071-3.587-.842-8.174 2.745-10.245l79.88-46.118c6.996-4.039 11.341-11.566 11.341-19.645v-217.816c0-8.078-4.346-15.605-11.341-19.645l-188.635-108.908c-6.996-4.039-15.687-4.039-22.684 0l-188.634 108.909c-6.996 4.039-11.341 11.566-11.341 19.645v217.816c0 8.078 4.346 15.605 11.341 19.645l188.635 108.908c6.996 4.039 15.688 4.039 22.684 0l82.774-47.789c3.587-2.07 8.174-.842 10.245 2.745s.842 8.174-2.745 10.245l-82.774 47.789c-5.812 3.354-12.328 5.032-18.843 5.032z"/><path d="m255.483 469.431c-1.295 0-2.59-.335-3.75-1.005l-178.789-103.224c-2.32-1.34-3.75-3.815-3.75-6.495v-206.447c0-2.68 1.43-5.155 3.75-6.495l82.08-47.389c3.587-2.07 8.174-.843 10.245 2.745 2.071 3.587.842 8.174-2.745 10.245l-78.33 45.224v197.787l171.289 98.893 171.289-98.893v-197.787l-171.289-98.894-66.979 38.67c-3.587 2.07-8.174.842-10.245-2.745s-.842-8.174 2.745-10.245l70.729-40.835c2.32-1.34 5.18-1.34 7.5 0l178.789 103.224c2.32 1.34 3.75 3.815 3.75 6.495v206.447c0 2.68-1.43 5.155-3.75 6.495l-178.789 103.224c-1.16.67-2.455 1.005-3.75 1.005z"/></g></g></svg>