<svg id="Capa_1" enable-background="new 0 0 512 512" height="512" viewBox="0 0 512 512" width="512" xmlns="http://www.w3.org/2000/svg"><g><g><path d="m256.003 8s70.245 53.278 148.951 24.759l38.767 58.485s-46.586 46.856-38.875 96.344c6.909 44.339 73.52 81.505 62.428 159.581-18.614 131.027-173.33 119.889-211.274 156.831-37.944-36.942-192.66-25.804-211.275-156.83-11.092-78.076 55.519-115.241 62.428-159.581 7.711-49.488-38.875-96.344-38.875-96.344l38.767-58.485c78.707 28.518 148.952-24.76 148.952-24.76" fill="#8bcaff"/><g><path d="m467.275 329.17c-18.615 131.026-173.331 119.888-211.275 156.83-37.944-36.942-192.66-25.804-211.275-156.83-.394-2.773-.679-5.489-.884-8.161-.644 8.199-.434 16.888.884 26.161 18.615 131.026 173.331 119.888 211.275 156.83 37.944-36.942 192.66-25.804 211.275-156.83 1.317-9.273 1.528-17.962.883-26.161-.204 2.672-.489 5.387-.883 8.161z" fill="#60b8ff"/></g><path d="m255.994 467.829c32.41-31.554 165.437-29.676 176.263-126.787 6.02-53.998-49.371-99.939-59.147-137.001-14.716-55.79 27.998-111.74 27.998-111.74l-13.651-21.205c-71.049 23.805-131.461-19.83-131.461-19.83s-60.412 43.635-131.461 19.83l-13.651 21.205s42.714 55.95 27.998 111.74c-9.776 37.062-65.166 83.004-59.147 137.001 10.828 97.112 143.855 95.233 176.265 126.787z" fill="#0083fd"/><g><g><g><path d="m256 467.829-.003-.002-.003.002z" fill="#0072fc"/></g><g><path d="m255.997 449.827.003.003h-.006c.001-.002.002-.002.003-.003-32.344-31.483-164.844-29.693-176.177-126.159-.665 5.695-.74 11.487-.083 17.374 10.826 97.109 143.846 95.233 176.26 126.784 32.415-31.551 165.434-29.676 176.26-126.784.656-5.888.582-11.68-.083-17.375-11.333 96.467-143.833 94.677-176.177 126.16z" fill="#0072fc"/></g></g></g><ellipse cx="256" cy="284.61" fill="#fff5f5" rx="99.67" ry="99.67" transform="matrix(.707 -.707 .707 .707 -126.269 264.38)"/><path d="m256 366.279c-52.012 0-94.711-39.842-99.261-90.67-.266 2.965-.409 5.966-.409 9 0 55.046 44.624 99.67 99.67 99.67s99.67-44.624 99.67-99.67c0-3.034-.144-6.035-.409-9-4.55 50.828-47.249 90.67-99.261 90.67z" fill="#efe2dd"/><path d="m265.246 233.481 9.419 19.085c1.502 3.043 4.405 5.152 7.763 5.64l21.062 3.06c8.457 1.229 11.834 11.621 5.714 17.586l-15.241 14.856c-2.43 2.369-3.539 5.781-2.965 9.126l3.598 20.977c1.445 8.423-7.396 14.846-14.96 10.869l-18.838-9.904c-3.004-1.579-6.592-1.579-9.596 0l-18.838 9.904c-7.564 3.977-16.404-2.446-14.96-10.869l3.598-20.977c.574-3.345-.535-6.757-2.965-9.126l-15.241-14.856c-6.119-5.965-2.743-16.357 5.714-17.586l21.062-3.06c3.358-.488 6.261-2.597 7.763-5.64l9.419-19.085c3.782-7.663 14.71-7.663 18.492 0z" fill="#ff4755"/><g><g><g><path d="m253.673 305.478-36.375 19.124c-.783 8.027 7.74 13.931 15.066 10.079l18.838-9.904c3.004-1.579 6.592-1.579 9.596 0l18.839 9.904c7.326 3.852 15.849-2.052 15.066-10.079l-36.376-19.124c-1.457-.766-3.197-.766-4.654 0z" fill="#fc2b3a"/></g></g></g></g><g><path d="m256 512c-1.892 0-3.783-.71-5.242-2.13-10.518-10.241-32.919-16.857-58.858-24.518-59.721-17.64-141.51-41.798-155.027-136.946-7.335-51.629 17.7-86.994 37.815-115.411 12.022-16.985 22.406-31.654 24.75-46.696 7.038-45.167-36.42-89.639-36.859-90.083-2.506-2.53-2.898-6.476-.93-9.445l38.843-58.6c1.916-2.89 5.562-4.092 8.824-2.914 30.877 11.19 64.071 10.671 98.659-1.541 26.164-9.237 43.318-22.065 43.488-22.193 3.31-2.498 8.022-1.847 10.523 1.461 2.503 3.306 1.856 8.013-1.447 10.519-.756.573-18.846 14.163-47.07 24.211-35.515 12.645-71.214 13.858-103.647 3.583l-32.389 48.863c11.82 13.42 43.725 54.359 36.855 98.453-2.887 18.531-14.762 35.306-27.334 53.065-19.544 27.609-41.696 58.904-35.202 104.614 12.159 85.584 85.486 107.242 144.405 124.645 24.486 7.232 46.036 13.598 59.843 23.75 13.807-10.153 35.357-16.517 59.842-23.75 21.993-6.496 46.922-13.859 69.504-25.1 3.714-1.848 8.226-.338 10.075 3.379 1.849 3.715.338 8.226-3.379 10.075-23.759 11.828-49.358 19.388-71.943 26.06-25.938 7.661-48.34 14.279-58.858 24.518-1.457 1.421-3.35 2.131-5.241 2.131z"/><path d="m414.555 444.591c-2.326 0-4.619-1.077-6.089-3.104-2.436-3.36-1.688-8.059 1.671-10.495 28.566-20.714 44.956-48.421 50.109-84.7 6.495-45.711-15.658-77.005-35.201-104.614-12.571-17.759-24.445-34.534-27.333-53.065-3.432-22.026 2.636-46.878 17.55-71.869 7.193-12.052 14.764-21.384 19.312-26.571l-32.396-48.875c-32.432 10.273-68.13 9.062-103.647-3.583-28.223-10.048-46.313-23.638-47.069-24.211-3.307-2.508-3.954-7.222-1.446-10.528 2.506-3.306 7.215-3.955 10.522-1.451.17.128 17.324 12.956 43.488 22.193 34.587 12.212 67.779 12.731 98.659 1.541 3.26-1.18 6.908.022 8.823 2.914l38.843 58.6c1.971 2.973 1.58 6.921-.934 9.45-.434.439-43.892 44.911-36.855 90.078 2.344 15.042 12.728 29.71 24.75 46.695 20.115 28.417 45.15 63.783 37.815 115.412-5.757 40.527-24.129 71.521-56.166 94.753-1.332.964-2.876 1.429-4.406 1.43z"/><path d="m256 475.758c-2.047 0-3.959-.831-5.345-2.23-9.251-8.905-30.151-15.605-52.273-22.696-25.613-8.21-54.644-17.516-78.625-33.451-28.658-19.043-44.305-43.688-47.833-75.34-4.084-36.632 17.207-68.717 35.993-97.025 10.355-15.604 20.135-30.342 23.472-42.993 2.945-11.162 3.602-23.279 1.953-36.014-.533-4.116 2.372-7.885 6.488-8.417 4.113-.544 7.884 2.371 8.417 6.487 1.899 14.671 1.116 28.727-2.326 41.777-3.971 15.055-14.419 30.8-25.481 47.469-17.37 26.175-37.058 55.843-33.579 87.05 3.006 26.963 16.487 48.057 41.215 64.488 22.24 14.779 50.214 23.746 74.895 31.656 21.619 6.93 40.686 13.041 53.027 21.967 12.341-8.926 31.408-15.037 53.027-21.967 24.681-7.911 52.654-16.878 74.894-31.656 24.727-16.431 38.208-37.525 41.214-64.488 3.479-31.206-16.208-60.876-33.578-87.051-11.062-16.669-21.51-32.414-25.481-47.468-13.253-50.247 16.255-99.375 26.248-114.083l-7.829-12.161c-29.127 8.442-60.695 7.521-91.693-2.733-17.477-5.781-30.43-13.051-36.803-17.021-6.374 3.97-19.326 11.24-36.803 17.021-30.993 10.252-62.563 11.174-91.692 2.733l-7.836 12.171c4.774 7.062 14.081 22.139 21.009 41.518 1.397 3.908-.639 8.208-4.547 9.606-3.909 1.396-8.209-.639-9.606-4.547-8.688-24.304-21.768-41.652-21.899-41.825-1.913-2.516-2.052-5.966-.341-8.622l13.678-21.245c1.861-2.891 5.448-4.149 8.706-3.058 27.791 9.311 57.173 9.028 87.326-.841 22.786-7.459 37.467-17.895 37.612-18 2.625-1.887 6.171-1.887 8.791.006.137.099 14.818 10.535 37.604 17.994 30.154 9.87 59.534 10.154 87.327.841 3.255-1.092 6.844.166 8.705 3.058l13.678 21.245c1.714 2.661 1.576 6.112-.345 8.627-.4.527-40.368 53.89-26.76 105.482 3.337 12.651 13.117 27.388 23.471 42.992 18.786 28.308 40.077 60.393 35.993 97.026-3.529 31.654-19.175 56.297-47.833 75.34-23.98 15.935-53.011 25.241-78.624 33.451-22.075 7.075-42.932 13.761-52.213 22.638-1.387 1.435-3.323 2.289-5.398 2.289z"/><path d="m256 392.045c-4.15 0-7.515-3.364-7.515-7.515s3.365-7.515 7.515-7.515c50.922 0 92.35-41.428 92.35-92.35s-41.428-92.35-92.35-92.35-92.35 41.428-92.35 92.35c0 20.087 6.336 39.183 18.323 55.224 11.596 15.518 28.109 27.221 46.497 32.955 3.962 1.236 6.172 5.449 4.937 9.411-1.235 3.963-5.447 6.173-9.411 4.937-21.386-6.669-40.585-20.273-54.061-38.307-13.943-18.658-21.313-40.865-21.313-64.22 0-59.209 48.17-107.379 107.379-107.379s107.379 48.17 107.379 107.379c-.001 59.21-48.171 107.38-107.38 107.38z"/><path d="m284.507 343.556c-2.836 0-5.687-.684-8.321-2.069l-18.876-9.924c-.82-.432-1.8-.432-2.621 0l-18.875 9.924c-6.057 3.184-13.258 2.662-18.793-1.358-5.536-4.022-8.256-10.71-7.1-17.454l3.605-21.018c.157-.914-.146-1.845-.81-2.493l-15.27-14.884c-4.9-4.776-6.631-11.786-4.516-18.293 2.115-6.508 7.635-11.161 14.407-12.145l21.103-3.067c.917-.133 1.709-.709 2.12-1.54l9.438-19.123c3.028-6.136 9.16-9.948 16.002-9.948 6.843 0 12.975 3.812 16.003 9.948l9.437 19.122c.41.832 1.203 1.408 2.12 1.541l21.103 3.067c6.771.983 12.292 5.637 14.406 12.144 2.114 6.508.384 13.518-4.516 18.294l-15.27 14.885c-.664.647-.968 1.578-.81 2.492l3.604 21.018c1.158 6.744-1.563 13.432-7.098 17.453-3.128 2.274-6.787 3.428-10.472 3.428zm-28.507-27.345c2.852 0 5.704.683 8.304 2.05l18.876 9.924c1.349.709 2.436.171 2.965-.214.529-.384 1.378-1.252 1.12-2.753l-3.605-21.02c-.993-5.791.926-11.695 5.132-15.795l15.27-14.884c1.091-1.063.915-2.264.713-2.887-.203-.621-.766-1.697-2.273-1.916l-21.104-3.066c-5.814-.845-10.837-4.494-13.436-9.762l-9.437-19.122c-.674-1.367-1.872-1.57-2.525-1.57-.654 0-1.851.204-2.525 1.57l-9.438 19.123c-2.599 5.267-7.622 8.917-13.435 9.762l-21.104 3.066c-1.508.219-2.071 1.294-2.273 1.917-.202.621-.378 1.823.712 2.886l15.27 14.884c4.207 4.102 6.125 10.007 5.132 15.796l-3.605 21.017c-.257 1.501.592 2.37 1.12 2.754.529.385 1.618.923 2.965.214l18.875-9.924c2.602-1.367 5.454-2.05 8.306-2.05z"/></g></g></svg>