<svg id="Capa_1" enable-background="new 0 0 512 512" height="512" viewBox="0 0 512 512" width="512" xmlns="http://www.w3.org/2000/svg"><g><g><path d="m256 504 146.202-106.222-55.844-171.871h-180.716l-55.844 171.871z" fill="#ffba57"/><path d="m253.061 483.865-138.532-100.649-4.732 14.562 146.203 106.222 146.202-106.222-4.732-14.562-138.531 100.649c-1.753 1.273-4.126 1.273-5.878 0z" fill="#ffac3e"/><path d="m309.793 225.907h-107.586c-15.124 0-27.385-12.26-27.385-27.385v-13.24h162.355v13.24c0 15.125-12.26 27.385-27.384 27.385z" fill="#ffe27a"/><path d="m309.793 207.907h-107.586c-13.499 0-24.709-9.771-26.964-22.624h-.421v13.24c0 15.124 12.261 27.385 27.385 27.385h107.585c15.124 0 27.385-12.26 27.385-27.385v-13.24h-.421c-2.254 12.854-13.464 22.624-26.963 22.624z" fill="#f9cf58"/><g><g><path d="m406.267 8v105.77l-92.735 71.513h-115.064l-92.735-71.513v-105.77z" fill="#c61926"/></g></g><path d="m198.468 167.283-92.735-71.513v18l92.735 71.513h115.064l92.735-71.513v-18l-92.735 71.513z" fill="#b2182b"/><path d="m268.252 278.797 12.482 25.292c1.99 4.033 5.837 6.827 10.287 7.474l27.911 4.056c11.207 1.629 15.681 15.401 7.572 23.305l-20.196 19.687c-3.22 3.139-4.69 7.661-3.929 12.094l4.768 27.798c1.914 11.161-9.801 19.673-19.824 14.403l-24.964-13.124c-3.98-2.093-8.736-2.093-12.716 0l-24.964 13.124c-10.024 5.27-21.739-3.242-19.824-14.403l4.768-27.798c.76-4.432-.709-8.955-3.929-12.094l-20.196-19.687c-8.109-7.904-3.635-21.676 7.572-23.305l27.911-4.056c4.45-.647 8.297-3.442 10.287-7.474l12.482-25.292c5.01-10.155 19.49-10.155 24.502 0z" fill="#fff5f5"/><g><path d="m253.673 379.66-48.356 25.422c2.479 7.547 11.445 11.983 19.361 7.821l24.964-13.124c3.98-2.093 8.736-2.093 12.716 0l24.964 13.124c7.916 4.162 16.882-.275 19.361-7.821l-48.356-25.422c-1.457-.765-3.197-.765-4.654 0z" fill="#efe2dd"/></g><path d="m198.468 8h115.064v177.283h-115.064z" fill="#ff4755"/><path d="m198.468 167.283h115.064v18h-115.064z" fill="#fc2b3a"/></g><g><path d="m331.895 344.496c5.822-5.676 7.878-14.005 5.365-21.739s-9.072-13.264-17.119-14.433l-27.966-4.064c-2.013-.293-3.752-1.556-4.651-3.379l-12.508-25.343c-3.598-7.291-10.885-11.821-19.016-11.821s-15.418 4.53-19.016 11.821l-12.508 25.343c-.899 1.823-2.638 3.086-4.649 3.379l-27.968 4.064c-8.047 1.168-14.606 6.699-17.119 14.433s-.457 16.063 5.365 21.739l20.238 19.727c1.456 1.419 2.12 3.462 1.776 5.466l-4.778 27.855c-1.374 8.014 1.859 15.961 8.437 20.74 6.579 4.779 15.135 5.398 22.333 1.615l25.015-13.151c1.801-.947 3.949-.947 5.748 0l25.015 13.151c3.13 1.646 6.518 2.458 9.888 2.458 4.378 0 8.727-1.372 12.444-4.073 6.578-4.779 9.811-12.726 8.436-20.74l-4.777-27.856c-.343-2.003.32-4.046 1.777-5.465zm-30.729 8.962c-5 4.873-7.281 11.89-6.099 18.771l4.776 27.855c.586 3.415-1.523 5.361-2.456 6.041-.934.679-3.436 2.081-6.504.47l-25.015-13.151c-3.09-1.624-6.479-2.437-9.869-2.437-3.389 0-6.779.812-9.869 2.437l-25.015 13.151c-3.069 1.611-5.569.208-6.503-.47-.934-.679-3.042-2.625-2.457-6.041l4.777-27.854c1.181-6.881-1.099-13.898-6.098-18.772l-20.238-19.727c-2.482-2.418-1.92-5.232-1.563-6.33.356-1.098 1.557-3.705 4.985-4.203l27.97-4.064c6.908-1.005 12.876-5.342 15.965-11.601l12.508-25.343c1.533-3.107 4.384-3.443 5.538-3.443s4.004.336 5.538 3.443l12.508 25.343c3.089 6.259 9.057 10.596 15.967 11.601l27.968 4.064c3.428.498 4.629 3.105 4.985 4.203.357 1.098.919 3.912-1.563 6.33z"/><path d="m406.574 51.104c4.151 0 7.515-3.364 7.515-7.515v-36.074c0-4.151-3.364-7.515-7.515-7.515h-301.148c-4.151 0-7.515 3.364-7.515 7.515v105.985c0 2.33 1.08 4.529 2.926 5.951l75.462 58.193h-16.247c-4.151 0-7.515 3.364-7.515 7.515s3.364 7.515 7.515 7.515h7.09v5.751c0 7.402 2.319 14.268 6.259 19.925h-7.942c-3.256 0-6.141 2.096-7.147 5.193l-55.959 172.222c-1.006 3.096.096 6.489 2.73 8.402l57.251 41.595c3.356 2.44 8.057 1.697 10.497-1.663 2.44-3.357 1.696-8.057-1.663-10.497l-52.834-38.386 52.585-161.836h170.163l52.585 161.836-137.667 100.022-60.511-43.964c-3.355-2.44-8.057-1.695-10.497 1.663-2.439 3.357-1.696 8.057 1.663 10.497l64.928 47.173c2.244 1.545 5.783 2.145 8.834 0l146.5-106.438c2.634-1.913 3.736-5.306 2.73-8.402l-55.959-172.222c-1.006-3.097-3.892-5.193-7.147-5.193h-7.941c3.94-5.657 6.259-12.524 6.259-19.925v-5.751h7.09c4.151 0 7.515-3.364 7.515-7.515s-3.364-7.515-7.515-7.515h-16.247l75.463-58.193c1.846-1.423 2.926-3.622 2.926-5.951v-39.852c0-4.151-3.364-7.515-7.515-7.515s-7.515 3.364-7.515 7.515v36.156l-77.894 60.068v-154.843h77.894v28.558c-.002 4.151 3.362 7.515 7.513 7.515zm-76.746 147.322c0 10.987-8.938 19.925-19.925 19.925h-107.806c-10.987 0-19.925-8.938-19.925-19.925v-5.751h147.656zm-23.694-20.781h-100.267v-55.313c0-4.151-3.364-7.515-7.515-7.515s-7.515 3.364-7.515 7.515v47.542l-77.895-60.068v-94.775h77.895v77.24c0 4.151 3.364 7.515 7.515 7.515s7.515-3.364 7.515-7.515v-77.24h100.268v162.614z"/></g></g></svg>