<svg id="Capa_1" enable-background="new 0 0 512 512" height="512" viewBox="0 0 512 512" width="512" xmlns="http://www.w3.org/2000/svg"><g><g><path d="m448.334 387.484-11.835 27.122s-14.442-9.674-40.626-20.215c-.001 0-.001 0-.001-.001l-15.005 46.265c55.054 21.222 85.614 47.65 85.614 47.65l.412-45.439 37.107-19.699s-19.52-16.87-55.666-35.683z" fill="#c61926"/><path d="m494.299 251.075-30.002-12.463c-4.784-1.987-8.283-6.201-9.358-11.268l-6.742-31.781c-2.707-12.76-18.871-16.878-27.352-6.967l-21.124 24.682c-3.368 3.935-8.457 5.961-13.608 5.418l-28.744-3.033c-3.102 5.66-4.269 12.273-3.15 18.797l10.097 58.869c.612 3.565.556 6.997-.034 10.226 46.096 11.463 78.469 27.522 93.36 35.869l2.517-31.566c.412-5.164 3.338-9.794 7.825-12.382l28.142-16.232c11.298-6.52 10.219-23.165-1.827-28.169z" fill="#ffba57"/><path d="m147.685 293.327 10.097-58.869c1.119-6.523-.048-13.136-3.15-18.797l-28.744 3.033c-5.151.544-10.24-1.482-13.608-5.418l-21.124-24.682c-8.482-9.91-24.646-5.793-27.352 6.967l-6.741 31.781c-1.075 5.067-4.574 9.281-9.358 11.268l-30.002 12.463c-12.046 5.004-13.125 21.649-1.826 28.167l28.142 16.232c4.487 2.588 7.413 7.219 7.825 12.382l2.517 31.566c14.891-8.347 47.264-24.406 93.36-35.869-.592-3.226-.648-6.659-.036-10.224z" fill="#ffba57"/><path d="m149.46 208.847c6.819 6.648 9.931 16.225 8.321 25.611l-10.097 58.869c-.612 3.565-.556 6.998.034 10.227 30.466-7.576 66.914-13.147 108.281-13.147s77.815 5.57 108.281 13.147c.59-3.229.646-6.662.034-10.227l-10.097-58.869c-1.61-9.386 1.502-18.964 8.322-25.611l42.771-41.691c17.173-16.74 7.697-45.905-16.036-49.354l-59.108-8.589c-9.425-1.369-17.572-7.289-21.786-15.828l-26.434-53.561c-10.614-21.506-41.28-21.506-51.894 0l-26.434 53.561c-4.215 8.54-12.361 14.459-21.786 15.828l-59.108 8.589c-23.733 3.449-33.209 32.614-16.036 49.354z" fill="#ffe27a"/><path d="m116.126 394.391c-26.184 10.54-40.626 20.215-40.626 20.215l-11.835-27.122c-36.145 18.813-55.665 35.683-55.665 35.683l37.107 19.699.411 45.439s30.56-26.428 85.614-47.65l-15.005-46.265c0 .001 0 .001-.001.001z" fill="#c61926"/><g><g><g><path d="m88.16 429.657c6.03-3.531 17.615-9.816 34.041-16.54l-6.074-18.727c-26.116 10.513-40.548 20.162-40.624 20.213l5.557 12.734c1.198 2.744 4.517 3.833 7.1 2.32z" fill="#b2182b"/></g></g></g><g><g><g><path d="m423.84 429.657c-6.03-3.531-17.615-9.816-34.041-16.54l6.073-18.727c26.116 10.513 40.548 20.162 40.624 20.213l-5.557 12.734c-1.197 2.744-4.516 3.833-7.099 2.32z" fill="#b2182b"/></g></g></g><path d="m436.499 414.605s-69.671-46.685-180.499-46.685c-110.829 0-180.499 46.685-180.499 46.685l-30.394-69.652s81.402-54.546 210.893-54.546 210.893 54.546 210.893 54.546z" fill="#ff4755"/><path d="m256 347.268c-106.259 0-176.715 40.604-188.876 48.141l8.377 19.197s69.671-46.685 180.499-46.685c110.829 0 180.499 46.685 180.499 46.685l8.377-19.198c-12.161-7.536-82.618-48.14-188.876-48.14z" fill="#fc2b3a"/><path d="m154.632 215.662-22.944 2.421c6.656 6.637 9.685 16.097 8.094 25.375l-7.426 43.296c-.323 1.88-1.693 3.406-3.521 3.95-37.441 11.138-63.604 24.52-75.849 31.493l1.373 17.224c12.818-7.185 38.602-20.083 74.93-30.847 5.314-1.577 11.893-3.396 18.429-5.022-1.23-4.8.434-13.314 1.357-18.337l8.705-50.758c1.12-6.522-.046-13.135-3.148-18.795z" fill="#ffac3e"/><path d="m357.368 215.662 22.944 2.421c-6.656 6.637-9.685 16.097-8.094 25.375l7.426 43.296c.323 1.88 1.693 3.406 3.521 3.95 37.441 11.138 63.604 24.52 75.849 31.493l-1.373 17.224c-12.818-7.185-38.602-20.083-74.931-30.847-5.314-1.577-11.893-3.396-18.429-5.022 1.23-4.8-.434-13.314-1.357-18.337l-8.706-50.758c-1.118-6.522.048-13.135 3.15-18.795z" fill="#ffac3e"/><path d="m149.076 285.216-1.391 8.111c-.612 3.565-.556 6.998.034 10.227 30.466-7.576 66.914-13.147 108.281-13.147s77.815 5.57 108.281 13.147c.59-3.229.646-6.662.034-10.227l-1.391-8.111c-30.188-7.404-66.172-12.809-106.924-12.809s-76.736 5.405-106.924 12.809z" fill="#f9cf58"/></g><path d="m509.398 417.825c-.777-.672-18.41-15.778-51.018-33.437l15.812-36.236c1.453-3.332.315-7.225-2.704-9.249-.248-.166-2.143-1.424-5.584-3.454l2.143-26.876c.216-2.709 1.75-5.138 4.104-6.495l28.197-16.263c7.733-4.461 12.179-12.767 11.601-21.676s-6.058-16.57-14.302-19.995l-30.061-12.488c-2.509-1.043-4.344-3.252-4.908-5.91l-6.754-31.841c-1.852-8.734-8.378-15.528-17.029-17.732-8.652-2.204-17.632.641-23.437 7.423l-21.166 24.731c-1.767 2.064-4.44 3.127-7.137 2.84l-14.524-1.533 38.216-37.252c10.023-9.771 13.563-24.112 9.237-37.424-4.325-13.312-15.618-22.832-29.47-24.844l-12.602-1.832c-4.107-.603-7.92 2.249-8.517 6.355-.597 4.108 2.248 7.921 6.356 8.518l12.603 1.832c8.273 1.202 14.754 6.666 17.337 14.616s.552 16.181-5.434 22.017l-42.854 41.772c-8.606 8.388-12.531 20.469-10.5 32.313l10.035 58.509c-28.567-6.447-62.691-11.235-101.038-11.235-38.348 0-72.472 4.788-101.039 11.235l10.036-58.509c2.031-11.844-1.893-23.924-10.5-32.313l-42.854-41.772c-5.986-5.836-8.018-14.066-5.434-22.017 2.583-7.95 9.065-13.414 17.337-14.616l59.223-8.607c11.893-1.727 22.168-9.193 27.487-19.97l26.486-53.665c3.7-7.496 10.899-11.972 19.258-11.972 8.36-.001 15.56 4.475 19.259 11.972l26.486 53.665c5.318 10.777 15.594 18.242 27.487 19.97l16.807 2.442c4.108.606 7.92-2.249 8.517-6.356s-2.249-7.92-6.356-8.517l-16.808-2.442c-6.996-1.017-13.041-5.408-16.17-11.749l-26.486-53.665c-6.195-12.552-18.739-20.35-32.737-20.349-13.997 0-26.541 7.797-32.736 20.349l-26.486 53.665c-3.129 6.34-9.174 10.732-16.171 11.749l-59.223 8.607c-13.852 2.013-25.144 11.532-29.469 24.844-4.326 13.312-.787 27.652 9.237 37.424l38.217 37.252-14.525 1.533c-2.702.292-5.369-.776-7.137-2.841l-21.166-24.73c-5.804-6.783-14.784-9.626-23.437-7.423-8.651 2.204-15.177 8.998-17.029 17.732-.861 4.06 1.732 8.049 5.792 8.91 4.062.864 8.049-1.732 8.91-5.793.666-3.143 2.923-5.492 6.037-6.286 3.114-.792 6.22.192 8.309 2.632l21.165 24.73c4.45 5.199 10.924 8.144 17.685 8.144.813 0 1.63-.042 2.448-.128l23.243-2.453c.867 3.047 1.07 6.288.518 9.504l-10.117 58.983c-.334 1.948-.505 3.897-.531 5.839-15.598 4.105-29.188 8.582-40.469 12.792-15.981 5.964-28.911 11.912-38.522 16.794l-1.61-20.195c-.609-7.642-4.936-14.49-11.576-18.32l-28.196-16.263c-2.783-1.605-4.321-4.478-4.113-7.684s2.103-5.856 5.07-7.089l30.061-12.488c7.078-2.94 12.253-9.172 13.844-16.67l.516-2.432c.861-4.061-1.733-8.049-5.793-8.91-4.058-.861-8.049 1.733-8.909 5.793l-.515 2.432c-.564 2.658-2.399 4.867-4.909 5.91l-30.06 12.488c-8.244 3.424-13.724 11.085-14.302 19.994-.577 8.909 3.868 17.215 11.602 21.676l28.197 16.263c2.354 1.357 3.888 3.785 4.104 6.494l2.143 26.877c-3.441 2.03-5.336 3.288-5.583 3.454-3.02 2.023-4.158 5.917-2.705 9.249l15.812 36.236c-32.608 17.66-50.24 32.766-51.017 33.437-3.527 2.859-3.503 9.848 1.389 12.323l33.229 17.642.372 41.057c-.031 5.816 7.284 9.931 12.424 5.62.075-.065 7.632-6.538 21.664-15.46 12.93-8.222 34.168-20.267 61.91-30.961 3.725-1.435 5.677-5.533 4.445-9.33l-12.847-39.612c.624-.236 1.244-.472 1.879-.707 27.912-10.367 72.939-22.724 128.931-22.724 17.507 0 35.084 1.203 52.242 3.574 4.113.572 7.905-2.304 8.473-6.416.568-4.111-2.304-7.904-6.415-8.473-17.838-2.465-36.108-3.715-54.3-3.715-92.34 0-156.17 31.303-177.401 43.411l-24.402-55.924c8.115-4.747 25.304-14.007 50.125-23.27 32.821-12.25 85.779-26.852 151.679-26.852 65.651 0 118.443 14.499 151.169 26.662 25.007 9.293 42.436 18.677 50.633 23.465l-24.407 55.932c-13.896-7.892-46.151-24.038-92.889-34.315-4.054-.888-8.062 1.672-8.953 5.726-.891 4.053 1.672 8.062 5.725 8.953 18.555 4.08 35.282 9.331 49.523 14.701l-12.837 39.583c-1.231 3.797.721 7.894 4.445 9.33 27.742 10.694 48.979 22.739 61.91 30.961 14.032 8.922 21.59 15.395 21.659 15.455 4.104 3.926 12.444.956 12.43-5.616l.372-41.057 33.229-17.642c4.29-2.16 5.463-8.691 1.389-12.321zm-436.364 4.317c2.133.626 4.44.273 6.29-.962.138-.092 11.49-7.595 31.898-16.424l10.342 31.889c-25.846 10.519-45.777 21.917-58.293 29.898-4.139 2.639-7.739 5.072-10.786 7.213l-.277-30.576c-.025-2.755-1.556-5.277-3.99-6.569l-26.914-14.289c7.867-5.753 20.833-14.541 38.349-24.108l8.607 19.723c.89 2.04 2.64 3.579 4.774 4.205zm299.431-124.155c-.026-1.942-.197-3.892-.532-5.839l-10.116-58.983c-.551-3.215-.348-6.457.518-9.504l23.242 2.453c7.624.804 15.15-2.192 20.133-8.016l21.166-24.73c2.089-2.442 5.195-3.425 8.309-2.632 3.113.794 5.37 3.143 6.037 6.287l6.755 31.842c1.591 7.497 6.766 13.729 13.844 16.669l30.061 12.488c2.967 1.233 4.862 3.883 5.07 7.089s-1.33 6.079-4.113 7.684l-28.197 16.263c-6.639 3.829-10.967 10.677-11.577 18.32l-1.61 20.194c-9.611-4.882-22.541-10.83-38.522-16.794-11.28-4.209-24.87-8.686-40.468-12.791zm91.316 138.625c-2.434 1.292-3.965 3.813-3.99 6.569l-.277 30.576c-3.047-2.142-6.647-4.574-10.786-7.213-12.516-7.981-32.447-19.379-58.293-29.898l10.344-31.89c15.072 6.466 26.115 12.568 31.891 16.421 3.227 2.339 9.119 1.31 11.07-3.237l8.607-19.723c17.517 9.568 30.484 18.355 38.349 24.107z"/></g></svg>