<svg id="Capa_1" enable-background="new 0 0 512 512" height="512" viewBox="0 0 512 512" width="512" xmlns="http://www.w3.org/2000/svg"><g><g><path d="m271.245 231.148c13.113-9.966 32.105-4.877 38.479 10.31 4.379 10.435 15.179 16.67 26.406 15.246 16.339-2.074 30.242 11.829 28.168 28.168-1.425 11.227 4.81 22.026 15.245 26.406 15.187 6.374 20.276 25.365 10.31 38.479-6.848 9.01-6.848 21.481 0 30.491 9.966 13.113 4.877 32.105-10.31 38.478-10.435 4.379-16.67 15.179-15.245 26.406 2.074 16.339-11.829 30.242-28.168 28.168-11.227-1.425-22.026 4.81-26.406 15.245-6.374 15.187-25.365 20.276-38.479 10.31-9.01-6.848-21.48-6.848-30.491 0-13.113 9.966-32.105 4.877-38.478-10.31-4.379-10.435-15.179-16.67-26.406-15.245-16.339 2.074-30.242-11.829-28.168-28.168 1.425-11.227-4.81-22.027-15.245-26.406-15.187-6.374-20.276-25.365-10.31-38.478 6.847-9.01 6.847-21.481 0-30.491-9.966-13.113-4.877-32.105 10.31-38.479 10.435-4.379 16.67-15.179 15.245-26.406-2.074-16.339 11.829-30.242 28.168-28.168 11.227 1.425 22.026-4.81 26.406-15.246 6.374-15.187 25.365-20.276 38.478-10.31 9.011 6.848 21.481 6.848 30.491 0z" fill="#ffcb5b"/><g><path d="m364.118 442.251c-5.147 8.216-14.754 13.388-25.359 12.042-11.595-1.472-22.749 4.968-27.272 15.746-6.583 15.685-26.198 20.941-39.741 10.649-9.306-7.072-22.185-7.072-31.491 0-13.544 10.293-33.159 5.037-39.741-10.649-4.523-10.778-15.677-17.218-27.272-15.746-10.604 1.346-20.212-3.826-25.359-12.042-.012.956-.057 1.915-.18 2.881-2.074 16.339 11.829 30.242 28.168 28.168 11.227-1.425 22.026 4.81 26.406 15.245 6.374 15.187 25.365 20.276 38.478 10.31 9.01-6.848 21.48-6.848 30.491 0 13.113 9.966 32.105 4.877 38.479-10.31 4.379-10.435 15.179-16.67 26.406-15.245 16.339 2.074 30.242-11.829 28.168-28.168-.123-.965-.169-1.925-.181-2.881z" fill="#f7b737"/></g><path d="m309.793 225.907h-107.586c-15.124 0-27.385-12.26-27.385-27.385v-13.24h162.355v13.24c0 15.125-12.26 27.385-27.384 27.385z" fill="#ffe27a"/><path d="m309.793 207.907h-107.586c-13.499 0-24.709-9.771-26.964-22.624h-.421v13.24c0 15.124 12.261 27.385 27.385 27.385h107.585c15.124 0 27.385-12.26 27.385-27.385v-13.24h-.421c-2.254 12.854-13.464 22.624-26.963 22.624z" fill="#f9cf58"/><path d="m322.667 8-66.667 112.138 38.729 65.145h29.959l105.396-177.283z" fill="#609e3f"/><path d="m294.729 185.283h29.959l10.701-18h-51.361z" fill="#548736"/><path d="m294.729 185.283h-107.417l-105.396-177.283h107.417z" fill="#98db7c"/><path d="m187.312 185.283h107.417l-10.701-18h-107.417z" fill="#82d361"/><g><circle cx="256" cy="365.002" fill="#ff9838" r="97.335"/></g><path d="m256 444.337c-50.721 0-92.374-38.798-96.917-88.335-.272 2.964-.418 5.965-.418 9 0 53.757 43.578 97.335 97.335 97.335s97.335-43.578 97.335-97.335c0-3.035-.146-6.036-.418-9-4.543 49.537-46.196 88.335-96.917 88.335z" fill="#ff8709"/><path d="m264.426 317.759 8.584 17.394c1.369 2.773 4.014 4.695 7.075 5.14l19.195 2.789c7.707 1.12 10.785 10.591 5.208 16.027l-13.89 13.539c-2.215 2.159-3.225 5.269-2.702 8.317l3.279 19.117c1.317 7.676-6.74 13.53-13.634 9.906l-17.169-9.026c-2.737-1.439-6.008-1.439-8.745 0l-17.169 9.026c-6.894 3.624-14.95-2.23-13.634-9.906l3.279-19.117c.523-3.048-.488-6.158-2.702-8.317l-13.89-13.539c-5.577-5.436-2.499-14.908 5.208-16.027l19.195-2.789c3.06-.445 5.706-2.367 7.075-5.14l8.584-17.394c3.448-6.984 13.406-6.984 16.853 0z" fill="#fff5f5"/><g><path d="m291 399.065-32.673-17.177c-1.457-.766-3.189-.77-4.646-.004-7.812 4.106-32.681 17.181-32.681 17.181l-.175 1.019c-1.317 7.676 6.74 13.53 13.634 9.905l17.169-9.026c2.737-1.439 6.008-1.439 8.745 0l17.169 9.026c6.893 3.624 14.95-2.229 13.634-9.905z" fill="#efe2dd"/></g></g><g><path d="m327.534 431.918c3.242 2.592 7.971 2.063 10.561-1.178 14.795-18.513 22.943-41.786 22.943-65.531 0-57.919-47.12-105.038-105.038-105.038s-105.038 47.12-105.038 105.038c0 57.919 47.12 105.038 105.038 105.038 20.834 0 40.97-6.088 58.233-17.607 3.452-2.303 4.383-6.97 2.08-10.422-2.305-3.452-6.97-4.383-10.422-2.079-14.783 9.865-32.036 15.079-49.891 15.079-49.631 0-90.009-40.378-90.009-90.009s40.378-90.009 90.009-90.009 90.009 40.378 90.009 90.009c0 20.643-6.796 40.059-19.655 56.148-2.591 3.242-2.063 7.97 1.18 10.561z"/><path d="m309.827 364.686c4.648-4.53 6.29-11.18 4.285-17.353-2.006-6.174-7.242-10.59-13.667-11.523l-19.233-2.795c-.618-.09-1.153-.478-1.43-1.04l-8.601-17.427c-2.873-5.821-8.69-9.436-15.181-9.436s-12.308 3.615-15.181 9.436l-8.601 17.427c-.277.562-.812.95-1.431 1.04l-19.232 2.795c-6.424.933-11.661 5.349-13.667 11.523-2.005 6.173-.363 12.823 4.285 17.353l13.916 13.564c.448.436.653 1.065.547 1.683l-3.285 19.154c-1.097 6.398 1.484 12.742 6.736 16.558 2.968 2.156 6.439 3.25 9.934 3.25 2.69 0 5.395-.649 7.894-1.963l17.203-9.044c.553-.289 1.213-.291 1.768.001l17.201 9.042c5.745 3.022 12.577 2.527 17.829-1.287 5.252-3.816 7.833-10.16 6.736-16.558l-3.285-19.155c-.106-.617.099-1.246.546-1.681zm-24.408 2.804c-3.99 3.891-5.81 9.493-4.868 14.984l3.285 19.154c.165.963-.32 1.542-.756 1.859-.435.317-1.134.601-2.001.144l-17.201-9.042c-4.933-2.595-10.824-2.595-15.756-.001l-17.203 9.044c-.863.453-1.564.172-2-.145s-.921-.896-.756-1.859l3.285-19.153c.942-5.492-.878-11.094-4.869-14.986l-13.917-13.565c-.699-.681-.647-1.434-.481-1.947.167-.513.568-1.153 1.534-1.293l19.231-2.794c5.516-.8 10.281-4.263 12.748-9.261l8.601-17.427c.432-.875 1.165-1.059 1.704-1.059s1.272.184 1.704 1.059l8.601 17.427c2.467 4.998 7.232 8.461 12.747 9.261l19.232 2.794c.966.141 1.367.781 1.534 1.293.166.513.218 1.266-.481 1.947z"/><path d="m384.465 84.818c3.568 2.12 8.179.947 10.299-2.619l42.117-70.844c1.381-2.323 1.409-5.207.072-7.556-1.336-2.349-3.829-3.799-6.531-3.799h-107.626c-2.651 0-5.105 1.396-6.459 3.674l-60.337 101.49-60.337-101.49c-1.354-2.278-3.809-3.674-6.459-3.674h-107.626c-2.702 0-5.196 1.45-6.532 3.799-1.336 2.348-1.308 5.233.072 7.556l98.85 166.272h-13.908c-4.15 0-7.515 3.364-7.515 7.515s3.365 7.514 7.515 7.514h7.09v5.75c0 17.926 13.568 32.737 30.973 34.719-1.109 1.687-2.08 3.485-2.881 5.393-3.069 7.316-10.709 11.724-18.582 10.728-10.128-1.285-20.072 2.116-27.289 9.333-7.217 7.218-10.62 17.164-9.335 27.29.523 4.117 4.284 7.043 8.401 6.509 4.117-.522 7.031-4.284 6.509-8.401-.696-5.48 1.146-10.864 5.052-14.77 3.907-3.906 9.292-5.748 14.77-5.052 14.539 1.842 28.66-6.306 34.332-19.821 2.138-5.094 6.425-8.836 11.761-10.266 5.334-1.43 10.918-.333 15.317 3.011 11.672 8.87 27.974 8.87 39.644-.001 4.399-3.341 9.98-4.44 15.317-3.01 5.336 1.43 9.623 5.172 11.761 10.266 5.672 13.515 19.787 21.666 34.332 19.821 5.481-.699 10.864 1.145 14.77 5.052 3.906 3.906 5.747 9.289 5.052 14.77-1.845 14.543 6.306 28.661 19.822 34.333 5.094 2.137 8.835 6.424 10.265 11.759 1.43 5.337.333 10.92-3.01 15.318-8.868 11.671-8.868 27.973.001 39.644 3.342 4.398 4.44 9.981 3.01 15.317-1.43 5.335-5.171 9.622-10.264 11.76-13.517 5.672-21.668 19.789-19.823 34.332.696 5.48-1.145 10.864-5.051 14.77-3.906 3.907-9.288 5.752-14.77 5.053-14.538-1.844-28.66 6.304-34.332 19.822-2.138 5.094-6.425 8.835-11.761 10.265-5.337 1.429-10.92.333-15.317-3.01-11.672-8.869-27.973-8.87-39.644 0-4.398 3.342-9.981 4.438-15.317 3.01-5.336-1.43-9.623-5.171-11.761-10.265-5.672-13.516-19.789-21.662-34.332-19.822-5.48.699-10.864-1.146-14.771-5.053-3.906-3.906-5.747-9.29-5.052-14.77 1.846-14.542-6.305-28.66-19.822-34.332-5.094-2.138-8.835-6.424-10.265-11.76s-.333-10.919 3.01-15.317c8.868-11.671 8.868-27.973-.001-39.644-3.342-4.398-4.44-9.981-3.01-15.318 1.43-5.335 5.171-9.622 10.265-11.759 3.827-1.607 5.627-6.011 4.021-9.837-1.606-3.827-6.011-5.626-9.836-4.022-9.412 3.95-16.325 11.87-18.966 21.729-2.642 9.859-.615 20.174 5.561 28.301 4.8 6.317 4.8 15.14 0 21.456-6.176 8.126-8.203 18.441-5.562 28.3 2.642 9.859 9.555 17.779 18.967 21.73 7.315 3.069 11.727 10.71 10.727 18.581-1.285 10.126 2.117 20.072 9.334 27.289 7.217 7.218 17.167 10.618 27.291 9.336 7.871-1.004 15.511 3.412 18.581 10.728 3.95 9.411 11.869 16.324 21.729 18.965 9.859 2.644 20.174.615 28.3-5.56 6.316-4.8 15.139-4.8 21.457 0 5.79 4.399 12.691 6.694 19.746 6.694 2.847 0 5.72-.374 8.555-1.134 9.859-2.642 17.779-9.555 21.729-18.965 3.07-7.316 10.71-11.732 18.582-10.728 10.127 1.286 20.073-2.117 27.29-9.336 7.217-7.217 10.619-17.164 9.333-27.289-.999-7.871 3.412-15.512 10.728-18.581 9.412-3.951 16.325-11.871 18.966-21.73s.615-20.174-5.561-28.3c-4.8-6.317-4.8-15.14-.001-21.456 6.176-8.127 8.203-18.442 5.561-28.301s-9.555-17.779-18.966-21.729c-7.315-3.069-11.727-10.711-10.728-18.582 1.285-10.125-2.117-20.072-9.334-27.289s-17.161-10.619-27.29-9.335c-7.863 1.006-15.511-3.412-18.582-10.728-.8-1.907-1.771-3.705-2.881-5.393 17.405-1.983 30.973-16.793 30.973-34.719v-5.75h7.09c4.15 0 7.515-3.364 7.515-7.514s-3.365-7.515-7.515-7.515h-13.908l41.396-69.63c2.121-3.567.948-8.179-2.619-10.299-3.568-2.122-8.178-.948-10.299 2.618l-45.962 77.311h-21.466l-34.337-57.757 62.329-104.841h90.141l-35.367 59.489c-2.122 3.569-.949 8.18 2.619 10.301zm-54.645 113.588c0 10.986-8.938 19.923-19.923 19.923h-107.794c-10.986 0-19.923-8.937-19.923-19.923v-5.75h147.64zm-138.366-20.779-96.666-162.598h90.141l64.605 108.671c.007.012.014.024.022.037l32.038 53.891h-90.14z"/></g></g></svg>