<svg id="Capa_1" enable-background="new 0 0 512 512" height="512" viewBox="0 0 512 512" width="512" xmlns="http://www.w3.org/2000/svg"><g><g><path d="m377.435 504h-242.87v-16.229c0-9.915 8.038-17.953 17.953-17.953h206.963c9.915 0 17.953 8.038 17.953 17.953v16.229z" fill="#5a5a5a"/><path d="m134.654 486c-.057.583-.089 1.173-.089 1.771v16.229h242.87v-16.229c0-.598-.032-1.188-.089-1.771z" fill="#4c4c4c"/><path d="m317.172 350.571h-122.344c-13.679 0-25.253 10.111-27.089 23.666l-12.951 95.58h202.424l-12.951-95.58c-1.837-13.555-13.41-23.666-27.089-23.666z" fill="#e0e0e0"/><path d="m157.227 451.817-2.439 18h202.424l-2.439-18z" fill="#cecece"/><path d="m256 298.353c-12.089 0-23.829-1.487-35.057-4.272l-4.307 56.489h78.727l-4.307-56.489c-11.227 2.785-22.967 4.272-35.056 4.272z" fill="#9e9e9e"/><ellipse cx="256" cy="153.177" fill="#ff9838" rx="145.177" ry="145.177" transform="matrix(.707 -.707 .707 .707 -33.332 225.884)"/><path d="m256 316.353c12.572 0 24.77-1.6 36.404-4.603l-1.347-17.668c-11.228 2.784-22.968 4.272-35.057 4.272s-23.829-1.487-35.057-4.272l-1.347 17.668c11.634 3.004 23.832 4.603 36.404 4.603z" fill="#898989"/><path d="m256 280.353c-77.155 0-140.242-60.191-144.891-136.177-.182 2.978-.286 5.977-.286 9 0 80.179 64.998 145.177 145.177 145.177s145.177-64.998 145.177-145.177c0-3.023-.104-6.022-.286-9-4.649 75.986-67.736 136.177-144.891 136.177z" fill="#ff8709"/></g><path d="m364.026 463.099-12.146-89.64c-2.335-17.227-17.203-30.218-34.588-30.218h-14.887l-3.315-43.478c63.437-18.653 109.886-77.393 109.886-146.788 0-84.351-68.625-152.975-152.976-152.975s-152.976 68.624-152.976 152.975c0 18.048 3.114 35.718 9.256 52.521 1.425 3.898 5.74 5.901 9.638 4.478 3.898-1.425 5.903-5.74 4.477-9.638-3.572-9.772-6.001-19.875-7.28-30.187 12.258-34.075 36.431-61.496 66.84-78.212.319 2.697.446 5.502.319 8.423-.58 13.318-4.701 26.839-9.472 42.494-8.437 27.686-18.707 61.437-14.757 111.197-8.77-8.186-16.569-17.592-23.134-28.102-2.199-3.519-6.834-4.591-10.354-2.392s-4.591 6.835-2.392 10.355c20.306 32.509 51.188 55.573 86.739 65.923l-3.309 43.406h-14.887c-17.385 0-32.254 12.991-34.589 30.218l-12.147 89.64c-12 2.068-21.161 12.544-21.161 25.125v16.261c0 4.151 3.365 7.515 7.515 7.515h243.345c4.151 0 7.515-3.364 7.515-7.515v-16.261c.001-12.582-9.16-23.058-21.16-25.125zm-100.511-447.863c27.742 1.497 53.328 11.229 74.357 26.788-6.603 5.774-15.66 15.42-21.483 28.7-16.569-6.737-34.404-10.758-52.874-11.621zm-15.03 43.882c-18.469.863-36.298 4.89-52.867 11.627-5.823-13.291-14.885-22.943-21.491-28.72 21.03-15.559 46.616-25.292 74.358-26.788zm101.501 194.731c2.048-25.836.444-49.928-4.889-74.581-.877-4.055-4.872-6.639-8.934-5.755-4.056.877-6.633 4.877-5.755 8.934 5.984 27.663 6.962 54.642 3.074 84.601-20.159 13.737-44.129 22.274-69.968 23.668v-216.565c16.92.872 33.243 4.669 48.376 10.975-.962 4.949-1.428 10.238-1.183 15.887.663 15.223 5.042 29.589 10.112 46.225.673 2.206 1.356 4.449 2.043 6.734 3.424 9.64 16.794 4.887 14.393-4.325-.692-2.303-1.382-4.566-2.06-6.792-4.772-15.657-8.893-29.178-9.473-42.496-.127-2.917.002-5.722.326-8.419 30.403 16.714 54.572 44.13 66.83 78.197-4.096 32.877-19.812 62.194-42.892 83.712zm42.859-118.337c-15.328-24.985-37.13-45.095-62.719-58.43 5.328-12.248 14.188-20.888 19.523-25.293 23.194 21.481 39.02 50.808 43.196 83.723zm-273.696.049c4.168-32.944 20.006-62.297 43.221-83.79 5.346 4.379 14.228 12.997 19.546 25.3-25.617 13.341-47.43 33.476-62.767 58.49zm72.031 11.674c5.07-16.634 9.448-31 10.11-46.222.246-5.648-.221-10.938-1.182-15.887 15.134-6.305 31.457-10.103 48.377-10.975v216.555c-25.454-1.359-49.501-9.585-69.945-23.476-7.148-55.007 3.8-90.989 12.64-119.995zm36.531 156.11c9.218 1.712 18.677 2.606 28.289 2.606 9.627 0 19.046-.904 28.184-2.613.035-.006.069-.002.104-.009l3.043 39.911h-62.661zm142.447 193.626h-228.316v-8.747c0-5.775 4.699-10.474 10.474-10.474h61.613c4.15 0 7.515-3.364 7.515-7.515s-3.365-7.515-7.515-7.515h-50.738l11.822-87.245c1.329-9.809 9.796-17.206 19.695-17.206h122.583c9.899 0 18.366 7.397 19.696 17.206l11.822 87.245h-104.821c-4.15 0-7.515 3.364-7.515 7.515s3.365 7.515 7.515 7.515h115.696c5.775 0 10.473 4.699 10.473 10.474v8.747z"/></g></svg>