<svg id="Capa_1" enable-background="new 0 0 512 512" height="512" viewBox="0 0 512 512" width="512" xmlns="http://www.w3.org/2000/svg"><g><g><path d="m116.127 410.086c-26.185 10.54-40.626 20.214-40.626 20.214l-11.835-27.122c-36.146 18.813-55.666 35.683-55.666 35.683l37.107 19.7.412 45.439s30.56-26.428 85.614-47.65l-15.005-46.265c-.001 0-.001.001-.001.001z" fill="#c61926"/><path d="m448.334 403.179-11.835 27.121s-14.442-9.674-40.626-20.215h-.001l-15.005 46.265c55.054 21.222 85.614 47.65 85.614 47.65l.411-45.439 37.107-19.7c.001 0-19.519-16.87-55.665-35.682z" fill="#c61926"/><g><g><path d="m430.908 443.032 5.564-12.75c-.579-.385-14.952-9.872-40.599-20.197l-6.077 18.738c16.412 6.72 27.987 13 34.013 16.528 2.583 1.514 5.901.425 7.099-2.319z" fill="#b2182b"/></g></g><g><g><path d="m81.092 443.032-5.564-12.75c.579-.385 14.952-9.872 40.599-20.197l6.077 18.738c-16.412 6.72-27.987 13-34.013 16.528-2.583 1.514-5.901.425-7.099-2.319z" fill="#b2182b"/></g></g><path d="m125.261 127.26-42.409 17.148-.214 151.641c-.063 39.221 14.25 77.322 40.785 107.629 26.09 29.798 67.865 62.456 132.577 82.889 64.712-20.433 106.488-53.091 132.577-82.889 26.535-30.307 40.847-68.408 40.785-107.629l-.214-151.641-42.409-17.148z" fill="#ffe27a"/><path d="m404.65 134.502-17.911-7.242h-261.478l-17.911 7.242c-.056 1.681-.095 3.367-.095 5.062 0 82.305 66.595 149.026 148.744 149.026s148.744-66.721 148.744-149.026c.001-1.695-.037-3.381-.093-5.062z" fill="#f9cf58"/><path d="m256 383.615c-54.463 0-98.976 11.274-130.177 22.742 4.022 4.454 8.378 8.958 13.124 13.468 30.074-9.73 69.822-18.21 117.053-18.21 47.23 0 86.978 8.479 117.053 18.21 4.746-4.511 9.103-9.015 13.124-13.468-31.201-11.468-75.714-22.742-130.177-22.742z" fill="#f9cf58"/><path d="m436.499 430.3s-69.671-46.685-180.499-46.685-180.499 46.685-180.499 46.685l-30.394-69.652s81.402-54.546 210.893-54.546 210.893 54.546 210.893 54.546z" fill="#ff4755"/><path d="m256 362.224c-102.595 0-172.299 37.292-189.474 47.51l8.975 20.566s69.67-46.685 180.499-46.685 180.499 46.685 180.499 46.685l8.975-20.566c-17.174-10.218-86.879-47.51-189.474-47.51z" fill="#fc2b3a"/><g><g><path d="m387.315 139.564c0-17.286-10.697-29.759-16.745-44.879-2.567-6.417 1.746-16.62-1.755-22.491-22.922-38.447-64.867-64.194-112.815-64.194-72.523 0-131.315 58.903-131.315 131.564s58.792 131.563 131.315 131.563 131.315-58.903 131.315-131.563z" fill="#5a5a5a"/></g><path d="m256 253.127c-69.503 0-126.385-54.102-131.003-122.564-.201 2.975-.312 5.974-.312 9 0 72.661 58.792 131.564 131.315 131.564s131.315-58.903 131.315-131.564c0-3.026-.111-6.025-.312-9-4.618 68.462-61.5 122.564-131.003 122.564z" fill="#4c4c4c"/><g fill="#e0e0e0"><path d="m148.904 63.415c-12.637 17.809-20.952 38.907-23.434 61.761l38.481 38.881 42.491-5.354 18.93-58.37-24.986-38.461z"/><path d="m206.442 158.704-42.491 5.354-15.458 51.062c14.392 20.518 34.486 36.724 57.975 46.317l49.532-24.572v-42.087z"/><path d="m363.097 63.415c12.637 17.809 20.952 38.907 23.434 61.761l-38.481 38.881-42.491-5.354-18.93-58.37 24.986-38.461z"/><path d="m305.558 158.704 42.491 5.354 15.458 51.062c-14.392 20.518-34.486 36.724-57.975 46.317l-49.532-24.572v-42.087z"/><path d="m286.629 100.334 24.986-38.461-22.135-49.551c-10.689-2.816-21.908-4.322-33.48-4.322-11.571 0-22.791 1.506-33.48 4.322l-22.135 49.551 24.986 38.461z"/></g><path d="m152.358 202.352-3.865 12.767c14.392 20.518 34.486 36.724 57.975 46.317l22.422-11.122c-30.902-6.499-57.805-23.881-76.532-47.962z" fill="#c4c4c4"/><path d="m283.11 250.314 22.422 11.122c23.49-9.593 43.583-25.799 57.975-46.317l-3.865-12.767c-18.727 24.081-45.63 41.463-76.532 47.962z" fill="#c4c4c4"/></g></g><path d="m509.485 433.565c-.778-.672-18.417-15.78-51.039-33.441l15.818-36.238c1.455-3.332.315-7.225-2.706-9.249-.693-.465-14.2-9.426-38.684-20.095 2.932-12.602 4.419-25.49 4.399-38.403l-.214-151.949c-.004-3.059-1.863-5.81-4.7-6.956l-38.356-15.504c-.898-7.123-2.323-14.161-4.304-21.045-1.148-3.99-5.316-6.296-9.303-5.143-3.99 1.148-6.294 5.312-5.145 9.3 1.639 5.693 2.86 11.504 3.668 17.388l-33.405 33.741-34.176-4.305-16.395-50.538 20.789-31.99 43.552 1.304c1.767 2.652 3.45 5.374 5.022 8.182 2.027 3.624 6.612 4.917 10.231 2.887 3.624-2.027 4.916-6.606 2.888-10.228-24.621-43.97-71.154-71.283-121.44-71.283-70.768 0-129.364 53.183-138.035 121.735l-38.339 15.497c-2.837 1.147-4.696 3.898-4.7 6.956l-.104 73.75c-.006 4.151 3.355 7.52 7.507 7.526h.011c4.146 0 7.512-3.358 7.518-7.505l.097-68.69 26.915-10.88c-.002.319-.012.636-.012.955 0 76.835 62.419 139.346 139.142 139.346s139.142-62.51 139.142-139.346c0-.319-.014-.638-.017-.957l26.92 10.881.207 146.89c.017 10.937-1.162 21.852-3.473 32.56-1.884-.735-3.805-1.473-5.783-2.211-33.994-12.683-88.827-27.802-156.997-27.802s-123.002 15.122-156.995 27.805c-1.977.738-3.898 1.475-5.782 2.211-2.311-10.709-3.491-21.624-3.473-32.561l.067-48.139c.006-4.151-3.355-7.52-7.507-7.526-.004 0-.007 0-.011 0-4.147 0-7.512 3.358-7.518 7.505l-.068 48.137c-.021 12.913 1.465 25.801 4.397 38.405-24.484 10.669-37.991 19.63-38.684 20.095-3.021 2.024-4.16 5.917-2.706 9.249l15.818 36.238c-32.622 17.661-50.26 32.769-51.039 33.441-3.528 2.861-3.504 9.849 1.391 12.324l33.243 17.642.371 41.059c-.031 5.818 7.287 9.933 12.43 5.622.074-.065 7.635-6.539 21.673-15.461 12.936-8.222 34.181-20.268 61.934-30.963 3.727-1.436 5.679-5.534 4.447-9.33l-11.638-35.873c32.945 33.913 75.75 59.337 127.386 75.636.978.21 2.097.641 4.526 0 51.635-16.299 94.441-41.723 127.386-75.636l-11.638 35.873c-1.232 3.797.72 7.895 4.447 9.33 27.754 10.695 48.999 22.741 61.934 30.963 14.038 8.922 21.599 15.396 21.667 15.456 4.107 3.927 12.45.956 12.436-5.617l.371-41.059 33.243-17.642c4.295-2.163 5.468-8.691 1.393-12.324zm-212.658-277.908-40.842 29.72-40.842-29.72 15.606-48.105h50.472zm50.359-100.617-30.515-.914-13.234-29.616c16.537 6.867 31.498 17.259 43.749 30.53zm-119.397-36.771c9.062-2.117 18.5-3.238 28.196-3.238 9.611 0 19.066 1.127 28.211 3.272l19.004 42.528-20.594 31.69h-53.241l-20.594-31.69zm-19.241 6.208-13.249 29.65-30.432.911c12.1-13.111 26.974-23.613 43.681-30.561zm-55.808 45.962 43.498-1.302 20.789 31.99-16.395 50.538-34.176 4.305-33.398-33.733c2.618-18.956 9.513-36.56 19.682-51.798zm-6.821 126.293c-8.513-16.316-13.521-34.745-14.001-54.282l23.309 23.544zm10.598 16.88 12.984-42.876 34.793-4.382 44.173 32.145v33.686l-42.335 20.994c-19.758-8.717-36.837-22.441-49.615-39.567zm99.468 50.049c-10.279 0-20.266-1.267-29.824-3.637l29.824-14.79 29.824 14.79c-9.558 2.37-19.545 3.637-29.824 3.637zm49.853-10.483-42.335-20.994v-33.687l44.173-32.145 34.793 4.382 12.984 42.876c-12.777 17.128-29.857 30.852-49.615 39.568zm60.213-56.446-9.308-30.738 23.309-23.544c-.48 19.537-5.488 37.966-14.001 54.282zm-302.871 285.554c-4.14 2.639-7.742 5.072-10.79 7.214l-.276-30.578c-.026-2.757-1.557-5.278-3.993-6.57l-26.932-14.294c7.849-5.742 20.798-14.514 38.372-24.105l8.61 19.725c1.639 3.862 6.859 5.889 11.069 3.241.138-.092 11.494-7.596 31.911-16.426l10.346 31.892c-25.856 10.52-45.796 21.92-58.317 29.901zm192.805-3.122c-47.267-15.254-86.568-38.507-117.037-69.206 28.068-9.238 68.415-18.55 117.037-18.55 8.885 0 17.853.31 26.655.923 4.152.286 7.734-2.835 8.021-6.976.289-4.141-2.836-7.73-6.977-8.018-9.148-.636-18.468-.959-27.699-.959-92.377 0-156.231 31.307-177.471 43.415l-24.41-55.923c8.203-4.79 25.637-14.174 50.652-23.467 32.739-12.164 85.551-26.664 151.229-26.664s118.49 14.5 151.229 26.664c25.017 9.294 42.452 18.678 50.652 23.466l-24.414 55.933c-16.398-9.323-58.303-30.116-119.31-39.158-4.099-.616-7.93 2.225-8.539 6.332-.609 4.105 2.227 7.927 6.334 8.536 23.351 3.461 43.872 8.783 61.062 14.469-30.465 30.687-69.758 53.933-117.014 69.183zm207.864-26.811c-2.436 1.292-3.967 3.813-3.993 6.57l-.276 30.577c-3.048-2.142-6.65-4.575-10.79-7.214-12.522-7.981-32.461-19.381-58.317-29.9l10.334-31.849c20.392 8.806 31.696 16.232 31.917 16.38 3.229 2.339 9.123 1.31 11.075-3.237l8.61-19.724c17.525 9.568 30.497 18.355 38.366 24.108z"/></g></svg>