<svg id="Capa_1" enable-background="new 0 0 512 512" height="512" viewBox="0 0 512 512" width="512" xmlns="http://www.w3.org/2000/svg"><g><g><path d="m256 141.581c-59.807 0-108.29 48.483-108.29 108.29 0 46.376 29.156 85.936 70.135 101.368h76.31c40.979-15.432 70.135-54.993 70.135-101.368 0-59.807-48.483-108.29-108.29-108.29z" fill="#ffe27a"/><path d="m148.258 260.717c.614 6.166 1.741 12.182 3.345 18h208.794c1.604-5.818 2.731-11.834 3.345-18z" fill="#f9cf58"/><path d="m350.553 504h-189.106v-15.788c0-9.646 7.819-17.465 17.465-17.465h154.176c9.646 0 17.465 7.819 17.465 17.465z" fill="#ff9838"/><path d="m161.489 487.374c-.013.28-.042.556-.042.839v15.787h189.106v-15.788c0-.283-.029-.559-.042-.839h-189.022z" fill="#ff8709"/><path d="m302.116 417.619h-92.232c-7.737 0-14.552 5.091-16.747 12.51l-12.017 40.618h149.762l-12.017-40.618c-2.197-7.419-9.012-12.51-16.749-12.51z" fill="#ffe27a"/><path d="m186.445 452.747-5.326 18h149.762l-5.326-18z" fill="#f9cf58"/><path d="m256 141.581c5.831 0 11.553.464 17.135 1.351v-34.178l-12.478-6.56c-2.916-1.533-6.399-1.533-9.314 0l-12.478 6.56v34.178c5.582-.888 11.304-1.351 17.135-1.351z" fill="#ffba57"/><path d="m233.398 379.853-7.778 37.766h60.76l-7.778-37.766z" fill="#ffba57"/><path d="m282.309 397.853-3.707-18h-45.204l-3.707 18z" fill="#ffac3e"/><path d="m264.974 13.579 9.143 18.525c1.458 2.954 4.276 5.001 7.535 5.475l20.444 2.97c8.208 1.193 11.486 11.28 5.546 17.07l-14.793 14.42c-2.359 2.299-3.435 5.612-2.878 8.858l3.492 20.361c1.402 8.175-7.179 14.41-14.521 10.55l-18.285-9.613c-2.916-1.533-6.399-1.533-9.314 0l-18.285 9.613c-7.342 3.86-15.923-2.374-14.521-10.55l3.492-20.361c.557-3.246-.519-6.559-2.878-8.858l-14.793-14.42c-5.94-5.79-2.662-15.877 5.546-17.07l20.443-2.97c3.26-.474 6.077-2.521 7.535-5.475l9.143-18.525c3.672-7.438 14.278-7.438 17.949 0z" fill="#ffe27a"/><g><path d="m258.327 82.969c-1.457-.766-3.197-.766-4.653 0l-35.163 18.486c-1.231 8.077 7.265 14.181 14.547 10.352l18.285-9.613c2.915-1.533 6.399-1.533 9.314 0l18.285 9.613c7.282 3.828 15.778-2.275 14.547-10.352z" fill="#f9cf58"/></g><path d="m273.135 108.754-12.478-6.56c-2.916-1.533-6.399-1.533-9.314 0l-12.478 6.56v18l12.478-6.56c2.915-1.533 6.398-1.533 9.314 0l12.478 6.56z" fill="#ffac3e"/><path d="m292.814 379.853h-73.629c-7.901 0-14.307-6.405-14.307-14.307 0-7.901 6.405-14.307 14.307-14.307h73.629c7.901 0 14.307 6.405 14.307 14.307 0 7.902-6.405 14.307-14.307 14.307z" fill="#ff9838"/><path d="m292.814 365.546h-73.629c-5.292 0-9.902-2.881-12.377-7.153-1.22 2.106-1.93 4.544-1.93 7.153 0 7.901 6.405 14.307 14.307 14.307h73.629c7.901 0 14.307-6.405 14.307-14.307 0-2.609-.71-5.047-1.93-7.153-2.474 4.272-7.084 7.153-12.377 7.153z" fill="#ff8709"/><path d="m368.748 260.717h-225.496c-7.901 0-14.307-6.405-14.307-14.307 0-7.901 6.405-14.307 14.307-14.307h225.495c7.901 0 14.307 6.405 14.307 14.307 0 7.901-6.405 14.307-14.306 14.307z" fill="#ff9838"/><path d="m368.748 246.41h-225.496c-5.292 0-9.902-2.881-12.377-7.153-1.22 2.106-1.93 4.544-1.93 7.153 0 7.901 6.405 14.307 14.307 14.307h225.495c7.901 0 14.307-6.405 14.307-14.307 0-2.609-.71-5.047-1.93-7.153-2.474 4.272-7.084 7.153-12.376 7.153z" fill="#ff8709"/></g><path d="m347.646 320.984c12.006-15.454 19.84-33.593 22.893-52.806 11.317-.809 20.278-10.268 20.278-21.787 0-11.966-9.669-21.71-21.604-21.843-5.432-24.345-18.682-46.476-37.793-62.844-14.642-12.54-32.115-21.142-50.737-25.198v-16.566c4.588.801 9.359-.249 13.28-3.098 5.442-3.953 8.116-10.527 6.98-17.158l-3.499-20.401c-.14-.815.13-1.646.722-2.223l14.822-14.447c4.817-4.696 6.518-11.586 4.439-17.983-2.078-6.397-7.505-10.972-14.16-11.938l-20.483-2.976c-.819-.119-1.526-.633-1.892-1.375l-9.16-18.562c-2.979-6.032-9.006-9.779-15.732-9.779s-12.753 3.747-15.73 9.778l-9.161 18.562c-.366.742-1.073 1.255-1.892 1.375l-20.483 2.976c-6.656.967-12.083 5.541-14.161 11.938-2.079 6.397-.378 13.288 4.439 17.983l14.822 14.447c.592.577.862 1.408.722 2.224l-3.499 20.4c-1.137 6.63 1.538 13.204 6.979 17.158 3.075 2.234 6.672 3.369 10.293 3.369.997 0 1.997-.09 2.987-.263v16.542c-14.821 3.208-28.889 9.295-41.52 18.088-3.406 2.371-4.245 7.055-1.874 10.461 2.372 3.407 7.055 4.246 10.461 1.874 16.952-11.802 36.876-18.04 57.616-18.04 24.074 0 47.387 8.612 65.644 24.248 15.781 13.515 26.984 31.531 32.131 51.423h-195.54c3.646-14.094 10.337-27.322 19.634-38.663 2.631-3.209 2.162-7.944-1.047-10.575-3.211-2.632-7.945-2.163-10.576 1.047-11.505 14.035-19.538 30.588-23.466 48.197-11.931.137-21.596 9.88-21.596 21.843 0 11.519 8.962 20.978 20.278 21.787 3.053 19.213 10.887 37.352 22.893 52.806 10.173 13.095 22.954 23.786 37.456 31.458-2.847 3.69-4.546 8.308-4.546 13.318 0 12.048 9.801 21.849 21.849 21.849h5.02l-4.698 22.811h-9.642c-11.001 0-20.865 7.368-23.986 17.917l-10.521 35.562c-12.153 1.697-21.539 12.154-21.539 24.767v15.819c0 4.151 3.364 7.515 7.515 7.515h189.477c4.15 0 7.515-3.364 7.515-7.515v-15.819c0-12.613-9.386-23.07-21.539-24.767l-10.522-35.562c-3.121-10.549-12.984-17.917-23.986-17.917h-9.642l-4.698-22.811h5.02c12.048 0 21.849-9.801 21.849-21.849 0-5.01-1.699-9.629-4.546-13.318 14.502-7.673 27.283-18.364 37.456-31.459zm-120.776-216.302c-.472-.342-1.23-1.118-1-2.458l3.499-20.399c.977-5.692-.909-11.497-5.045-15.528l-14.822-14.447c-.973-.948-.816-2.021-.635-2.575.18-.555.684-1.515 2.028-1.71l20.483-2.976c5.714-.831 10.652-4.418 13.208-9.596l9.161-18.562c.601-1.218 1.67-1.4 2.253-1.4s1.652.182 2.253 1.4l9.16 18.562c2.556 5.178 7.494 8.765 13.208 9.596l20.484 2.976c1.344.196 1.848 1.156 2.028 1.71.181.555.338 1.627-.635 2.575l-14.822 14.447c-4.136 4.031-6.021 9.837-5.045 15.527l3.499 20.4c.23 1.34-.528 2.115-1 2.458-.473.342-1.443.825-2.646.191l-18.32-9.63c-5.112-2.689-11.216-2.689-16.327-.001l-18.321 9.631c-1.203.635-2.174.152-2.646-.191zm19.476 29.568v-21.245l8.485-4.461c.732-.383 1.606-.384 2.339.001l8.484 4.46v21.246c-3.201-.267-6.421-.408-9.654-.408-3.238-.001-6.456.144-9.654.407zm65.434 298.352 9.187 31.051h-76.979c-4.15 0-7.515 3.364-7.515 7.515s3.365 7.515 7.515 7.515h89.251c5.505 0 9.984 4.479 9.984 9.984v8.304h-174.447v-8.304c0-5.505 4.479-9.984 9.984-9.984h35.169c4.15 0 7.515-3.364 7.515-7.515s-3.365-7.515-7.515-7.515h-22.897l9.187-31.051c1.246-4.211 5.183-7.152 9.574-7.152h92.413c4.392 0 8.329 2.94 9.574 7.152zm-34.56-22.181h-42.44l4.698-22.811h33.044zm15.667-37.841h-73.773c-3.761 0-6.82-3.06-6.82-6.82s3.059-6.82 6.82-6.82h73.773c3.761 0 6.82 3.06 6.82 6.82 0 3.761-3.06 6.82-6.82 6.82zm-.091-28.669h-73.591c-32.406-12.697-56.17-41.742-62.479-75.67h122.475c4.15 0 7.515-3.364 7.515-7.515s-3.365-7.515-7.515-7.515h-136.169c-3.761 0-6.82-3.06-6.82-6.82s3.059-6.82 6.82-6.82h225.936c3.761 0 6.82 3.06 6.82 6.82s-3.059 6.82-6.82 6.82h-59.709c-4.15 0-7.515 3.364-7.515 7.515s3.365 7.515 7.515 7.515h46.015c-6.308 33.928-30.073 62.973-62.478 75.67z"/></g></svg>