<svg id="Capa_1" enable-background="new 0 0 512.001 512.001" height="512" viewBox="0 0 512.001 512.001" width="512" xmlns="http://www.w3.org/2000/svg"><g><g><g><path d="m379.474 364.639 60.564-16.254c6.208 23.187-7.534 47.022-30.694 53.238l-55.244 14.827c9.201-14.82 17.872-31.982 25.374-51.811z" fill="#ffe27a"/></g><path d="m409.345 383.623-43.34 11.631c-3.826 7.546-7.813 14.604-11.905 21.195l55.245-14.826c22.412-6.015 36.003-28.53 31.231-50.99-3.284 15.483-14.914 28.611-31.231 32.99z" fill="#f9cf58"/><path d="m394.028 315.733 78.226-20.994c6.208 23.187-7.534 47.022-30.693 53.238l-62.086 16.662c5.589-14.776 10.529-31.033 14.553-48.906z" fill="#ffe27a"/><path d="m441.56 329.977-55.293 14.839c-2.134 6.88-4.4 13.496-6.793 19.823l62.086-16.662c22.412-6.014 36.002-28.53 31.231-50.99-3.284 15.482-14.914 28.611-31.231 32.99z" fill="#f9cf58"/><path d="m401.908 268.617 100.601-26.998c6.208 23.187-7.534 47.022-30.694 53.238l-77.788 20.876c3.288-14.601 5.961-30.284 7.881-47.116z" fill="#ffe27a"/><path d="m471.816 276.857-73.983 19.855c-1.155 6.531-2.422 12.878-3.806 19.021l77.788-20.876c22.412-6.015 36.002-28.53 31.231-50.99-3.283 15.482-14.913 28.611-31.23 32.99z" fill="#f9cf58"/><g><path d="m132.527 364.639-60.564-16.254c-6.208 23.187 7.534 47.022 30.694 53.238l55.245 14.826c-9.202-14.819-17.874-31.981-25.375-51.81z" fill="#ffe27a"/></g><path d="m102.656 383.623c-16.317-4.379-27.947-17.508-31.231-32.99-4.771 22.46 8.819 44.976 31.231 50.99l55.245 14.826c-4.092-6.591-8.079-13.649-11.905-21.195z" fill="#f9cf58"/><path d="m117.973 315.733-78.226-20.994c-6.208 23.187 7.534 47.022 30.694 53.238l62.086 16.662c-5.59-14.776-10.53-31.033-14.554-48.906z" fill="#ffe27a"/><path d="m70.44 329.977c-16.317-4.379-27.947-17.508-31.231-32.99-4.772 22.461 8.819 44.976 31.231 50.99l62.086 16.662c-2.393-6.327-4.659-12.943-6.793-19.823z" fill="#f9cf58"/><path d="m110.092 268.617-100.601-26.998c-6.208 23.187 7.534 47.022 30.693 53.238l77.788 20.876c-3.286-14.601-5.96-30.284-7.88-47.116z" fill="#ffe27a"/><path d="m40.185 276.857c-16.317-4.379-27.947-17.508-31.231-32.99-4.772 22.461 8.819 44.976 31.231 50.99l77.788 20.876c-1.383-6.143-2.65-12.49-3.806-19.021z" fill="#f9cf58"/><path d="m256 184.424 147.933 62.21c-15.059 213.939-147.933 257.366-147.933 257.366s-132.874-43.428-147.933-257.366z" fill="#ffcb5b"/><path d="m257.78 485.352c-1.147.441-2.412.441-3.559 0-15.35-5.899-125.299-54.39-144.634-239.357l-1.52.639c15.059 213.939 147.933 257.366 147.933 257.366s132.874-43.428 147.933-257.366l-1.52-.639c-19.334 184.967-129.283 233.458-144.633 239.357z" fill="#f7b737"/><path d="m338.117 184.424h-164.233c-17.987 0-32.569-14.581-32.569-32.569v-8.104h229.37v8.104c0 17.988-14.581 32.569-32.568 32.569z" fill="#ffe27a"/><path d="m338.117 166.424h-164.233c-14.536 0-26.844-9.525-31.033-22.672h-1.536v8.104c0 17.987 14.581 32.569 32.569 32.569h164.233c17.987 0 32.569-14.581 32.569-32.569v-8.104h-1.536c-4.19 13.147-16.497 22.672-31.033 22.672z" fill="#f9cf58"/><path d="m152.012 8h207.977v135.751h-207.977z" fill="#0083fd"/><path d="m152.012 125.752h207.977v18h-207.977z" fill="#0072fc"/><path d="m202.046 8h107.908v135.751h-107.908z" fill="#8bcaff"/><path d="m202.046 125.752h107.908v18h-107.908z" fill="#60b8ff"/><path d="m256 228.599 107.036 45.012c-10.895 154.793-107.036 186.215-107.036 186.215s-96.14-31.422-107.036-186.216z" fill="#ff9838"/><path d="m254.147 441.136c-12.833-5.099-88.429-40.352-103.542-168.215l-1.641.69c10.896 154.793 107.036 186.215 107.036 186.215s96.14-31.422 107.036-186.216l-1.641-.69c-15.113 127.863-90.709 163.116-103.542 168.215-1.193.475-2.512.475-3.706.001z" fill="#ff8709"/><path d="m264.856 287.144 9.022 18.302c1.439 2.918 4.219 4.941 7.436 5.409l20.174 2.935c8.1 1.178 11.335 11.145 5.473 16.865l-14.598 14.247c-2.328 2.271-3.39 5.544-2.84 8.752l3.446 20.116c1.384 8.077-7.084 14.237-14.329 10.423l-18.044-9.498c-2.877-1.514-6.314-1.514-9.191 0l-18.044 9.498c-7.245 3.814-15.713-2.346-14.329-10.423l3.446-20.116c.549-3.207-.513-6.48-2.84-8.752l-14.598-14.247c-5.861-5.72-2.627-15.686 5.473-16.865l20.174-2.935c3.217-.468 5.997-2.491 7.436-5.409l9.022-18.302c3.622-7.349 14.089-7.349 17.711 0z" fill="#fff5f5"/><g><path d="m292.963 373.731-34.634-18.229c-1.458-.767-3.2-.767-4.658 0l-34.634 18.23-.006.038c-1.394 8.074 7.084 14.237 14.334 10.421l18.039-9.495c2.877-1.514 6.315-1.514 9.191 0l18.034 9.492c7.25 3.816 15.728-2.343 14.339-10.418z" fill="#efe2dd"/></g></g><g><path d="m366.161 266.725-107.248-45.101c-1.863-.785-3.963-.785-5.826 0l-107.248 45.101c-2.966 1.247-4.809 4.245-4.583 7.454 5.794 82.315 35.674 130.297 59.721 156.055 26.463 28.347 51.63 36.798 52.689 37.145 1.008.224 2.165.684 4.669 0 1.34-.438 33.157-11.162 62.905-49.085 2.561-3.265 1.991-7.99-1.275-10.551-3.266-2.562-7.989-1.991-10.551 1.275-13.969 17.81-28.374 28.84-37.999 34.957-6.937 4.41-12.461 6.975-15.407 8.207-6.455-2.712-25.265-11.845-44.698-32.907-38.417-41.64-51.022-98.539-54.644-140.799l99.334-41.773 99.336 41.774c-3.503 41.25-13.582 77.054-29.987 106.487-2.021 3.625-.72 8.202 2.906 10.222 3.626 2.022 8.202.72 10.223-2.905 18.192-32.64 29.048-72.374 32.267-118.102.226-3.21-1.617-6.208-4.584-7.454z"/><path d="m510.256 239.653c-.888-3.389-4.876-6.479-9.207-5.314l-90.27 24.226c.349-3.779.673-7.577.943-11.415.226-3.21-1.617-6.208-4.583-7.455l-113.884-47.891h45.024c22.138 0 40.148-18.01 40.148-40.148v-.606h13.118c4.15 0 7.515-3.364 7.515-7.515s-3.365-7.515-7.515-7.515h-23.836v-128.505c0-4.151-3.365-7.515-7.515-7.515h-208.388c-4.15 0-7.515 3.364-7.515 7.515v128.505h-23.836c-4.15 0-7.515 3.364-7.515 7.515s3.365 7.515 7.515 7.515h13.118v.606c0 22.137 18.01 40.148 40.148 40.148h45.023l-113.884 47.891c-2.966 1.248-4.809 4.246-4.583 7.455.27 3.838.594 7.636.943 11.415l-32.399-8.695c-4.003-1.068-8.13 1.302-9.206 5.31-1.076 4.009 1.302 8.13 5.31 9.207l38.017 10.203c1.317 10.544 2.973 20.821 4.926 30.849l-66.164-17.756c-16.682-4.478-27.491-20.055-26.627-36.675l20.798 5.582c4.007 1.07 8.13-1.302 9.206-5.31 1.076-4.009-1.301-8.13-5.31-9.207l-28.821-7.734c-3.377-.926-8.048.979-9.207 5.314-6.624 24.739 6.17 50.187 28.985 60.072-2.924 23.142 10.379 45.591 32.243 54.016-3.004 24.815 12.629 48.779 37.431 55.435l52.515 14.094c8.733 13.735 18.462 26.373 29.133 37.804 36.076 38.643 70.179 50.098 71.613 50.567 1.007.224 2.165.684 4.669 0 1.434-.469 35.538-11.924 71.613-50.567 10.671-11.43 20.4-24.068 29.133-37.804l52.516-14.094c24.802-6.656 40.434-30.62 37.431-55.435 21.864-8.425 35.168-30.874 32.243-54.016 22.818-9.885 35.612-35.333 28.988-60.072zm-157.576-103.633h-35.104v-45.465c0-4.151-3.365-7.515-7.515-7.515s-7.515 3.364-7.515 7.515v45.465h-93.092v-120.99h93.092v45.466c0 4.151 3.365 7.515 7.515 7.515s7.515-3.364 7.515-7.515v-45.466h35.104zm-193.359-120.99h35.104v120.99h-35.104zm-10.718 136.626v-.606h214.795v.606c0 13.85-11.268 25.118-25.118 25.118h-82.27c-.007 0-.013 0-.02 0h-82.269c-13.85 0-25.118-11.269-25.118-25.118zm-103.203 152.579 66.03 17.72c2.607 11.004 5.617 21.66 9.025 31.949l-48.434-12.998c-16.682-4.475-27.484-20.053-26.621-36.671zm58.9 90.425c-16.681-4.477-27.483-20.055-26.621-36.673l48.982 13.145c1.208 3.088 2.442 6.152 3.727 9.165 3.615 8.473 7.547 16.644 11.765 24.52zm215.32 55.449c-28.286 30.557-55.623 43.128-63.619 46.357-8.017-3.238-35.345-15.81-63.621-46.357-19.673-21.253-35.972-46.942-48.443-76.356-15.071-35.544-24.572-76.667-28.262-122.301l140.325-59.012 140.325 59.011c-3.69 45.634-13.191 86.757-28.261 122.301-12.472 29.414-28.771 55.104-48.444 76.357zm88.081-55.45-37.853 10.159c4.217-7.877 8.149-16.048 11.765-24.52 1.286-3.013 2.519-6.077 3.727-9.165l48.982-13.145c.862 16.617-9.94 32.195-26.621 36.671zm32.279-53.752-48.434 12.998c3.408-10.289 6.418-20.945 9.025-31.949l66.03-17.721c.863 16.618-9.939 32.196-26.621 36.672zm30.315-53.226-66.165 17.757c1.953-10.029 3.609-20.305 4.926-30.849l87.865-23.581c.865 16.619-9.944 32.197-26.626 36.673z"/><path d="m312.311 336.187c4.78-4.664 6.466-11.509 4.4-17.863-2.064-6.348-7.448-10.89-14.051-11.851l-20.214-2.94c-.774-.112-1.444-.601-1.792-1.306l-9.04-18.337c-2.954-5.993-8.937-9.716-15.614-9.716s-12.66 3.722-15.614 9.715l-9.04 18.339c-.347.704-1.017 1.193-1.792 1.305l-20.214 2.94c-6.602.961-11.987 5.502-14.051 11.851-2.066 6.354-.379 13.199 4.4 17.862l14.627 14.275c.564.551.821 1.343.688 2.121l-3.454 20.158c-1.128 6.588 1.53 13.119 6.937 17.044 5.401 3.921 12.424 4.427 18.329 1.317l18.078-9.516c.692-.366 1.519-.365 2.21-.001l18.08 9.517c2.571 1.353 5.352 2.022 8.121 2.022 3.591 0 7.159-1.125 10.208-3.339 5.407-3.926 8.064-10.457 6.936-17.045l-3.453-20.158c-.133-.777.124-1.569.687-2.12zm-25.124 3.519c-4.102 4.002-5.972 9.765-5.004 15.415l3.453 20.157c.219 1.28-.502 2.019-.952 2.345-.446.324-1.365.778-2.498.18l-18.082-9.518c-2.537-1.335-5.32-2.002-8.103-2.002s-5.568.668-8.105 2.003l-18.079 9.517c-1.135.599-2.053.143-2.499-.18-.45-.327-1.171-1.066-.953-2.345l3.454-20.157c.968-5.651-.903-11.413-5.005-15.415l-14.627-14.276c-.927-.904-.776-1.929-.604-2.459.171-.526.649-1.439 1.921-1.624l20.213-2.94c5.674-.825 10.575-4.389 13.11-9.534l9.04-18.339c.571-1.158 1.581-1.33 2.133-1.33s1.562.172 2.133 1.33v.001l9.039 18.337c2.536 5.145 7.437 8.71 13.11 9.534l20.213 2.94c1.273.185 1.751 1.098 1.922 1.624.172.53.323 1.555-.604 2.46z"/></g></g></svg>