<svg id="Capa_1" enable-background="new 0 0 512 512" height="512" viewBox="0 0 512 512" width="512" xmlns="http://www.w3.org/2000/svg"><g><g><path d="m377.565 504h-243.13v-16.247c0-9.926 8.047-17.973 17.973-17.973h207.185c9.926 0 17.973 8.047 17.973 17.973v16.247z" fill="#5a5a5a"/><path d="m134.523 486c-.056.577-.088 1.161-.088 1.753v16.247h243.13v-16.247c0-.592-.032-1.176-.088-1.753z" fill="#4c4c4c"/><path d="m317.237 350.406h-122.474c-13.694 0-25.28 10.122-27.118 23.692l-12.965 95.683h202.641l-12.965-95.683c-1.839-13.57-13.425-23.692-27.119-23.692z" fill="#e0e0e0"/><path d="m157.118 451.78-2.439 18h202.642l-2.439-18z" fill="#cecece"/><path d="m256 288.731c-11.897 0-23.386-1.206-34.446-3.384l-4.96 65.06h78.811l-4.96-65.06c-11.06 2.178-22.549 3.384-34.445 3.384z" fill="#9e9e9e"/><path d="m256 288.731c128.669 0 209.982-140.365 209.982-140.365s-81.313-140.366-209.982-140.366-209.982 140.365-209.982 140.365 81.313 140.366 209.982 140.366z" fill="#ff9838"/><path d="m256 306.731c12.383 0 24.322-1.311 35.797-3.661l-1.351-17.724c-11.06 2.178-22.549 3.384-34.446 3.384s-23.386-1.206-34.446-3.384l-1.351 17.724c11.475 2.35 23.414 3.661 35.797 3.661z" fill="#898989"/><path d="m256 270.731c-108.818 0-183.759-100.388-204.294-131.365-3.746 5.651-5.688 9-5.688 9s81.313 140.365 209.982 140.365 209.982-140.365 209.982-140.365-1.942-3.349-5.688-9c-20.535 30.977-95.476 131.365-204.294 131.365z" fill="#ff8709"/><path d="m398.892 68.622v159.488c42.886-37.97 67.089-79.744 67.089-79.744s-24.203-41.774-67.089-79.744z" fill="#5a5a5a"/><path d="m113.108 228.109v-159.487c-42.886 37.97-67.089 79.744-67.089 79.744s24.203 41.773 67.089 79.743z" fill="#5a5a5a"/><g fill="#4c4c4c"><path d="m398.892 210.109v18c42.886-37.97 67.09-79.744 67.09-79.744s-1.939-3.345-5.688-9c-9.5 14.332-30.644 43.512-61.402 70.744z"/><path d="m51.706 139.366c-3.749 5.655-5.688 9-5.688 9s24.203 41.774 67.089 79.744v-18c-30.757-27.233-51.9-56.413-61.401-70.744z"/></g></g><g><path d="m145.773 260.926c2.444 0 4.841-1.191 6.285-3.385 2.281-3.468 1.32-8.127-2.148-10.408-10.627-6.99-20.493-14.647-29.567-22.523v-152.944c16.851-14.599 34.292-26.542 52.017-35.589 27.364-13.966 55.504-21.048 83.64-21.048 18.851 0 37.821 3.192 56.385 9.486 3.928 1.332 8.197-.772 9.529-4.704 1.333-3.929-.773-8.197-4.704-9.529-20.12-6.822-40.714-10.282-61.21-10.282-30.608 0-61.119 7.671-90.685 22.8-23.454 12.001-46.357 28.697-68.071 49.623-36.819 35.483-57.285 70.491-58.138 71.964-1.35 2.33-1.35 5.204 0 7.534 1.541 2.658 38.465 65.613 102.545 107.766 1.272.838 2.705 1.239 4.122 1.239zm-91.344-112.774c6.063-9.585 23.807-35.995 50.885-62.61v125.165c-27.11-26.685-44.832-53.001-50.885-62.555z"/><path d="m472.894 144.387c-1.929-3.331-48.161-82.032-127.019-122-3.702-1.876-8.224-.396-10.1 3.305-1.877 3.701-.396 8.224 3.305 10.1 19.637 9.953 37.256 22.632 52.576 35.933v152.917c-16.851 14.6-34.292 26.543-52.018 35.589-27.363 13.967-55.504 21.049-83.64 21.049-27.157 0-54.34-6.602-80.795-19.623-3.725-1.829-8.228-.298-10.061 3.425s-.3 8.228 3.424 10.061c14.778 7.273 29.793 12.673 44.929 16.206l-3.943 51.728h-14.911c-17.399 0-32.281 13.002-34.618 30.244l-12.16 89.741c-12.012 2.068-21.182 12.552-21.182 25.146v16.279c0 4.151 3.365 7.515 7.515 7.515h243.606c4.151 0 7.515-3.364 7.515-7.515v-16.279c0-12.594-9.171-23.079-21.184-25.146l-12.16-89.74c-2.336-17.242-17.218-30.244-34.617-30.244h-14.911l-3.944-51.732c16.245-3.792 32.35-9.733 48.183-17.835 23.455-12.001 46.357-28.698 68.071-49.624 36.819-35.483 57.285-70.491 58.138-71.964 1.352-2.331 1.352-5.206.001-7.536zm-135.812 230.951 11.835 87.346h-104.929c-4.15 0-7.515 3.364-7.515 7.515s3.365 7.515 7.515 7.515h115.807c5.786 0 10.493 4.707 10.493 10.493v8.764h-228.576v-8.764c0-5.786 4.707-10.493 10.493-10.493h61.725c4.15 0 7.515-3.364 7.515-7.515s-3.365-7.515-7.515-7.515h-50.847l11.836-87.346c1.331-9.824 9.811-17.232 19.725-17.232h122.714c9.913 0 18.393 7.408 19.724 17.232zm-49.709-32.262h-62.746l3.725-48.856c9.193 1.391 18.418 2.09 27.649 2.09 9.232 0 18.456-.711 27.647-2.101zm119.314-132.31v-125.133c27.122 26.693 44.83 52.979 50.884 62.526-6.065 9.587-23.808 35.995-50.884 62.607z"/><path d="m302.601 140.64v-20.708c0-4.151-3.364-7.515-7.515-7.515s-7.515 3.364-7.515 7.515v20.708h-24.057v-20.708c0-4.151-3.364-7.515-7.515-7.515-4.15 0-7.515 3.364-7.515 7.515v20.708h-24.057v-20.708c0-4.151-3.364-7.515-7.515-7.515-4.15 0-7.515 3.364-7.515 7.515v20.708h-19.603c-4.15 0-7.515 3.364-7.515 7.515s3.365 7.515 7.515 7.515h19.603v20.709c0 4.151 3.365 7.515 7.515 7.515s7.515-3.364 7.515-7.515v-20.709h24.057v20.709c0 4.151 3.365 7.515 7.515 7.515 4.151 0 7.515-3.364 7.515-7.515v-20.709h24.057v20.709c0 4.151 3.364 7.515 7.515 7.515s7.515-3.364 7.515-7.515v-20.709h19.604c4.151 0 7.515-3.364 7.515-7.515s-3.364-7.515-7.515-7.515z"/></g></g></svg>