<svg id="Capa_1" enable-background="new 0 0 512 512" height="512" viewBox="0 0 512 512" width="512" xmlns="http://www.w3.org/2000/svg"><g><g><path d="m377.435 504h-242.87v-16.229c0-9.915 8.038-17.953 17.954-17.953h206.963c9.915 0 17.953 8.038 17.953 17.953z" fill="#5a5a5a"/><path d="m134.654 486c-.057.583-.089 1.173-.089 1.771v16.229h242.87v-16.229c0-.598-.032-1.188-.089-1.771z" fill="#4c4c4c"/><path d="m317.172 350.571h-122.344c-13.679 0-25.252 10.111-27.089 23.666l-12.951 95.58h202.424l-12.951-95.58c-1.837-13.555-13.41-23.666-27.089-23.666z" fill="#e0e0e0"/><path d="m157.227 451.817-2.439 18h202.424l-2.439-18z" fill="#cecece"/><path d="m256 298.353c-12.089 0-23.829-1.487-35.057-4.272l-4.307 56.489h78.727l-4.307-56.489c-11.227 2.785-22.967 4.272-35.056 4.272z" fill="#9e9e9e"/><g><path d="m401.177 153.177c0-18.802-12.178-33.879-18.685-50.368-2.591-6.568 2.956-15.792-.525-21.851-25.048-43.597-72.079-72.958-125.967-72.958-80.179 0-145.177 64.998-145.177 145.177s64.998 145.176 145.177 145.176 145.177-64.997 145.177-145.176z" fill="#5a5a5a"/></g><path d="m256 280.353c-77.155 0-140.242-60.191-144.891-136.177-.182 2.978-.286 5.977-.286 9 0 80.179 64.998 145.177 145.177 145.177s145.177-64.998 145.177-145.177c0-3.023-.104-6.022-.286-9-4.649 75.986-67.736 136.177-144.891 136.177z" fill="#4c4c4c"/><path d="m256 316.353c12.572 0 24.77-1.6 36.404-4.603l-1.347-17.668c-11.228 2.785-22.968 4.272-35.057 4.272s-23.829-1.487-35.057-4.272l-1.347 17.668c11.634 3.004 23.832 4.603 36.404 4.603z" fill="#898989"/><path d="m137.598 69.149c-13.971 19.651-23.164 42.933-25.907 68.152l42.543 42.904 46.976-5.908 20.928-64.409-27.624-42.441z" fill="#e0e0e0"/><path d="m201.21 174.297-46.976 5.908-17.089 56.345c15.911 22.641 38.126 40.524 64.095 51.11l54.76-27.114v-46.442z" fill="#e0e0e0"/><path d="m141.013 223.796-3.868 12.753c15.911 22.641 38.126 40.524 64.095 51.11l22.176-10.98c-33.292-7.634-62.209-26.719-82.403-52.883z" fill="#c4c4c4"/><path d="m374.402 69.149c13.971 19.651 23.164 42.933 25.908 68.152l-42.543 42.904-46.976-5.908-20.928-64.409 27.624-42.441z" fill="#e0e0e0"/><path d="m310.79 174.297 46.976 5.908 17.09 56.345c-15.911 22.641-38.126 40.524-64.095 51.11l-54.761-27.114v-46.442z" fill="#e0e0e0"/><path d="m288.585 276.68 22.175 10.98c25.969-10.585 48.184-28.469 64.095-51.11l-3.868-12.753c-20.194 26.163-49.111 45.248-82.402 52.883z" fill="#c4c4c4"/><path d="m289.862 109.888 27.624-42.441-24.471-54.678c-11.818-3.107-24.222-4.769-37.015-4.769s-25.197 1.662-37.014 4.769l-24.471 54.678 27.624 42.441z" fill="#e0e0e0"/></g><path d="m364.026 463.098-12.146-89.639c-2.335-17.227-17.204-30.218-34.588-30.218h-14.887l-3.315-43.478c63.437-18.653 109.886-77.393 109.886-146.788 0-14.166-1.937-28.199-5.757-41.707-1.129-3.994-5.281-6.319-9.276-5.186-3.993 1.129-6.315 5.282-5.186 9.276 1.76 6.225 3.07 12.576 3.937 19.004l-37.46 37.777-38.663-4.863-18.385-56.583 23.416-35.977 49.02 1.466c2.718 4.06 5.245 8.286 7.554 12.677 1.932 3.673 6.475 5.084 10.149 3.153 3.673-1.932 5.085-6.476 3.153-10.149-26.56-50.495-78.472-81.863-135.478-81.863-84.351 0-152.975 68.624-152.975 152.975 0 40.129 15.425 78.05 43.431 106.778 2.551 2.54 7.301 3.288 10.626.135 2.972-2.897 3.032-7.655.135-10.626-4.357-4.47-8.368-9.191-12.037-14.122l14.63-48.236 39.281-4.94 49.394 35.887v38.039l-47.611 23.573c-7.639-3.334-15.001-7.37-21.997-12.096-3.438-2.322-8.11-1.42-10.434 2.021-2.323 3.438-1.419 8.11 2.021 10.433 13.143 8.879 27.444 15.562 42.445 19.956l-3.314 43.464h-14.887c-17.385 0-32.253 12.991-34.588 30.218l-12.146 89.639c-12.001 2.068-21.161 12.544-21.161 25.126v16.261c0 4.151 3.364 7.515 7.515 7.515h243.344c4.151 0 7.515-3.364 7.515-7.515v-16.261c0-12.582-9.161-23.058-21.161-25.126zm29.901-308.636c-.246 23.091-6.186 44.84-16.491 63.902l-10.979-36.199zm-41.738 32.442 14.606 48.156c-14.3 19.252-33.494 34.659-55.722 44.377l-47.559-23.547v-38.039l49.394-35.887zm6.465-126.117-36.115-1.08-15.665-35.002c19.748 7.815 37.483 20.137 51.78 36.082zm-70.926-42.074 21.346 47.697-23.221 35.677h-59.707l-23.221-35.676 21.344-47.693c10.191-2.408 20.814-3.689 31.73-3.689 10.84 0 21.47 1.272 31.729 3.684zm-82.63 6.052-15.638 34.942-35.982 1.076c14.101-15.664 31.727-28.092 51.62-36.018zm-70.561 193.688c-10.528-19.477-16.226-41.324-16.465-63.992l27.472 27.704zm60.894-51.177-38.664 4.863-37.454-37.771c2.887-21.316 10.656-41.103 22.149-58.188l48.937-1.464 23.416 35.977zm14.505 3.991 17.595-54.151h56.937l17.595 54.151-46.063 33.467zm46.064 97.674 35.193 17.425c-11.24 2.968-23.034 4.556-35.193 4.556-12.005 0-23.824-1.54-35.224-4.54zm-28.289 34.399c9.26 1.73 18.722 2.611 28.289 2.611 9.663 0 19.116-.911 28.287-2.632l3.043 39.922h-62.661zm142.447 193.631h-228.316v-8.747c0-5.775 4.699-10.474 10.473-10.474h61.614c4.151 0 7.515-3.364 7.515-7.515s-3.364-7.515-7.515-7.515h-50.739l11.822-87.245c1.33-9.809 9.797-17.206 19.696-17.206h122.583c9.899 0 18.366 7.397 19.696 17.206l11.822 87.245h-104.821c-4.151 0-7.515 3.364-7.515 7.515s3.364 7.515 7.515 7.515h115.696c5.775 0 10.474 4.699 10.474 10.474z"/></g></svg>