<svg id="Capa_1" enable-background="new 0 0 512 512" height="512" viewBox="0 0 512 512" width="512" xmlns="http://www.w3.org/2000/svg"><g><g><g><circle cx="256" cy="256" fill="#98db7c" r="248"/><path d="m256 486c-133.952 0-243.081-106.205-247.82-239-.107 2.988-.18 5.986-.18 9 0 136.967 111.033 248 248 248s248-111.033 248-248c0-3.014-.073-6.012-.18-9-4.739 132.795-113.868 239-247.82 239z" fill="#82d361"/><g fill="#609e3f"><path d="m397.879 114.121 33.484-33.484c-44.88-44.879-106.88-72.637-175.363-72.637v47.353c55.407 0 105.569 22.459 141.879 58.768z"/><path d="m114.121 114.121-33.484-33.484c-44.879 44.88-72.637 106.88-72.637 175.363h47.353c0-55.407 22.459-105.569 58.768-141.879z"/><path d="m456.647 256c0 55.407-22.458 105.569-58.768 141.879l33.484 33.484c44.879-44.88 72.637-106.88 72.637-175.363z"/></g><path d="m422.127 422.127 9.236 9.236c44.879-44.88 72.637-106.88 72.637-175.363h-.655c-4.72 65.806-35.111 124.501-81.218 166.127z" fill="#548736"/><path d="m114.121 397.879-33.484 33.484c44.88 44.879 106.88 72.637 175.363 72.637v-47.353c-55.407 0-105.569-22.458-141.879-58.768z" fill="#609e3f"/><path d="m80.637 431.362c44.88 44.88 106.88 72.638 175.363 72.638v-18c-63.904 0-122.156-24.176-166.127-63.873z" fill="#548736"/><circle cx="256" cy="256" fill="#ffe27a" r="200.647"/><path d="m256 438.647c-107.797 0-195.727-85.011-200.436-191.647-.132 2.985-.211 5.983-.211 9 0 110.814 89.832 200.647 200.647 200.647s200.647-89.833 200.647-200.647c0-3.017-.079-6.015-.211-9-4.709 106.636-92.639 191.647-200.436 191.647z" fill="#f9cf58"/></g><path d="m327.455 134.526c-16.317-4.583-41.956 17.28-54.58 29.387 1.268 1.284 2.052 3.047 2.052 4.994v27.236h62.777c.001-.001 12.079-55.345-10.249-61.617z" fill="#ff4755"/><path d="m239.122 163.91c-12.626-12.107-38.262-33.967-54.577-29.384-22.328 6.272-10.25 61.616-10.25 61.616h62.772v-27.236c0-1.948.785-3.712 2.055-4.996z" fill="#ff4755"/><path d="m274.927 196.142h-37.86v-27.236c0-3.926 3.183-7.109 7.109-7.109h23.642c3.926 0 7.109 3.183 7.109 7.109z" fill="#c61926"/><path d="m140.026 196.142h231.947v39.324h-231.947z" fill="#8bcaff"/><path d="m237.067 178.142h37.86v18h-37.86z" fill="#b2182b"/><path d="m171.637 178.142c.943 10.135 2.658 18 2.658 18h62.772v-18z" fill="#fc2b3a"/><path d="m274.927 178.142v18h62.777s1.716-7.865 2.659-18z" fill="#fc2b3a"/><path d="m140.026 217.466h231.947v18h-231.947z" fill="#60b8ff"/><path d="m358.471 235.466h-204.942v107.161c0 11.542 9.356 20.898 20.898 20.898h163.146c11.542 0 20.898-9.357 20.898-20.898z" fill="#0083fd"/><path d="m153.529 235.466h204.943v18h-204.943z" fill="#0072fc"/></g><g><path d="m372.201 188.51h-25.381c.829-5.564 1.691-13.081 1.813-20.88.364-23.28-6.031-36.932-19.006-40.576-17.41-4.891-40.449 11.457-57.984 27.563-1.215-.328-2.485-.518-3.802-.518h-23.689c-1.315 0-2.583.19-3.796.517-17.534-16.104-40.569-32.444-57.984-27.562-12.975 3.645-19.37 17.296-19.006 40.576.122 7.798.984 15.316 1.813 20.88h-25.381c-4.15 0-7.515 3.364-7.515 7.515v39.401c0 4.151 3.365 7.515 7.515 7.515h6.014v32.151c0 4.151 3.365 7.515 7.515 7.515s7.515-3.364 7.515-7.515v-32.152h87.643v113.281h-74.218c-7.403 0-13.425-6.022-13.425-13.425v-37.646c0-4.151-3.365-7.515-7.515-7.515s-7.515 3.364-7.515 7.515v37.647c0 15.69 12.764 28.454 28.454 28.454h163.466c15.69 0 28.454-12.764 28.454-28.454v-99.857h6.014c4.15 0 7.515-3.364 7.515-7.515v-39.401c0-4.15-3.364-7.514-7.514-7.514zm-7.515 39.401h-101.171v-24.372h11.43c.007 0 .013.001.019.001.007 0 .013-.001.019-.001h62.852c.012 0 .024.002.036.002.008 0 .015-.002.023-.002h26.791v24.372zm-120.142-58.783h22.905v19.382h-22.905zm81.019-27.605c5.319 1.494 8.251 10.855 8.046 25.684-.113 8.123-1.16 16.104-2.004 21.302h-49.125v-19.774c0-1.138-.144-2.242-.391-3.306 18.744-17.145 35.166-26.242 43.474-23.906zm-139.126 0c8.306-2.334 24.727 6.759 43.47 23.902-.248 1.066-.392 2.171-.392 3.311v19.774h-49.178c-3.345-19.744-3.1-44.402 6.1-46.987zm-39.123 86.388v-24.372h26.791c.008 0 .015.002.023.002.012 0 .024-.002.036-.002h62.846c.007 0 .013.001.019.001.007 0 .013-.001.019-.001h11.436v24.372zm203.844 114.886c0 7.402-6.022 13.425-13.425 13.425h-74.218v-113.282h87.643z"/><path d="m437.02 74.98c-48.353-48.351-112.639-74.98-181.02-74.98-68.38 0-132.667 26.629-181.02 74.98-48.351 48.353-74.98 112.64-74.98 181.02s26.629 132.667 74.98 181.02c48.353 48.351 112.64 74.98 181.02 74.98 28.967 0 57.395-4.803 84.495-14.275 3.918-1.369 5.983-5.655 4.615-9.573-1.37-3.917-5.657-5.985-9.573-4.615-23.155 8.093-47.349 12.551-72.021 13.305v-32.439c51.842-1.846 98.919-22.7 134.467-55.795l23.019 23.019c-17.341 16.3-37.059 30.022-58.589 40.636-3.722 1.835-5.252 6.341-3.417 10.063s6.34 5.251 10.063 3.417c42.241-20.825 77.933-52.888 103.221-92.721 25.985-40.931 39.72-88.313 39.72-137.022 0-68.38-26.628-132.667-74.98-181.02zm27.384 173.505c-1.846-51.842-22.7-98.919-55.795-134.467l23.006-23.006c40.483 43.024 63.43 98.424 65.227 157.473zm-208.404 201.04c-106.71 0-193.525-86.815-193.525-193.525 0-70.538 38.417-135.529 100.258-169.61 3.634-2.003 4.957-6.573 2.954-10.208s-6.573-4.959-10.208-2.954c-15.232 8.394-29.14 18.534-41.542 30.083l-22.925-22.926c43.025-40.484 98.424-63.431 157.473-65.228v32.433c-22.033.778-43.593 4.97-64.193 12.513-3.897 1.427-5.9 5.743-4.473 9.64 1.427 3.898 5.745 5.901 9.64 4.473 21.277-7.791 43.664-11.741 66.541-11.741 106.709 0 193.525 86.815 193.525 193.525s-86.816 193.525-193.525 193.525zm-240.843-186.01h32.439c1.846 51.842 22.7 98.919 55.795 134.467l-23.006 23.006c-40.484-43.025-63.431-98.424-65.228-157.473zm65.228-172.503 22.926 22.926c-33.706 36.258-53.904 83.854-55.727 134.547h-32.427c1.797-59.049 24.744-114.448 65.228-157.473zm33.633 317.597c35.548 33.095 82.625 53.949 134.467 55.795v32.439c-59.049-1.797-114.449-24.744-157.473-65.228zm283.964-305.218c-35.548-33.095-82.625-53.949-134.467-55.795v-32.439c59.049 1.797 114.448 24.744 157.473 65.228zm61.609 281.578c-8.206 12.926-17.576 24.981-27.959 36.035l-23.022-23.022c33.095-35.548 53.948-82.625 55.795-134.467h32.444c-1.335 43.199-14.142 85.041-37.258 121.454z"/></g></g></svg>