<svg id="Capa_1" enable-background="new 0 0 512 512" height="512" viewBox="0 0 512 512" width="512" xmlns="http://www.w3.org/2000/svg"><g><g><path d="m377.435 504h-242.87v-16.229c0-9.915 8.038-17.953 17.953-17.953h206.963c9.915 0 17.954 8.038 17.954 17.953z" fill="#5a5a5a"/><path d="m134.655 486c-.057.583-.089 1.173-.089 1.771v16.229h242.87v-16.229c0-.598-.032-1.188-.089-1.771z" fill="#4c4c4c"/><path d="m317.172 350.571h-122.344c-13.679 0-25.253 10.111-27.089 23.666l-12.951 95.58h202.424l-12.951-95.58c-1.837-13.555-13.41-23.666-27.089-23.666z" fill="#e0e0e0"/><path d="m157.227 451.817-2.439 18h202.424l-2.439-18z" fill="#cecece"/><path d="m256 298.354c-12.089 0-23.829-1.487-35.057-4.272l-4.307 56.489h78.727l-4.307-56.489c-11.227 2.784-22.967 4.272-35.056 4.272z" fill="#9e9e9e"/><g><g><circle cx="256" cy="153.177" fill="#0083fd" r="145.177"/></g></g><path d="m256 316.353c12.572 0 24.77-1.6 36.404-4.603l-1.347-17.668c-11.228 2.784-22.968 4.272-35.057 4.272s-23.829-1.487-35.057-4.272l-1.347 17.668c11.634 3.004 23.832 4.603 36.404 4.603z" fill="#898989"/><path d="m256 280.353c-77.155 0-140.242-60.191-144.891-136.177-.182 2.977-.286 5.977-.286 9 0 80.179 64.998 145.177 145.177 145.177s145.177-64.998 145.177-145.177c0-3.023-.104-6.023-.286-9-4.649 75.986-67.736 136.177-144.891 136.177z" fill="#0072fc"/><path d="m389.16 95.277c-9.108-20.918-22.996-39.273-40.291-53.683-70.901-15.944-116.399 5.913-142.043 26.983 3.936 18.182 10.21 33.267 16.985 45.409 24.537-20.581 77.707-49.056 165.349-18.709z" fill="#ffe27a"/><path d="m305.654 134.057c11.016 33.67 14.99 92.025-41.939 164.093 21.801-1.142 42.324-7.098 60.537-16.817 42.124-63.328 40.804-114.58 30.285-148.741-18.606-2.147-35.039-1.075-48.883 1.465z" fill="#ffe27a"/><path d="m277.851 278.717c-4.231 6.357-8.926 12.837-14.136 19.433 21.801-1.142 42.324-7.098 60.537-16.817 6.448-9.694 11.874-19.104 16.409-28.215-18.23 13.108-39.619 22.098-62.81 25.599z" fill="#f9cf58"/><path d="m154.141 49.744c-15.032 14.805-26.854 32.858-34.322 53.027 17.908 124.316 123.215 150.9 123.383 150.942 7.785-16.151 12.138-31.389 14.383-44.886-.098-.025-104.474-26.813-103.444-159.083z" fill="#ffe27a"/><path d="m202.876 18.029c-18.372 7.228-34.909 18.099-48.735 31.715-1.03 132.269 103.347 159.058 103.445 159.083 5.491-33.009-1.571-55.604-1.585-55.65-.001 0-57.524-41.561-53.125-135.148z" fill="#e0e0e0"/><path d="m119.819 102.771c-5.814 15.702-8.995 32.682-8.995 50.406 0 66.916 45.277 123.248 106.863 140.057 11.079-13.469 19.373-26.778 25.515-39.52-.168-.043-105.475-26.627-123.383-150.943z" fill="#e0e0e0"/><path d="m111.107 144.146c-.184 2.987-.284 5.997-.284 9.031 0 66.916 45.277 123.248 106.863 140.057 4.236-5.15 8.062-10.277 11.52-15.357-64.519-12.04-114.015-66.748-118.099-133.731z" fill="#cecece"/><g fill="#8bcaff"><path d="m348.869 41.594c-25.171-20.973-57.545-33.594-92.869-33.594-18.755 0-36.678 3.557-53.134 10.033-.889 18.953.762 35.771 3.96 50.544 25.644-21.07 71.141-42.928 142.043-26.983z"/><path d="m400.878 143.978c-1.077-17.22-5.154-33.625-11.719-48.701-87.642-30.347-140.812-1.872-165.349 18.708 14.893 26.688 32.173 39.179 32.189 39.191.086-.063 57.226-41.992 144.879-9.198z"/></g></g><path d="m256 0c-84.351 0-152.975 68.624-152.975 152.975 0 69.394 46.449 128.134 109.886 146.787l-3.315 43.478h-14.887c-17.385 0-32.254 12.991-34.589 30.219l-12.147 89.639c-12 2.068-21.161 12.544-21.161 25.125v16.261c0 4.151 3.365 7.515 7.515 7.515h243.345c4.15 0 7.515-3.364 7.515-7.515v-16.261c0-12.582-9.161-23.057-21.161-25.125l-12.146-89.638c-2.334-17.228-17.203-30.219-34.589-30.219h-14.887l-3.315-43.477c43.075-12.62 79.21-43.814 97.528-86.459 1.638-3.813-.125-8.232-3.939-9.871-3.812-1.634-8.232.126-9.87 3.939-8.177 19.035-20.288 35.544-35.146 48.744 15.804-32.03 26.75-72.054 17.26-114.617 9.144 1.64 18.822 4.105 28.967 7.627.035 1.279.056 2.562.056 3.849 0 9.135-.897 18.264-2.667 27.136-.812 4.07 1.829 8.027 5.899 8.84 4.075.812 8.028-1.83 8.84-5.9 1.962-9.837 2.957-19.956 2.957-30.075.001-84.353-68.623-152.977-152.974-152.977zm118.52 82.468c-73.849-20.327-122.245.857-148.225 19.727-4.318-8.939-8.228-19.281-11.133-31.067 24.771-18.91 66.645-36.811 130.351-23.021 11.435 9.774 21.255 21.381 29.007 34.361zm-109.931 73.953c5.766-3.366 17.35-9.251 33.606-13.283.76-.188 1.539-.373 2.33-.555 9.154 33.924 8.008 85.365-40.566 148.265-1.317.038-2.635.073-3.959.073-8.607 0-17.031-.8-25.206-2.316 44.056-59.78 37.48-114.699 33.795-132.184zm-12.967 39.627c-.074.844-.16 1.709-.252 2.586-14.4-5.749-44.95-21.281-66.241-55.534-2.191-3.525-6.823-4.607-10.349-2.416-3.525 2.192-4.606 6.825-2.415 10.349 25.096 40.374 61.589 57.258 76.584 62.771-1.977 9.305-5.093 19.677-9.896 30.718-9.14-3.228-27.589-10.952-46.896-26.049-35.641-27.869-57.45-66.598-64.865-115.119 4.882-12.619 11.567-24.347 19.741-34.865 1.404 19.525 5.23 37.705 11.438 54.236 1.133 3.016 3.995 4.875 7.036 4.875 4.423.278 9.131-5.364 7.034-10.159-7.225-19.239-10.941-41.037-11.077-64.825 9.924-9.354 21.23-17.253 33.576-23.361.349 44.066 14.193 75.789 26.326 95.167 11.398 18.203 23.199 28.934 28.009 32.897 1.223 5.152 3.936 19.366 2.247 38.729zm64.084-167.416c-46.961-3.228-80.853 10.514-103.719 26.231-1.434-9.821-2.151-20.468-1.884-31.973 14.365-5.083 29.812-7.86 45.897-7.86 21.375-.001 41.63 4.887 59.706 13.602zm-197.652 124.343c0-5.876.372-11.667 1.088-17.352 14.262 47.697 41.748 77.605 64.28 95.096 19.778 15.353 38.41 23.558 48.982 27.412-4.683 8.622-10.433 17.524-17.496 26.54-56.058-17.528-96.854-69.936-96.854-131.696zm218.933 222.503 11.822 87.244h-104.821c-4.15 0-7.515 3.364-7.515 7.515s3.365 7.515 7.515 7.515h115.696c5.775 0 10.474 4.699 10.474 10.474v8.747h-228.316v-8.747c0-5.775 4.699-10.474 10.474-10.474h61.613c4.15 0 7.515-3.364 7.515-7.515s-3.365-7.515-7.515-7.515h-50.738l11.822-87.244c1.329-9.81 9.796-17.207 19.695-17.207h122.583c9.9-.001 18.367 7.396 19.696 17.207zm-49.656-32.237h-62.661l3.044-39.922c9.171 1.722 18.624 2.632 28.287 2.632 9.611 0 19.072-.898 28.288-2.625zm31.826-67.591c-12.16 6.256-25.3 10.711-39.022 13.139 20.067-28.598 32.681-57.437 37.543-85.927 3.7-21.677 2.924-42.791-2.297-62.892 9.764-1.216 21.022-1.655 33.548-.588 14.147 52.993-7.891 102.872-29.772 136.268zm-25.322-146.913c-17.956 4.544-30.707 11.07-37.257 14.948-4.993-4.49-14.141-13.762-23.016-28.194 50.77-38.449 114.276-26.411 150.202-14.51 4.119 10.084 7.078 20.758 8.709 31.861-42.048-13.166-76.482-9.712-98.638-4.105z"/></g></svg>