<svg id="Capa_1" enable-background="new 0 0 512 512" height="512" viewBox="0 0 512 512" width="512" xmlns="http://www.w3.org/2000/svg"><g><g><path d="m461.391 344.412c-7.194-4.143-15.544-4.439-22.682-1.539l-34.638-86.873 34.638-86.872c7.138 2.9 15.488 2.604 22.682-1.539 12.392-7.137 16.652-22.968 9.515-35.36s-22.968-16.652-35.36-9.515c-7.096 4.087-11.518 11.025-12.669 18.535l-92.841-13.481-58.006-73.549c6.004-4.742 9.863-12.081 9.863-20.326 0-14.3-11.593-25.893-25.893-25.893s-25.893 11.593-25.893 25.893c0 8.245 3.858 15.584 9.862 20.326l-58.005 73.548-92.841 13.481c-1.15-7.51-5.573-14.448-12.669-18.535-12.392-7.137-28.223-2.877-35.36 9.515s-2.877 28.223 9.515 35.36c7.194 4.143 15.544 4.439 22.682 1.539l34.638 86.873-34.637 86.872c-7.138-2.9-15.488-2.604-22.682 1.539-12.392 7.137-16.652 22.968-9.515 35.36s22.968 16.652 35.36 9.515c7.095-4.087 11.518-11.025 12.669-18.534l92.841 13.481 58.005 73.548c-6.004 4.742-9.862 12.081-9.862 20.326-.001 14.3 11.592 25.893 25.892 25.893s25.893-11.593 25.893-25.893c0-8.245-3.858-15.584-9.862-20.326l58.005-73.548 92.841-13.481c1.15 7.51 5.573 14.448 12.669 18.534 12.392 7.137 28.223 2.877 35.36-9.515 7.137-12.391 2.877-28.222-9.515-35.359z" fill="#ff9838"/><g><g><g><path d="m50.609 167.588c7.194 4.143 15.544 4.439 22.682 1.539v-11.464c0-3.088-2.766-5.399-5.818-4.926-5.617.871-11.555-.091-16.864-3.148-5.452-3.14-9.328-7.964-11.354-13.436-4.328 11.636.238 25.033 11.354 31.435z" fill="#ff8709"/></g><g><path d="m470.906 361.772c-7.137 12.392-22.968 16.652-35.36 9.515-3.548-2.043-6.428-4.8-8.564-7.984-1.241-1.85-4.105-1.033-4.105 1.194v6.255c1.252 8.172 6.379 15.668 14.608 19.548 11.262 5.31 24.996 1.672 32.143-8.523 5.163-7.366 5.947-16.282 3.116-23.93-.496 1.336-1.103 2.649-1.838 3.925z" fill="#ff8709"/></g><g><path d="m461.391 149.588c-5.309 3.058-11.248 4.02-16.864 3.148-3.052-.473-5.818 1.838-5.818 4.926v11.464c7.138 2.9 15.488 2.604 22.682-1.539 11.116-6.402 15.682-19.8 11.354-31.436-2.026 5.474-5.902 10.297-11.354 13.437z" fill="#ff8709"/></g><g><path d="m89.123 364.497c0-2.228-2.864-3.044-4.105-1.194-2.136 3.184-5.016 5.941-8.564 7.984-12.392 7.137-28.223 2.877-35.36-9.515-.735-1.276-1.342-2.589-1.839-3.924-2.831 7.648-2.047 16.564 3.116 23.93 7.147 10.195 20.882 13.833 32.144 8.523 8.229-3.881 13.356-11.376 14.608-19.548z" fill="#ff8709"/></g><g><path d="m256 486c-11.133 0-20.622-7.027-24.281-16.886-1.04 2.801-1.612 5.83-1.612 8.993 0 14.301 11.593 25.893 25.893 25.893s25.893-11.592 25.893-25.893c0-3.164-.573-6.192-1.612-8.993-3.659 9.859-13.148 16.886-24.281 16.886z" fill="#ff8709"/></g></g></g><path d="m256 89.337 55.554 70.44 88.781 12.891-33.226 83.332 33.226 83.332-88.781 12.891-55.554 70.44-55.554-70.44-88.781-12.891 33.226-83.332-33.226-83.332 88.781-12.891z" fill="#ffe27a"/><g fill="#f9cf58"><path d=""/><path d="m256 422.663 55.554-70.44 88.78-12.892-6.784-17.015-86.929 12.623c-1.249.182-2.384.829-3.176 1.812l-43.552 54.077c-2.001 2.485-5.787 2.485-7.788 0l-43.552-54.077c-.792-.983-1.926-1.63-3.176-1.812l-86.929-12.623-6.784 17.015 88.78 12.892z"/></g><path d="m267.053 189.633 11.261 22.817c1.795 3.638 5.266 6.16 9.281 6.743l25.18 3.659c10.11 1.469 14.147 13.893 6.831 21.025l-18.22 17.76c-2.905 2.832-4.231 6.912-3.545 10.91l4.301 25.078c1.727 10.069-8.842 17.748-17.885 12.994l-22.521-11.84c-3.591-1.888-7.881-1.888-11.472 0l-22.521 11.84c-9.043 4.754-19.612-2.925-17.885-12.994l4.301-25.078c.686-3.999-.64-8.079-3.545-10.91l-18.22-17.76c-7.316-7.131-3.279-19.556 6.831-21.025l25.18-3.659c4.015-.583 7.485-3.105 9.281-6.743l11.261-22.817c4.521-9.161 17.585-9.161 22.106 0z" fill="#ff4755"/><g><g><g><path d="m253.673 278.986-43.796 23.025c1.433 7.727 10.196 12.639 17.865 8.608l22.521-11.84c3.591-1.888 7.881-1.888 11.472 0l22.521 11.84c7.669 4.032 16.433-.88 17.865-8.608l-43.796-23.025c-1.455-.766-3.195-.766-4.652 0z" fill="#fc2b3a"/></g></g></g></g><g><path d="m128.355 296.929c-3.858-1.538-8.227.342-9.764 4.198l-14.188 35.586c-.852 2.137-.678 4.547.473 6.54s3.151 3.348 5.428 3.679l85.989 12.485 53.807 68.226c1.425 1.806 3.599 2.861 5.901 2.861 2.301 0 4.475-1.055 5.9-2.861l53.808-68.226 85.989-12.485c2.277-.331 4.277-1.686 5.428-3.679s1.325-4.403.473-6.54l-32.182-80.713 32.181-80.712c.852-2.137.678-4.547-.473-6.54s-3.151-3.348-5.428-3.679l-85.989-12.485-53.808-68.227c-1.425-1.806-3.599-2.861-5.9-2.861s-4.476 1.055-5.901 2.861l-53.807 68.226-85.989 12.485c-2.277.331-4.277 1.686-5.428 3.679s-1.325 4.403-.473 6.54l32.181 80.713-7.552 18.941c-1.537 3.855.342 8.226 4.197 9.763 3.854 1.536 8.227-.343 9.764-4.198l8.662-21.724c.712-1.787.712-3.779 0-5.566l-29.762-74.645 79.524-11.547c1.904-.276 3.629-1.272 4.821-2.783l49.763-63.095 49.763 63.097c1.191 1.511 2.917 2.507 4.82 2.783l79.525 11.547-29.762 74.645c-.712 1.787-.712 3.779 0 5.566l29.762 74.645-79.525 11.547c-1.903.276-3.629 1.272-4.82 2.783l-49.763 63.095-49.763-63.097c-1.191-1.511-2.916-2.507-4.821-2.783l-79.524-11.547 10.66-26.736c1.536-3.854-.343-8.225-4.197-9.762z"/><path d="m299.713 423.116c-3.26-2.57-7.984-2.012-10.554 1.247l-22.998 29.159c-2.569 3.257-2.013 7.98 1.243 10.551 4.464 3.525 7.024 8.799 7.024 14.469 0 10.161-8.267 18.428-18.429 18.428s-18.429-8.267-18.429-18.428c0-5.669 2.561-10.942 7.025-14.469 3.255-2.571 3.811-7.294 1.242-10.551l-58.118-73.692c-1.192-1.511-2.917-2.507-4.821-2.783l-93.023-13.507c-4.082-.596-7.884 2.218-8.508 6.299-.854 5.577-4.14 10.387-9.016 13.196-8.806 5.071-20.095 2.034-25.167-6.772-2.457-4.266-3.105-9.233-1.826-13.986s4.333-8.724 8.599-11.181c4.95-2.852 10.835-3.249 16.147-1.093 1.854.754 3.932.737 5.774-.049 1.841-.784 3.294-2.271 4.035-4.13l34.705-87.042c.712-1.787.712-3.779 0-5.566l-34.705-87.042c-.741-1.859-2.194-3.346-4.035-4.13-1.841-.785-3.92-.802-5.773-.049-5.313 2.155-11.198 1.758-16.148-1.093-4.266-2.457-7.319-6.428-8.599-11.181-1.279-4.753-.63-9.72 1.826-13.986 5.071-8.804 16.361-11.842 25.167-6.772 4.875 2.808 8.161 7.618 9.016 13.197.625 4.079 4.427 6.898 8.508 6.298l93.023-13.507c1.904-.276 3.629-1.272 4.821-2.783l58.118-73.692c2.569-3.257 2.013-7.979-1.242-10.551-4.464-3.526-7.025-8.799-7.025-14.469 0-10.161 8.267-18.429 18.429-18.429 10.161 0 18.429 8.267 18.429 18.429 0 5.669-2.561 10.943-7.024 14.469-3.255 2.57-3.812 7.294-1.243 10.551l17.787 22.552c2.569 3.259 7.294 3.816 10.554 1.246 3.258-2.57 3.817-7.296 1.247-10.554l-13.656-17.314c4.742-5.879 7.365-13.209 7.365-20.95 0-18.447-15.009-33.456-33.458-33.456s-33.458 15.009-33.458 33.458c0 7.74 2.624 15.07 7.365 20.95l-52.132 66.102-83.5 12.124c-2.744-6.98-7.767-12.861-14.421-16.694-15.988-9.208-36.485-3.692-45.692 12.295-4.46 7.745-5.638 16.763-3.315 25.392 2.322 8.63 7.866 15.84 15.61 20.299 6.761 3.893 14.477 5.273 21.984 4.052l31.108 78.022-31.109 78.022c-7.504-1.219-15.222.157-21.983 4.052-7.744 4.46-13.289 11.669-15.611 20.299-2.322 8.629-1.145 17.648 3.315 25.392 9.207 15.985 29.705 21.502 45.692 12.294 6.654-3.833 11.678-9.713 14.421-16.694l83.5 12.124 52.132 66.102c-4.741 5.88-7.365 13.21-7.365 20.95 0 18.45 15.01 33.459 33.459 33.459s33.458-15.009 33.458-33.458c0-7.741-2.623-15.072-7.365-20.95l18.867-23.922c2.57-3.258 2.011-7.983-1.247-10.554z"/><path d="m465.543 338.073c-6.761-3.895-14.479-5.273-21.983-4.052l-31.109-78.021 31.109-78.021c7.507 1.219 15.222-.158 21.983-4.052 7.745-4.46 13.289-11.669 15.611-20.299 2.323-8.629 1.145-17.648-3.315-25.392-9.208-15.985-29.703-21.503-45.694-12.295-6.653 3.833-11.675 9.714-14.419 16.694l-83.5-12.124-19.872-25.196c-2.568-3.259-7.294-3.816-10.554-1.247-3.258 2.57-3.817 7.296-1.247 10.554l21.727 27.548c1.191 1.511 2.917 2.507 4.82 2.783l93.022 13.507c4.097.598 7.883-2.219 8.508-6.298.855-5.578 4.141-10.389 9.016-13.197 8.805-5.07 20.097-2.033 25.168 6.772 2.456 4.266 3.105 9.233 1.826 13.986s-4.333 8.724-8.599 11.181c-4.952 2.851-10.838 3.248-16.148 1.093-1.853-.754-3.931-.737-5.773.049-1.842.784-3.294 2.271-4.035 4.13l-34.706 87.042c-.712 1.787-.712 3.779 0 5.566l34.706 87.042c.742 1.859 2.194 3.346 4.035 4.13 1.84.786 3.919.803 5.773.049 5.313-2.156 11.198-1.758 16.148 1.093 4.266 2.457 7.32 6.428 8.599 11.181s.63 9.72-1.826 13.986c-5.072 8.804-16.363 11.843-25.167 6.772-4.876-2.808-8.161-7.618-9.017-13.197-.625-4.08-4.423-6.9-8.508-6.298l-93.022 13.507c-1.903.276-3.629 1.272-4.82 2.783l-16.51 20.934c-2.57 3.258-2.012 7.984 1.247 10.554 1.379 1.087 3.02 1.615 4.649 1.615 2.222 0 4.423-.981 5.905-2.861l14.655-18.581 83.5-12.124c2.744 6.98 7.766 12.861 14.42 16.694 15.988 9.209 36.484 3.692 45.693-12.294 4.46-7.745 5.638-16.763 3.315-25.392-2.322-8.634-7.866-15.844-15.611-20.304z"/><path d="m324.974 249.234c5.455-5.317 7.382-13.119 5.028-20.364s-8.499-12.425-16.037-13.52l-25.229-3.666c-1.575-.229-2.935-1.217-3.64-2.645l-11.283-22.862c-3.371-6.83-10.197-11.073-17.814-11.073s-14.443 4.244-17.814 11.073l-11.283 22.862c-.704 1.428-2.065 2.416-3.641 2.645l-25.229 3.666c-7.538 1.095-13.683 6.275-16.037 13.52s-.428 15.047 5.027 20.363l18.256 17.796c1.14 1.111 1.66 2.711 1.391 4.281l-4.31 25.127c-1.288 7.507 1.741 14.952 7.903 19.429 6.163 4.478 14.18 5.057 20.921 1.513l22.565-11.864c1.41-.742 3.092-.742 4.501 0l22.565 11.864c2.932 1.541 6.106 2.303 9.263 2.303 4.102 0 8.176-1.286 11.659-3.816 6.161-4.477 9.19-11.922 7.901-19.429l-4.308-25.127c-.269-1.57.251-3.169 1.39-4.281zm-28.745 7.033c-4.682 4.564-6.818 11.137-5.712 17.582l4.309 25.128c.458 2.673-1.193 4.198-1.924 4.729-.732.53-2.692 1.631-5.093.368l-22.566-11.864c-2.894-1.522-6.068-2.282-9.244-2.282-3.175 0-6.35.76-9.244 2.282l-22.565 11.864c-2.403 1.264-4.362.162-5.093-.368-.731-.531-2.382-2.056-1.924-4.73l4.31-25.126c1.106-6.445-1.03-13.019-5.713-17.583l-18.256-17.796c-1.943-1.893-1.503-4.097-1.224-4.956.279-.86 1.219-2.901 3.904-3.292l25.228-3.666c6.472-.939 12.064-5.002 14.958-10.866l11.283-22.862c1.201-2.432 3.433-2.696 4.337-2.696s3.135.263 4.336 2.696l11.283 22.861c2.893 5.865 8.485 9.928 14.957 10.867l25.229 3.666c2.685.39 3.624 2.432 3.903 3.292.28.859.719 3.063-1.224 4.957z"/></g></g></svg>