<svg id="Capa_1" enable-background="new 0 0 512 512" height="512" viewBox="0 0 512 512" width="512" xmlns="http://www.w3.org/2000/svg"><g><g><path d="m375.681 388.538c18.834 30.332-3.731 69.415-39.416 68.27-16.993-.545-32.825 8.595-40.849 23.584-16.851 31.477-61.981 31.477-78.831 0-8.024-14.989-23.856-24.13-40.85-23.584-35.685 1.145-58.25-37.938-39.416-68.27 8.969-14.444 8.969-32.725 0-47.169-18.834-30.331 3.731-69.415 39.416-68.27 16.993.545 32.825-8.595 40.85-23.584 16.851-31.477 61.98-31.477 78.831 0 8.024 14.989 23.856 24.13 40.849 23.584 35.685-1.145 58.25 37.938 39.416 68.27-8.969 14.444-8.969 32.725 0 47.169z" fill="#ffcb5b"/><g><path d="m336.265 438.808c-16.993-.545-32.825 8.595-40.85 23.585-16.851 31.477-61.981 31.477-78.832 0-8.024-14.989-23.856-24.13-40.849-23.585-23.371.75-41.112-15.755-45.284-35.756-5.672 26.941 15.116 54.724 45.284 53.756 16.993-.545 32.825 8.595 40.849 23.585 16.851 31.477 61.981 31.477 78.832 0 8.024-14.989 23.856-24.13 40.849-23.585 30.168.968 50.957-26.815 45.284-53.756-4.171 20.001-21.912 36.506-45.283 35.756z" fill="#f7b737"/></g><path d="m309.793 225.907h-107.586c-15.124 0-27.385-12.26-27.385-27.385v-13.24h162.355v13.24c0 15.125-12.26 27.385-27.384 27.385z" fill="#ffe27a"/><path d="m309.793 207.907h-107.586c-13.499 0-24.709-9.771-26.964-22.624h-.421v13.24c0 15.124 12.261 27.385 27.385 27.385h107.585c15.124 0 27.385-12.261 27.385-27.385v-13.24h-.421c-2.254 12.854-13.464 22.624-26.963 22.624z" fill="#f9cf58"/><g><g><path d="m406.267 8v105.77l-92.735 71.513h-115.064l-92.735-71.513v-105.77z" fill="#609e3f"/></g></g><path d="m198.468 167.283-92.735-71.513v18l92.735 71.513h115.064l92.735-71.513v-18l-92.735 71.513z" fill="#548736"/><path d="m198.468 8h115.064v177.283h-115.064z" fill="#98db7c"/><path d="m198.468 167.283h115.064v18h-115.064z" fill="#82d361"/><circle cx="256" cy="364.954" fill="#ff9838" r="85.295"/><path d="m256 432.248c-44.066 0-80.321-33.419-84.819-76.294-.31 2.958-.476 5.959-.476 9 0 47.107 38.188 85.294 85.294 85.294 47.107 0 85.295-38.188 85.295-85.294 0-3.041-.165-6.042-.476-9-4.496 42.875-40.751 76.294-84.818 76.294z" fill="#ff8709"/><path d="m263.912 321.199 8.061 16.333c1.285 2.604 3.77 4.409 6.643 4.827l18.024 2.619c7.237 1.052 10.127 9.945 4.89 15.05l-13.043 12.713c-2.079 2.027-3.029 4.948-2.538 7.81l3.079 17.951c1.236 7.208-6.329 12.704-12.802 9.301l-16.121-8.475c-2.57-1.351-5.641-1.351-8.212 0l-16.121 8.475c-6.473 3.403-14.038-2.094-12.802-9.301l3.079-17.951c.491-2.862-.458-5.783-2.537-7.81l-13.042-12.713c-5.237-5.105-2.347-13.998 4.89-15.05l18.024-2.619c2.874-.418 5.358-2.223 6.643-4.827l8.061-16.333c3.236-6.558 12.588-6.558 15.824 0z" fill="#fff5f5"/><g><path d="m288.658 396.339-30.332-15.946c-1.457-.766-3.197-.766-4.653 0l-30.332 15.946-.371 2.163c-1.237 7.208 6.329 12.705 12.802 9.302l16.121-8.476c2.57-1.351 5.641-1.351 8.212 0l16.121 8.476c6.473 3.403 14.039-2.094 12.802-9.302z" fill="#efe2dd"/></g></g><g><path d="m163.025 365.167c0 51.267 41.708 92.976 92.975 92.976 38.751 0 73.809-24.413 87.237-60.749 1.438-3.893-.551-8.215-4.444-9.654-3.894-1.438-8.215.551-9.654 4.444-11.256 30.462-40.649 50.929-73.139 50.929-42.98 0-77.946-34.967-77.946-77.946 0-42.98 34.967-77.947 77.946-77.947 42.98 0 77.947 34.967 77.947 77.947 0 4.151 3.364 7.515 7.515 7.515s7.515-3.364 7.515-7.515c0-51.267-41.709-92.977-92.977-92.977s-92.975 41.71-92.975 92.977z"/><path d="m306.864 365.612c4.491-4.378 6.077-10.801 4.14-16.766-1.937-5.964-6.997-10.229-13.203-11.131l-18.061-2.624c-.431-.063-.804-.334-.997-.725l-8.076-16.365c-2.775-5.623-8.395-9.117-14.666-9.117s-11.891 3.493-14.666 9.117l-8.076 16.365c-.193.391-.565.663-.998.725l-18.06 2.624c-6.206.902-11.266 5.167-13.204 11.131-1.937 5.965-.351 12.388 4.139 16.765l13.07 12.741c.312.304.454.743.381 1.172l-3.085 17.986c-1.061 6.181 1.432 12.311 6.507 15.997 2.867 2.083 6.22 3.141 9.597 3.141 2.599 0 5.212-.627 7.626-1.896l16.154-8.492c.385-.204.847-.204 1.233 0l16.154 8.492c5.549 2.918 12.151 2.441 17.223-1.245 5.074-3.686 7.568-9.816 6.507-15.997l-3.084-17.984c-.074-.431.068-.87.382-1.176zm-23.556 1.975c-3.856 3.756-5.615 9.168-4.706 14.478l3.085 17.986c.034.202.139.813-.528 1.297-.663.484-1.215.197-1.395.101l-16.154-8.492c-4.764-2.504-10.455-2.506-15.221 0l-16.154 8.492c-.182.095-.731.383-1.395-.101-.667-.484-.563-1.096-.528-1.297l3.086-17.988c.909-5.307-.85-10.719-4.704-14.474l-13.068-12.74c-.146-.142-.59-.575-.336-1.359.255-.784.869-.873 1.071-.902l18.059-2.624c5.328-.773 9.933-4.117 12.316-8.946l8.076-16.365c.09-.183.365-.739 1.189-.739s1.099.556 1.189.739l8.076 16.365c2.384 4.829 6.988 8.173 12.315 8.946l18.06 2.624c.202.029.815.118 1.07.902.254.784-.19 1.217-.337 1.36z"/><path d="m406.562 51.1c4.151 0 7.515-3.364 7.515-7.515v-36.07c0-4.151-3.364-7.515-7.515-7.515h-301.124c-4.151 0-7.515 3.364-7.515 7.515v105.977c0 2.33 1.08 4.528 2.926 5.951l75.456 58.188h-16.245c-4.151 0-7.515 3.364-7.515 7.515s3.364 7.515 7.515 7.515h7.089v5.751c0 19.273 15.68 34.953 34.953 34.953h17.095c-3.628 3.627-6.773 7.845-9.315 12.592-6.739 12.589-19.765 20.105-34.064 19.667-19.599-.657-37.17 9.139-46.979 26.127-9.81 16.99-9.487 37.083.861 53.75 7.532 12.131 7.532 27.203 0 39.334-10.348 16.666-10.671 36.76-.861 53.75 9.808 16.989 27.371 26.75 46.979 26.127 14.27-.429 27.324 7.078 34.064 19.667 9.26 17.295 26.5 27.621 46.118 27.621s36.858-10.326 46.118-27.621c6.739-12.589 19.76-20.097 34.064-19.667 19.602.621 37.169-9.139 46.978-26.127 9.81-16.99 9.487-37.084-.861-53.75-7.532-12.131-7.532-27.203 0-39.334 10.348-16.667 10.671-36.76.861-53.75-9.808-16.99-27.378-26.793-46.978-26.127-14.273.436-27.324-7.078-34.064-19.667-2.542-4.747-5.687-8.965-9.315-12.592h17.095c19.273 0 34.953-15.68 34.953-34.953v-5.751h7.089c4.151 0 7.515-3.364 7.515-7.515s-3.364-7.515-7.515-7.515h-16.245l75.455-58.188c1.845-1.423 2.926-3.621 2.926-5.951v-39.848c0-4.151-3.364-7.515-7.515-7.515s-7.515 3.364-7.515 7.515v36.153l-77.888 60.063v-154.831h77.888v28.556c.001 4.151 3.365 7.515 7.516 7.515zm-117.694 201.949c9.456 17.662 27.774 28.239 47.796 27.595 13.975-.46 26.49 6.513 33.481 18.62 6.991 12.109 6.761 26.43-.615 38.308-10.569 17.021-10.569 38.168 0 55.189 7.376 11.879 7.606 26.2.615 38.308-6.99 12.109-19.492 19.087-33.481 18.62-20.023-.648-38.339 9.932-47.796 27.595-6.599 12.327-18.886 19.686-32.868 19.686-13.981 0-26.269-7.359-32.868-19.686-9.184-17.155-26.723-27.622-46.071-27.622-.572 0-1.149.009-1.724.027-13.995.447-26.491-6.513-33.481-18.62-6.991-12.109-6.761-26.43.615-38.308 10.568-17.021 10.568-38.168 0-55.189-7.376-11.879-7.606-26.2-.615-38.308 6.99-12.108 19.512-19.068 33.481-18.62 20.011.636 38.34-9.932 47.796-27.595 6.599-12.327 18.887-19.686 32.868-19.686 13.98 0 26.268 7.359 32.867 19.686zm40.954-54.639c0 10.986-8.937 19.924-19.924 19.924h-107.796c-10.986 0-19.924-8.937-19.924-19.924v-5.751h147.644zm-23.692-20.78h-100.259v-55.308c0-4.151-3.364-7.515-7.515-7.515s-7.515 3.364-7.515 7.515v47.538l-77.889-60.064v-94.767h77.889v77.234c0 4.151 3.364 7.515 7.515 7.515s7.515-3.364 7.515-7.515v-77.234h100.259z"/></g></g></svg>