<svg id="Capa_1" enable-background="new 0 0 512 512" height="512" viewBox="0 0 512 512" width="512" xmlns="http://www.w3.org/2000/svg"><g><g><path d="m490.618 282.721c12.566 32.985.452 70.268-29.102 89.567-15.421 10.07-26.6 25.458-31.412 43.235-9.222 34.071-40.937 57.113-76.19 55.355-18.394-.917-36.484 4.96-50.826 16.514-27.487 22.143-66.689 22.143-94.176 0-14.342-11.554-32.432-17.432-50.826-16.514-35.253 1.758-66.968-21.284-76.19-55.355-4.812-17.778-15.992-33.165-31.412-43.235-29.554-19.299-41.668-56.582-29.102-89.566 6.557-17.211 6.557-36.231 0-53.442-12.566-32.984-.452-70.267 29.102-89.566 15.42-10.07 26.6-25.458 31.412-43.235 9.222-34.071 40.937-57.113 76.19-55.355 18.394.917 36.484-4.96 50.826-16.515 27.487-22.143 66.689-22.143 94.176 0 14.342 11.554 32.432 17.432 50.826 16.515 35.253-1.758 66.968 21.284 76.19 55.355 4.812 17.778 15.992 33.165 31.412 43.235 29.554 19.299 41.668 56.582 29.102 89.566-6.556 17.21-6.556 36.23 0 53.441z" fill="#ffe27a"/><g><path d="m461.516 354.287c-15.421 10.07-26.601 25.458-31.412 43.235-9.222 34.071-40.937 57.113-76.19 55.355-18.394-.918-36.484 4.961-50.826 16.514-27.487 22.144-66.689 22.144-94.176 0-14.342-11.554-32.432-17.432-50.826-16.514-35.253 1.758-66.968-21.284-76.19-55.355-4.812-17.778-15.992-33.165-31.412-43.235-19.076-12.457-30.871-32.409-33.468-53.858-3.375 27.853 9.12 55.958 33.468 71.858 15.42 10.07 26.6 25.458 31.412 43.235 9.222 34.071 40.937 57.113 76.19 55.355 18.394-.918 36.484 4.961 50.826 16.514 27.487 22.144 66.689 22.144 94.176 0 14.342-11.554 32.432-17.432 50.826-16.514 35.253 1.758 66.968-21.284 76.19-55.355 4.812-17.778 15.992-33.165 31.412-43.235 24.348-15.9 36.843-44.006 33.469-71.858-2.597 21.45-14.393 41.402-33.469 53.858z" fill="#f9cf58"/></g><path d="m416.44 256c0-16.716 9.771-31.146 23.912-37.9-15.034-73.515-72.937-131.418-146.452-146.452-6.753 14.141-21.184 23.912-37.9 23.912s-31.147-9.771-37.9-23.912c-73.515 15.034-131.418 72.937-146.452 146.452 14.141 6.753 23.912 21.184 23.912 37.9s-9.771 31.147-23.912 37.9c15.034 73.515 72.937 131.418 146.452 146.452 6.753-14.141 21.184-23.912 37.9-23.912s31.147 9.771 37.9 23.912c73.515-15.034 131.418-72.937 146.452-146.452-14.141-6.753-23.912-21.184-23.912-37.9z" fill="#ff9838"/><g><g><g><path d="m302.9 422.352c-6.753-14.141-30.184-23.912-46.9-23.912s-40.147 9.771-46.9 23.912c-68.151-13.937-113.878-64.718-133.48-130.622-1.28.791-2.605 1.518-3.972 2.17 15.034 73.515 72.937 131.418 146.452 146.452 6.753-14.141 21.184-23.912 37.9-23.912s31.147 9.771 37.9 23.912c73.515-15.034 131.418-72.937 146.452-146.452-1.367-.653-2.691-1.379-3.972-2.17-19.602 65.904-65.329 116.685-133.48 130.622z" fill="#ff8709"/></g></g></g><path d="m272.63 169.067 16.943 34.329c2.701 5.474 7.923 9.268 13.964 10.145l37.885 5.505c15.211 2.21 21.285 20.904 10.278 31.633l-27.414 26.722c-4.371 4.261-6.366 10.399-5.334 16.415l6.471 37.732c2.598 15.15-13.303 26.703-26.909 19.55l-33.885-17.814c-5.403-2.84-11.857-2.84-17.26 0l-33.885 17.814c-13.606 7.153-29.507-4.4-26.909-19.55l6.471-37.732c1.032-6.016-.963-12.155-5.334-16.415l-27.412-26.721c-11.007-10.729-4.933-29.423 10.278-31.633l37.885-5.505c6.041-.878 11.262-4.672 13.964-10.145l16.943-34.329c6.802-13.785 26.458-13.785 33.26-.001z" fill="#fff5f5"/><g><path d="m253.673 311.971-63.865 33.576c5.086 6.963 14.86 10.188 23.677 5.552l33.885-17.814c5.403-2.84 11.857-2.84 17.26 0l33.885 17.814c8.816 4.635 18.59 1.41 23.677-5.552l-63.865-33.576c-1.457-.766-3.197-.766-4.654 0z" fill="#efe2dd"/></g></g><g><path d="m256 512c-18.813 0-37.244-6.5-51.894-18.302-12.948-10.432-29.221-15.723-45.838-14.893-18.785.934-37.521-4.638-52.741-15.696-15.221-11.059-26.31-27.151-31.225-45.311-.927-3.423-2.134-6.799-3.585-10.034-1.699-3.787-.007-8.234 3.78-9.933 3.785-1.7 8.233-.008 9.932 3.78 1.773 3.952 3.247 8.076 4.38 12.259 4.023 14.862 13.097 28.03 25.552 37.079 12.456 9.05 27.785 13.61 43.159 12.844 20.293-1.027 40.191 5.451 56.014 18.201 11.989 9.658 27.071 14.977 42.466 14.977s30.477-5.319 42.466-14.977c15.823-12.748 35.718-19.223 56.014-18.2 15.389.76 30.704-3.793 43.159-12.844 12.455-9.049 21.529-22.217 25.552-37.077 5.31-19.616 17.605-36.538 34.619-47.649 12.89-8.418 22.61-21.117 27.367-35.759s4.358-30.629-1.122-45.016c-7.235-18.99-7.235-39.906 0-58.896 5.48-14.386 5.88-30.374 1.122-45.016-4.757-14.642-14.477-27.341-27.367-35.759-17.015-11.111-29.309-28.032-34.619-47.648-4.022-14.861-13.097-28.029-25.552-37.078s-27.775-13.597-43.159-12.844c-20.299 1.027-40.191-5.451-56.014-18.201-11.989-9.658-27.07-14.976-42.466-14.976s-30.477 5.319-42.466 14.977c-15.823 12.749-35.713 19.229-56.014 18.2-15.381-.759-30.703 3.794-43.159 12.844-12.455 9.048-21.529 22.216-25.552 37.076-5.31 19.616-17.605 36.538-34.619 47.649-12.89 8.418-22.61 21.117-27.367 35.759s-4.358 30.629 1.122 45.016c7.235 18.99 7.235 39.906 0 58.896-5.48 14.387-5.88 30.374-1.122 45.016s14.476 27.341 27.367 35.759c3.858 2.519 7.531 5.383 10.918 8.513 3.048 2.816 3.236 7.57.419 10.618-2.814 3.048-7.57 3.236-10.618.419-2.772-2.561-5.778-4.905-8.935-6.966-15.752-10.287-27.629-25.806-33.443-43.7-5.813-17.892-5.327-37.428 1.371-55.01 5.921-15.54 5.921-32.656 0-48.196-6.698-17.581-7.184-37.118-1.371-55.01 5.814-17.893 17.691-33.413 33.443-43.699 13.923-9.093 23.984-22.94 28.33-38.992 4.915-18.16 16.004-34.251 31.225-45.31 15.22-11.058 33.944-16.644 52.741-15.695 16.619.822 32.889-4.462 45.838-14.894 14.648-11.801 33.079-18.301 51.892-18.301s37.244 6.5 51.894 18.302c12.948 10.434 29.221 15.732 45.838 14.893 18.797-.934 37.521 4.638 52.741 15.696 15.221 11.059 26.31 27.151 31.225 45.311 4.345 16.051 14.407 29.898 28.33 38.991 15.752 10.286 27.629 25.805 33.443 43.699 5.813 17.892 5.327 37.429-1.371 55.01-5.921 15.54-5.921 32.656 0 48.196 6.698 17.581 7.184 37.117 1.371 55.01-5.814 17.893-17.691 33.413-33.443 43.699-13.923 9.093-23.984 22.94-28.33 38.992-4.915 18.159-16.004 34.251-31.225 45.31-15.219 11.058-33.949 16.64-52.741 15.695-16.631-.818-32.889 4.461-45.838 14.894-14.65 11.802-33.081 18.302-51.894 18.302z"/><path d="m293.971 448.228c-2.849 0-5.513-1.627-6.778-4.277-5.71-11.957-17.954-19.683-31.193-19.683s-25.482 7.726-31.193 19.683c-1.487 3.115-4.903 4.82-8.287 4.123-37.588-7.686-71.874-26.166-99.151-53.444-27.277-27.277-45.758-61.563-53.444-99.15-.692-3.382 1.009-6.799 4.123-8.287 11.957-5.711 19.683-17.955 19.683-31.194s-7.726-25.482-19.683-31.194c-3.114-1.487-4.815-4.905-4.123-8.287 6.467-31.626 20.893-61.484 41.72-86.345 2.665-3.18 7.406-3.6 10.586-.934 3.181 2.665 3.6 7.404.934 10.586-18.053 21.55-30.895 47.16-37.339 74.367 14.099 9.027 22.934 24.848 22.934 41.807 0 16.96-8.835 32.781-22.936 41.808 7.699 32.601 24.28 62.304 48.171 86.195 23.89 23.891 53.594 40.473 86.196 48.171 9.026-14.101 24.847-22.935 41.807-22.935s32.781 8.835 41.807 22.935c32.602-7.699 62.305-24.28 86.196-48.171 23.891-23.89 40.473-53.594 48.171-86.195-14.101-9.027-22.935-24.848-22.935-41.808s8.835-32.781 22.935-41.808c-7.699-32.601-24.28-62.304-48.171-86.195-23.89-23.891-53.594-40.473-86.195-48.171-9.027 14.101-24.848 22.936-41.808 22.936s-32.78-8.833-41.807-22.934c-28.206 6.677-54.611 20.194-76.655 39.288-3.136 2.716-7.883 2.377-10.6-.76s-2.377-7.883.76-10.6c25.375-21.98 56.089-37.136 88.821-43.83 3.38-.699 6.798 1.01 8.287 4.123 5.711 11.957 17.955 19.683 31.194 19.683s25.482-7.726 31.194-19.683c1.487-3.115 4.906-4.82 8.287-4.123 37.587 7.686 71.873 26.166 99.15 53.444 27.278 27.277 45.758 61.563 53.444 99.15.692 3.382-1.009 6.799-4.123 8.287-11.957 5.711-19.683 17.955-19.683 31.194s7.726 25.482 19.683 31.194c3.115 1.487 4.815 4.905 4.123 8.287-7.686 37.587-26.167 71.873-53.444 99.15-27.277 27.278-61.563 45.758-99.151 53.444-.503.103-1.008.153-1.507.153z"/><path d="m307.27 360.963c-4.148 0-8.316-1-12.168-3.025l-33.952-17.849c-3.227-1.698-7.076-1.697-10.299-.001l-33.952 17.85c-8.858 4.655-19.387 3.894-27.483-1.987-8.095-5.882-12.072-15.661-10.381-25.523l6.484-37.805c.615-3.591-.575-7.254-3.184-9.796l-27.468-26.774c-7.165-6.984-9.695-17.235-6.603-26.752s11.164-16.323 21.066-17.761l37.959-5.516c3.606-.525 6.72-2.788 8.333-6.055l16.975-34.396c4.429-8.973 13.395-14.547 23.402-14.547s18.974 5.574 23.402 14.547l16.975 34.396c1.613 3.267 4.727 5.53 8.334 6.055l37.958 5.516c9.902 1.438 17.974 8.245 21.066 17.761 3.092 9.517.563 19.767-6.603 26.752l-27.468 26.774c-2.609 2.542-3.799 6.205-3.183 9.797.701 4.09-2.047 7.975-6.138 8.676-4.076.702-7.974-2.047-8.676-6.138-1.451-8.468 1.355-17.103 7.506-23.099l27.468-26.774c3.085-3.006 4.132-7.248 2.8-11.344-1.331-4.097-4.671-6.913-8.934-7.532l-37.959-5.516c-8.503-1.236-15.848-6.572-19.65-14.276l-16.975-34.396c-1.906-3.863-5.617-6.169-9.925-6.169s-8.019 2.306-9.925 6.169l-16.972 34.394c-3.801 7.704-11.147 13.04-19.65 14.276l-37.959 5.516c-4.262.619-7.603 3.435-8.934 7.532-1.332 4.097-.285 8.339 2.8 11.344l27.468 26.774c6.151 5.996 8.957 14.631 7.506 23.099l-6.485 37.806c-.728 4.247.918 8.293 4.403 10.825 3.485 2.533 7.844 2.847 11.655.842l33.952-17.849c7.604-3.998 16.684-3.999 24.288.001l33.952 17.848c3.812 2.004 8.169 1.69 11.655-.842 3.485-2.532 5.131-6.578 4.403-10.825l-1.399-8.156c-.701-4.091 2.047-7.976 6.137-8.677 4.088-.702 7.975 2.047 8.677 6.137l1.398 8.156c1.691 9.862-2.287 19.642-10.382 25.523-4.574 3.325-9.926 5.014-15.315 5.014z"/></g></g></svg>