<svg id="Capa_1" enable-background="new 0 0 512 512" height="512" viewBox="0 0 512 512" width="512" xmlns="http://www.w3.org/2000/svg"><g><g><path d="m466.954 138.352h-108.027v-76.338c0-29.831 24.183-54.014 54.013-54.014 29.831 0 54.014 24.183 54.014 54.014z" fill="#9e9e9e"/><path d="m421.941 8.761c-2.928-.491-5.932-.761-9-.761-29.831 0-54.014 24.183-54.014 54.014v76.338h18v-76.338c0-26.763 19.469-48.967 45.014-53.253z" fill="#898989"/><path d="m358.927 62.014c0-29.83 24.18-54.011 54.009-54.014h-54.009-259.866c-29.832 0-54.015 24.184-54.015 54.016v400.15h313.881v-323.814z" fill="#e0e0e0"/><g><path d="m45.046 444.165h313.881v18h-313.881z" fill="#cecece"/></g><ellipse cx="256.55" cy="377.721" fill="#ffe27a" rx="62.157" ry="62.157" transform="matrix(.707 -.707 .707 .707 -191.948 292.04)"/><path d="m256.55 421.879c-31.271 0-57.138-23.095-61.5-53.157-.427 2.939-.657 5.942-.657 9 0 34.329 27.829 62.157 62.157 62.157s62.157-27.829 62.157-62.157c0-3.058-.23-6.061-.657-9-4.362 30.061-30.23 53.157-61.5 53.157z" fill="#f9cf58"/><circle cx="256.55" cy="377.721" fill="#ff9838" r="31.035"/><path d="m256.55 390.756c-14.01 0-25.846-9.285-29.704-22.035-.862 2.849-1.33 5.87-1.33 9 0 17.14 13.895 31.035 31.035 31.035s31.035-13.895 31.035-31.035c0-3.13-.468-6.151-1.33-9-3.86 12.75-15.697 22.035-29.706 22.035z" fill="#ff8709"/><path d="m256.55 439.878c-12.771 0-24.638-3.856-34.512-10.461v74.583l34.512-16.394 34.511 16.394v-74.583c-9.873 6.605-21.741 10.461-34.511 10.461z" fill="#ff4755"/><path d="m222.038 429.417v18c9.873 6.604 21.741 10.461 34.512 10.461s24.638-3.856 34.512-10.461v-18c-9.874 6.605-21.741 10.461-34.512 10.461s-24.638-3.856-34.512-10.461z" fill="#fc2b3a"/></g><g><path d="m413.248 0c-.001 0-.002 0-.002 0-.001 0-.002 0-.002 0h-.001-314.489c-33.986 0-61.636 27.65-61.636 61.636v74.574c0 4.151 3.364 7.515 7.515 7.515s7.515-3.364 7.515-7.515v-74.574c0-25.699 20.907-46.606 46.607-46.606h274.203c-13.066 11.31-21.344 28.009-21.344 46.604v301.296c0 4.151 3.364 7.515 7.515 7.515s7.515-3.364 7.515-7.515v-217.293h100.725c4.15 0 7.515-3.364 7.515-7.515v-76.488c-.002-33.985-27.651-61.634-61.636-61.634zm46.605 130.608h-93.21v-68.974c0-25.695 20.905-46.601 46.601-46.604h.002.002c25.698 0 46.605 20.907 46.605 46.604z"/><path d="m359.128 385.475c-4.15 0-7.515 3.364-7.515 7.515v62.066h-52.969v-21.47c16.815-12.756 27.7-32.94 27.7-55.625 0-38.484-31.309-69.794-69.793-69.794s-69.793 31.309-69.793 69.794c0 22.685 10.885 42.869 27.699 55.625v21.47h-162.31v-288.787c0-4.151-3.364-7.515-7.515-7.515s-7.515 3.364-7.515 7.515v296.301c0 4.151 3.364 7.515 7.515 7.515h169.824v34.401c0 2.577 1.321 4.976 3.5 6.352 2.179 1.378 4.911 1.541 7.239.435l31.355-14.894 31.355 14.894c1.023.486 2.125.727 3.224.727 1.4 0 2.795-.391 4.016-1.162 2.179-1.377 3.5-3.775 3.5-6.352v-34.401h60.483c4.15 0 7.515-3.364 7.515-7.515v-69.58c0-4.151-3.365-7.515-7.515-7.515zm-157.341-7.515c0-30.197 24.567-54.764 54.764-54.764s54.764 24.567 54.764 54.764-24.567 54.764-54.764 54.764-54.764-24.568-54.764-54.764zm81.829 114.636-23.841-11.324c-2.04-.969-4.408-.969-6.448 0l-23.841 11.324v-50.306c8.327 3.516 17.473 5.463 27.065 5.463s18.738-1.947 27.065-5.463z"/><path d="m256.551 416.57c21.29 0 38.61-17.32 38.61-38.61s-17.32-38.611-38.61-38.611-38.61 17.321-38.61 38.611 17.32 38.61 38.61 38.61zm0-62.191c13.002 0 23.581 10.578 23.581 23.581 0 13.002-10.578 23.58-23.581 23.58-13.002 0-23.581-10.578-23.581-23.58 0-13.003 10.579-23.581 23.581-23.581z"/><path d="m244.172 95.036c4.15 0 7.515-3.364 7.515-7.515s-3.364-7.515-7.515-7.515h-81.941c-4.15 0-7.515 3.364-7.515 7.515 0 4.15 3.365 7.515 7.515 7.515z"/><path d="m92.837 136.21c0 4.151 3.365 7.515 7.515 7.515h205.7c4.15 0 7.515-3.364 7.515-7.515s-3.364-7.515-7.515-7.515h-205.7c-4.15.001-7.515 3.365-7.515 7.515z"/><path d="m100.352 192.414h205.7c4.15 0 7.515-3.364 7.515-7.515s-3.364-7.515-7.515-7.515h-205.7c-4.15 0-7.515 3.364-7.515 7.515s3.365 7.515 7.515 7.515z"/><path d="m100.352 289.792h205.7c4.15 0 7.515-3.364 7.515-7.515s-3.364-7.515-7.515-7.515h-205.7c-4.15 0-7.515 3.364-7.515 7.515 0 4.15 3.365 7.515 7.515 7.515z"/><path d="m100.352 338.48h57.993c4.15 0 7.515-3.364 7.515-7.515s-3.365-7.515-7.515-7.515h-57.993c-4.15 0-7.515 3.364-7.515 7.515s3.365 7.515 7.515 7.515z"/><path d="m100.352 241.103h205.7c4.15 0 7.515-3.364 7.515-7.515s-3.364-7.515-7.515-7.515h-205.7c-4.15 0-7.515 3.364-7.515 7.515s3.365 7.515 7.515 7.515z"/></g></g></svg>