<svg id="Capa_1" enable-background="new 0 0 512 512" height="512" viewBox="0 0 512 512" width="512" xmlns="http://www.w3.org/2000/svg"><g><g><path d="m116.127 410.086c-26.185 10.54-40.626 20.214-40.626 20.214l-11.835-27.122c-36.146 18.813-55.666 35.683-55.666 35.683l37.107 19.699.412 45.44s30.56-26.428 85.614-47.65l-15.005-46.265c-.001 0-.001.001-.001.001z" fill="#ff9838"/><path d="m448.334 403.179-11.835 27.121s-14.442-9.674-40.626-20.215h-.001l-15.005 46.265c55.054 21.222 85.614 47.65 85.614 47.65l.411-45.439 37.108-19.7s-19.52-16.87-55.666-35.682z" fill="#ff9838"/><g><g><path d="m430.908 443.032 5.564-12.75c-.579-.385-14.952-9.872-40.599-20.197l-6.077 18.738c16.412 6.719 27.987 13 34.013 16.528 2.583 1.514 5.901.425 7.099-2.319z" fill="#ff8709"/></g></g><g><g><path d="m81.092 443.032-5.564-12.75c.579-.385 14.952-9.872 40.599-20.197l6.077 18.738c-16.412 6.719-27.987 13-34.013 16.528-2.583 1.514-5.901.425-7.099-2.319z" fill="#ff8709"/></g></g><path d="m125.261 127.259-42.409 17.148-.214 151.642c-.063 39.221 14.25 77.322 40.785 107.629 26.09 29.798 67.865 62.456 132.577 82.889 64.712-20.433 106.488-53.091 132.578-82.889 26.535-30.307 40.847-68.408 40.785-107.629l-.214-151.642-42.409-17.148z" fill="#98db7c"/><path d="m256 383.615c-54.463 0-98.976 11.274-130.177 22.741 4.022 4.454 8.378 8.958 13.124 13.469 30.074-9.73 69.822-18.21 117.053-18.21 47.23 0 86.978 8.479 117.053 18.21 4.746-4.511 9.103-9.015 13.124-13.469-31.201-11.467-75.714-22.741-130.177-22.741z" fill="#82d361"/><path d="m404.65 134.501-17.911-7.242h-261.478l-17.911 7.242c-.056 1.681-.095 3.367-.095 5.062 0 82.305 66.595 149.026 148.744 149.026s148.744-66.721 148.744-149.026c.001-1.694-.037-3.38-.093-5.062z" fill="#82d361"/><ellipse cx="256" cy="139.564" fill="#ff9838" rx="131.315" ry="131.564"/><path d="m256 253.127c-69.503 0-126.385-54.102-131.003-122.564-.201 2.975-.312 5.974-.312 9 0 72.661 58.792 131.564 131.315 131.564s131.315-58.903 131.315-131.564c0-3.026-.111-6.025-.312-9-4.618 68.462-61.5 122.564-131.003 122.564z" fill="#ff8709"/><path d="m436.499 430.3s-69.671-46.685-180.499-46.685c-110.829 0-180.499 46.685-180.499 46.685l-30.394-69.652s81.402-54.546 210.893-54.546 210.893 54.546 210.893 54.546z" fill="#ffcb5b"/><path d="m256 362.224c-102.595 0-172.3 37.292-189.474 47.51l8.975 20.566s69.671-46.685 180.499-46.685c110.829 0 180.499 46.685 180.499 46.685l8.975-20.566c-17.175-10.218-86.879-47.51-189.474-47.51z" fill="#f7b737"/></g><path d="m509.485 433.565c-.778-.672-18.417-15.779-51.038-33.44l15.818-36.239c1.454-3.332.315-7.226-2.706-9.249-.693-.465-14.2-9.426-38.685-20.095 2.933-12.603 4.419-25.49 4.399-38.403l-.215-151.949c-.004-3.059-1.863-5.81-4.699-6.957l-38.339-15.497c-8.671-68.553-67.267-121.736-138.035-121.736s-129.364 53.183-138.035 121.735l-38.34 15.497c-2.837 1.147-4.695 3.898-4.7 6.957l-.104 73.75c-.006 4.151 3.355 7.52 7.507 7.526h.011c4.147 0 7.512-3.358 7.518-7.504l.096-68.69 26.916-10.879c-.002.319-.012.636-.012.955 0 76.836 62.419 139.347 139.142 139.347s139.142-62.511 139.142-139.347c0-.319-.01-.636-.012-.955l26.916 10.879.208 146.89c.017 10.936-1.162 21.851-3.474 32.56-1.884-.735-3.805-1.473-5.783-2.211-33.994-12.683-88.827-27.802-156.997-27.802s-123.002 15.12-156.997 27.802c-1.978.738-3.899 1.475-5.782 2.21-2.311-10.708-3.491-21.623-3.473-32.561l.068-48.139c.006-4.151-3.355-7.52-7.507-7.526-.004 0-.007 0-.011 0-4.147 0-7.512 3.357-7.518 7.505l-.068 48.138c-.021 12.915 1.466 25.802 4.398 38.404-24.485 10.669-37.992 19.63-38.685 20.095-3.021 2.024-4.16 5.917-2.706 9.249l15.818 36.239c-32.621 17.661-50.26 32.768-51.038 33.44-3.527 2.86-3.504 9.849 1.391 12.324l33.243 17.643.373 41.059c-.031 5.817 7.287 9.932 12.429 5.621.075-.065 7.635-6.539 21.673-15.461 12.936-8.222 34.181-20.268 61.935-30.962 3.726-1.436 5.679-5.534 4.447-9.331l-11.637-35.871c32.946 33.912 75.751 59.337 127.384 75.635 1.081-.081-.461.75 4.527 0 51.633-16.298 94.438-41.722 127.384-75.635l-11.637 35.871c-1.232 3.797.721 7.895 4.447 9.331 27.753 10.694 48.999 22.74 61.935 30.962 14.038 8.922 21.598 15.396 21.668 15.456 4.106 3.927 12.449.956 12.434-5.616l.372-41.059 33.243-17.643c4.293-2.162 5.466-8.692 1.391-12.323zm-338.175-385.015c4.754 3.946 12.16 11.278 16.764 21.649-22.079 11.632-41.024 28.837-54.743 50.117 4.332-28.126 18.114-53.166 37.979-71.766zm-1.213 180.447c-19.991-19.224-33.589-45.07-37.235-73.979 10.918-30.295 32.265-54.742 59.143-69.833.193 2.078.269 4.221.172 6.447-.521 11.981-4.238 24.197-8.541 38.339-7.54 24.776-16.697 54.898-13.539 99.026zm78.371 34.43c-22.843-1.374-44.042-8.958-61.925-21.096-6.324-49.441 3.523-81.847 11.477-107.987 4.41-14.491 8.574-28.178 9.178-42.062.216-4.965-.164-9.631-.971-14.006 13.24-5.456 27.486-8.757 42.241-9.605zm0-209.826c-16.314.839-32.074 4.395-46.755 10.292-5.134-11.39-12.827-19.804-18.684-25.049 18.594-13.58 41.079-22.114 65.439-23.58zm92.193-5.05c19.865 18.6 33.647 43.639 37.978 71.766-13.719-21.28-32.664-38.485-54.743-50.117 4.605-10.373 12.011-17.704 16.765-21.649zm-77.158-33.286c24.36 1.465 46.845 9.999 65.439 23.58-5.857 5.244-13.55 13.658-18.684 25.049-14.681-5.897-30.441-9.453-46.755-10.292zm78.361 213.741c1.431-20.161.431-39.393-3.031-58.338-.746-4.082-4.664-6.786-8.746-6.042-4.084.746-6.791 4.66-6.045 8.743 4.04 22.113 4.49 44.71 1.385 68.963-17.883 12.138-39.082 19.722-61.925 21.096v-194.756c14.755.848 29.001 4.149 42.241 9.605-.807 4.375-1.187 9.041-.971 14.006.604 13.881 4.768 27.567 9.177 42.058 1.036 3.402 2.1 6.9 3.155 10.515.958 3.281 3.958 5.411 7.213 5.411.697 0 1.407-.098 2.11-.303 3.986-1.162 6.274-5.335 5.11-9.32-1.072-3.671-2.152-7.223-3.204-10.678-4.303-14.142-8.02-26.356-8.54-38.337-.097-2.226-.021-4.369.172-6.447 26.878 15.091 48.224 39.538 59.143 69.833-3.646 28.917-17.248 54.766-37.244 73.991zm-278.684 253.28c-4.141 2.64-7.742 5.072-10.79 7.214l-.278-30.578c-.025-2.755-1.557-5.277-3.992-6.569l-26.925-14.291c7.869-5.753 20.842-14.541 38.365-24.108l8.61 19.724c1.639 3.862 6.856 5.889 11.068 3.241.138-.092 11.494-7.595 31.911-16.425l10.346 31.892c-25.854 10.52-45.794 21.919-58.315 29.9zm192.805-3.121c-47.266-15.254-86.567-38.508-117.037-69.206 28.068-9.238 68.415-18.549 117.037-18.549 8.88 0 17.848.31 26.656.922 4.139.262 7.732-2.838 8.02-6.977.288-4.14-2.837-7.731-6.979-8.018-9.153-.635-18.472-.957-27.697-.957-92.377 0-156.232 31.306-177.472 43.414l-24.413-55.93c8.118-4.747 25.314-14.008 50.145-23.272 32.834-12.251 85.813-26.854 151.74-26.854 65.677 0 118.49 14.5 151.229 26.664 25.017 9.294 42.453 18.679 50.653 23.467l-24.415 55.933c-16.398-9.323-58.303-30.116-119.31-39.159-4.109-.612-7.93 2.226-8.539 6.332-.609 4.105 2.227 7.927 6.334 8.536 23.351 3.461 43.873 8.783 61.063 14.47-30.467 30.687-69.76 53.933-117.015 69.184zm207.865-26.811c-2.435 1.292-3.967 3.813-3.992 6.569l-.278 30.577c-3.048-2.142-6.649-4.574-10.79-7.214-12.521-7.981-32.46-19.38-58.316-29.9l10.334-31.85c20.392 8.806 31.696 16.232 31.917 16.379 3.228 2.339 9.123 1.311 11.075-3.237l8.61-19.724c17.524 9.568 30.497 18.356 38.365 24.108z"/></g></svg>