<svg id="Capa_1" enable-background="new 0 0 512 512" height="512" viewBox="0 0 512 512" width="512" xmlns="http://www.w3.org/2000/svg"><g><g><g><circle cx="256" cy="256" fill="#98db7c" r="248"/><path d="m256 486c-133.952 0-243.081-106.205-247.82-239-.107 2.988-.18 5.986-.18 9 0 136.967 111.033 248 248 248s248-111.033 248-248c0-3.014-.073-6.012-.18-9-4.739 132.795-113.868 239-247.82 239z" fill="#82d361"/><g fill="#609e3f"><path d="m397.879 114.121 33.484-33.484c-44.88-44.879-106.88-72.637-175.363-72.637v47.353c55.407 0 105.569 22.459 141.879 58.768z"/><path d="m114.121 114.121-33.484-33.484c-44.879 44.88-72.637 106.88-72.637 175.363h47.353c0-55.407 22.458-105.569 58.768-141.879z"/><path d="m456.647 256c0 55.407-22.458 105.569-58.768 141.879l33.484 33.484c44.879-44.88 72.637-106.88 72.637-175.363z"/></g><path d="m422.127 422.127 9.236 9.236c44.879-44.88 72.637-106.88 72.637-175.363h-.655c-4.72 65.806-35.111 124.501-81.218 166.127z" fill="#548736"/><path d="m114.121 397.879-33.484 33.484c44.88 44.879 106.88 72.637 175.363 72.637v-47.353c-55.407 0-105.569-22.458-141.879-58.768z" fill="#609e3f"/><path d="m80.637 431.362c44.88 44.88 106.88 72.638 175.363 72.638v-18c-63.904 0-122.156-24.176-166.127-63.873z" fill="#548736"/><circle cx="256" cy="256" fill="#ffe27a" r="200.647"/><path d="m256 438.647c-107.797 0-195.727-85.011-200.436-191.647-.132 2.985-.211 5.983-.211 9 0 110.814 89.833 200.647 200.647 200.647s200.647-89.833 200.647-200.647c0-3.017-.079-6.015-.211-9-4.709 106.636-92.639 191.647-200.436 191.647z" fill="#f9cf58"/></g><path d="m274.559 158.988 18.907 38.31c3.015 6.108 8.842 10.342 15.583 11.321l42.277 6.143c16.975 2.467 23.753 23.327 11.47 35.301l-30.592 29.82c-4.878 4.755-7.103 11.605-5.952 18.318l7.222 42.106c2.9 16.907-14.846 29.799-30.029 21.817l-37.814-19.88c-6.029-3.17-13.232-3.17-19.261 0l-37.814 19.88c-15.183 7.982-32.928-4.911-30.029-21.817l7.222-42.106c1.151-6.714-1.074-13.564-5.952-18.318l-30.592-29.82c-12.283-11.973-5.505-32.834 11.47-35.301l42.277-6.143c6.741-.98 12.568-5.213 15.583-11.321l18.907-38.31c7.591-15.382 29.525-15.382 37.117 0z" fill="#0083fd"/><g><g><g><path d="m253.673 320.405-70.36 36.991c5.92 6.734 16.047 9.564 25.242 4.729l37.814-19.88c6.029-3.17 13.232-3.17 19.261 0l37.814 19.88c9.196 4.834 19.323 2.004 25.243-4.729l-70.36-36.991c-1.457-.765-3.197-.765-4.654 0z" fill="#0072fc"/></g></g></g></g><g><path d="m352.592 207.245-42.359-6.156c-4.307-.626-8.028-3.33-9.955-7.233l-18.944-38.385c-4.795-9.713-14.502-15.748-25.334-15.748s-20.539 6.034-25.333 15.748l-18.944 38.385c-1.926 3.903-5.648 6.607-9.955 7.233l-42.36 6.156c-10.72 1.558-19.458 8.925-22.805 19.227-3.348 10.302-.609 21.399 7.148 28.96l30.653 29.88c3.117 3.037 4.538 7.412 3.802 11.703l-7.236 42.189c-1.831 10.675 2.475 21.263 11.238 27.63 4.953 3.599 10.746 5.427 16.58 5.427 4.489 0 9.002-1.083 13.173-3.275l37.888-19.919c3.853-2.025 8.453-2.025 12.305 0l37.889 19.919c9.587 5.038 20.987 4.215 29.752-2.152 8.763-6.367 13.07-16.954 11.238-27.631l-1.029-5.998c-.702-4.09-4.589-6.845-8.677-6.135-4.09.702-6.838 4.587-6.135 8.677l1.029 5.997c.869 5.072-1.097 9.906-5.26 12.931s-9.369 3.403-13.925 1.007l-37.887-19.919c-8.232-4.328-18.062-4.328-26.294 0l-37.887 19.919c-4.557 2.395-9.761 2.018-13.925-1.007-4.163-3.025-6.129-7.859-5.259-12.931l7.236-42.189c1.572-9.167-1.465-18.516-8.125-25.005l-30.652-29.879c-3.685-3.593-4.936-8.66-3.346-13.555 1.59-4.894 5.58-8.257 10.673-8.998l42.36-6.156c9.204-1.338 17.155-7.115 21.271-15.454l18.944-38.385c2.277-4.614 6.709-7.37 11.856-7.37s9.579 2.754 11.857 7.37l18.944 38.385c4.115 8.339 12.068 14.116 21.272 15.454l42.359 6.156c5.093.741 9.083 4.105 10.673 8.999 1.591 4.894.34 9.961-3.345 13.553l-30.653 29.879c-6.659 6.492-9.697 15.84-8.124 25.006l1.121 6.544c.702 4.091 4.588 6.839 8.677 6.137 4.091-.702 6.838-4.587 6.136-8.677l-1.122-6.544c-.735-4.29.686-8.665 3.803-11.703l30.653-29.88c7.756-7.561 10.496-18.658 7.149-28.96-3.35-10.301-12.089-17.669-22.809-19.227z"/><path d="m437.02 74.98c-48.353-48.351-112.639-74.98-181.02-74.98-68.38 0-132.667 26.629-181.02 74.98-48.351 48.353-74.98 112.64-74.98 181.02s26.629 132.667 74.98 181.02c48.353 48.351 112.64 74.98 181.02 74.98 28.967 0 57.395-4.803 84.495-14.275 3.918-1.369 5.983-5.655 4.615-9.573-1.37-3.917-5.657-5.985-9.573-4.615-23.155 8.093-47.349 12.551-72.022 13.305v-32.439c51.842-1.846 98.919-22.7 134.467-55.795l23.019 23.019c-17.341 16.3-37.059 30.022-58.589 40.636-3.722 1.835-5.252 6.341-3.417 10.063s6.34 5.251 10.063 3.417c42.241-20.825 77.934-52.888 103.221-92.721 25.986-40.931 39.721-88.313 39.721-137.022 0-68.38-26.628-132.667-74.98-181.02zm27.384 173.505c-1.846-51.842-22.7-98.919-55.795-134.467l23.006-23.007c40.483 43.025 63.43 98.424 65.227 157.473h-32.438zm-208.404 201.04c-106.71 0-193.525-86.815-193.525-193.525 0-70.538 38.417-135.529 100.258-169.61 3.635-2.003 4.957-6.573 2.954-10.208s-6.573-4.959-10.208-2.954c-15.232 8.395-29.14 18.534-41.542 30.083l-22.925-22.926c43.025-40.484 98.424-63.431 157.473-65.228v32.433c-22.033.778-43.593 4.97-64.193 12.513-3.897 1.427-5.9 5.743-4.473 9.64 1.427 3.898 5.745 5.901 9.64 4.473 21.277-7.791 43.664-11.741 66.541-11.741 106.709 0 193.525 86.815 193.525 193.525s-86.816 193.525-193.525 193.525zm-240.843-186.01h32.439c1.846 51.842 22.7 98.919 55.795 134.467l-23.006 23.006c-40.484-43.025-63.431-98.424-65.228-157.473zm65.228-172.503 22.926 22.926c-33.706 36.258-53.904 83.854-55.727 134.547h-32.427c1.797-59.049 24.744-114.448 65.228-157.473zm33.633 317.597c35.548 33.095 82.625 53.949 134.467 55.795v32.439c-59.049-1.797-114.449-24.744-157.473-65.228zm283.964-305.218c-35.548-33.095-82.625-53.949-134.467-55.795v-32.439c59.049 1.797 114.448 24.744 157.473 65.227zm61.609 281.578c-8.206 12.926-17.576 24.982-27.959 36.035l-23.022-23.022c33.095-35.548 53.949-82.625 55.795-134.467h32.444c-1.335 43.199-14.142 85.041-37.258 121.454z"/></g></g></svg>