<svg id="Capa_1" enable-background="new 0 0 512 512" height="512" viewBox="0 0 512 512" width="512" xmlns="http://www.w3.org/2000/svg"><g><g><path d="m256 8 150.482 63.282c-15.319 217.623-150.482 261.799-150.482 261.799s-135.163-44.176-150.482-261.799z" fill="#ffcb5b"/><path d="m257.778 314.434c-1.147.44-2.409.44-3.556 0-15.502-5.949-127.594-55.263-147.188-243.79l-1.515.637c15.318 217.624 150.481 261.8 150.481 261.8s135.163-44.176 150.482-261.799l-1.516-.637c-19.594 188.526-131.686 237.84-147.188 243.789z" fill="#f7b737"/><path d="m391.277 504h-270.554v-18.079c0-11.046 8.954-20 20-20h230.555c11.046 0 20 8.954 20 20v18.079z" fill="#5a5a5a"/><path d="m120.723 486h270.555v18h-270.555z" fill="#4c4c4c"/><path d="m324.145 333.081h-136.29c-15.238 0-28.131 11.264-30.177 26.364l-14.428 106.476h225.5l-14.428-106.476c-2.046-15.1-14.939-26.364-30.177-26.364z" fill="#e0e0e0"/><path d="m145.689 447.921-2.438 18h225.499l-2.44-18z" fill="#cecece"/><path d="m256 52.935 108.88 45.787c-11.084 157.461-108.88 189.424-108.88 189.424s-97.796-31.963-108.88-189.423z" fill="#ff9838"/><path d="m254.146 269.456c-12.974-5.147-90.088-41.011-105.392-171.42l-1.634.687c11.084 157.46 108.88 189.423 108.88 189.423s97.796-31.963 108.88-189.423l-1.634-.687c-15.303 130.409-92.417 166.274-105.392 171.42-1.193.473-2.515.473-3.708 0z" fill="#ff8709"/><path d="m264.856 110.719 9.022 18.303c1.439 2.918 4.219 4.941 7.436 5.409l20.174 2.935c8.1 1.179 11.335 11.145 5.473 16.865l-14.598 14.247c-2.328 2.271-3.39 5.544-2.84 8.752l3.446 20.116c1.384 8.077-7.084 14.237-14.329 10.423l-18.044-9.498c-2.877-1.514-6.314-1.514-9.191 0l-18.044 9.498c-7.245 3.813-15.713-2.346-14.329-10.423l3.446-20.116c.549-3.207-.513-6.48-2.84-8.752l-14.598-14.247c-5.861-5.72-2.627-15.686 5.473-16.865l20.174-2.935c3.217-.468 5.997-2.491 7.436-5.409l9.022-18.303c3.622-7.349 14.088-7.349 17.711 0z" fill="#fff5f5"/><g><path d="m292.962 197.307-34.634-18.229c-1.458-.767-3.2-.767-4.658 0l-34.633 18.229-.007.038c-1.397 8.074 7.079 14.239 14.33 10.423l18.043-9.497c2.877-1.514 6.314-1.514 9.191 0l18.043 9.497c7.251 3.816 15.727-2.349 14.33-10.423z" fill="#efe2dd"/></g></g><g><path d="m375.576 459.12-13.615-100.481c-2.542-18.768-18.743-32.922-37.683-32.922h-36.968c17.708-11.237 41.112-30.056 63.197-60.175 2.454-3.346 1.73-8.05-1.617-10.504-3.346-2.453-8.049-1.73-10.504 1.617-30.141 41.108-65.658 62.218-82.331 68.578-7.927-3.16-35.355-15.625-64.194-46.517-20.174-21.609-36.892-47.775-49.692-77.77-15.508-36.345-25.272-78.443-29.044-125.197l142.875-60.082 142.876 60.084c-4.909 60.89-19.881 113.47-44.53 156.351-2.069 3.598-.829 8.191 2.77 10.259 3.598 2.07 8.192.828 10.259-2.77 26.512-46.119 42.291-102.691 46.897-168.143.226-3.209-1.617-6.208-4.583-7.454l-150.776-63.405c-1.863-.785-3.963-.785-5.826 0l-150.776 63.406c-2.967 1.246-4.809 4.245-4.583 7.454 3.56 50.572 13.861 96.127 30.618 135.398 13.486 31.605 31.16 59.237 52.528 82.126 15.836 16.963 31.289 28.763 43.863 36.745h-37.016c-18.939 0-35.139 14.153-37.683 32.922l-13.613 100.48c-13.269 1.974-23.481 13.441-23.481 27.251v18.114c0 4.151 3.364 7.515 7.515 7.515h271.084c4.151 0 7.515-3.364 7.515-7.515v-18.114c-.001-13.809-10.214-25.276-23.482-27.251zm8.451 37.851h-256.054v-10.6c0-6.906 5.618-12.525 12.524-12.525h73.432c4.151 0 7.515-3.364 7.515-7.515s-3.364-7.515-7.515-7.515h-62.298l13.3-98.159c1.539-11.351 11.337-19.911 22.791-19.911h136.556c11.455 0 21.252 8.56 22.791 19.91l13.301 98.16h-116.382c-4.151 0-7.515 3.364-7.515 7.515s3.364 7.515 7.515 7.515h127.515c6.906 0 12.525 5.618 12.525 12.525v10.6z"/><path d="m158.233 165.538c-3.954 1.259-6.14 5.485-4.881 9.44 16.014 50.3 42.157 80.233 61.269 96.485 21.013 17.87 38.318 23.652 39.044 23.889 1.008.224 2.164.684 4.669 0 1.075-.351 26.645-8.938 53.54-37.749 15.627-16.739 28.547-36.934 38.399-60.025 12.215-28.627 19.723-61.813 22.315-98.636.226-3.209-1.616-6.208-4.583-7.454l-109.092-45.877c-1.863-.783-3.963-.783-5.826 0l-109.093 45.878c-2.966 1.246-4.809 4.245-4.583 7.454 1.129 16.056 3.212 31.577 6.191 46.133.832 4.066 4.799 6.68 8.868 5.856 4.066-.832 6.688-4.802 5.856-8.868-2.516-12.295-4.364-25.331-5.508-38.824l101.182-42.55 101.18 42.55c-3.676 43.023-16.499 100.99-55.637 143.403-19.834 21.493-39.031 30.782-45.544 33.512-5.06-2.116-17.686-8.142-32.261-20.671-31.531-27.106-47.892-63.395-56.064-89.066-1.26-3.955-5.484-6.138-9.441-4.88z"/><path d="m312.309 159.41c4.78-4.665 6.466-11.51 4.4-17.863-2.064-6.349-7.448-10.889-14.05-11.849l-20.214-2.941c-.775-.112-1.445-.601-1.792-1.304l-9.039-18.339c0-.001-.001-.001-.001-.001-2.954-5.992-8.937-9.714-15.615-9.714-6.676.001-12.658 3.723-15.612 9.714l-9.039 18.339c-.347.704-1.018 1.193-1.793 1.305l-20.212 2.941c-6.603.96-11.987 5.5-14.052 11.849-2.066 6.353-.38 13.198 4.4 17.862l14.627 14.276c.564.55.82 1.343.687 2.121l-3.453 20.156c-1.128 6.588 1.529 13.119 6.935 17.045 5.209 3.759 12.115 4.46 18.329 1.317l18.08-9.516c.69-.364 1.515-.364 2.208 0l18.079 9.516c5.904 3.109 12.927 2.604 18.329-1.317 5.406-3.926 8.064-10.457 6.935-17.045l-3.453-20.154c-.133-.78.123-1.573.688-2.124zm-25.122 3.518c-4.102 4.001-5.973 9.764-5.006 15.417l3.453 20.156c.219 1.28-.502 2.019-.952 2.344-.445.323-1.362.778-2.498.18l-18.078-9.516c-5.076-2.671-11.136-2.671-16.21 0l-18.079 9.516c-1.136.597-2.054.142-2.498-.18-.45-.326-1.171-1.065-.952-2.344l3.453-20.158c.967-5.651-.904-11.414-5.005-15.414l-14.626-14.276c-.928-.904-.777-1.929-.604-2.458.171-.527.649-1.439 1.922-1.624l20.212-2.941c5.672-.825 10.573-4.388 13.11-9.532l9.04-18.34c.57-1.157 1.58-1.33 2.132-1.33s1.563.173 2.134 1.331l9.039 18.339c2.535 5.144 7.435 8.708 13.108 9.532l20.215 2.941c1.272.185 1.749 1.097 1.921 1.623.172.53.323 1.555-.605 2.46z"/></g></g></svg>